<?xml version="1.0" encoding="utf-8"?>
<!-- Generator: Adobe Illustrator 23.0.1, SVG Export Plug-In . SVG Version: 6.00 Build 0)  -->
<svg version="1.1" id="Layer_1" xmlns="http://www.w3.org/2000/svg" xmlns:xlink="http://www.w3.org/1999/xlink" x="0px" y="0px"
	 viewBox="0 0 1920 1080" style="enable-background:new 0 0 1920 1080;" xml:space="preserve">
<style type="text/css">
	.st0{fill:#FF6229;}
	.st1{fill:#FFFFFF;}
	.st2{clip-path:url(#SVGID_3_);}
	.st3{clip-path:url(#SVGID_4_);}
	.st4{clip-path:url(#SVGID_7_);}
	.st5{clip-path:url(#SVGID_8_);}
</style>
<g>
	<g>
		<g>
			<path class="st0" d="M912.88,556.53l-101.03,23.88c-6.39,1.51-12.02-4.46-10.13-10.75l36.69-122.12
				c2.08-6.94,11.33-8.28,15.3-2.22l64.34,98.25C921.29,548.51,918.64,555.17,912.88,556.53z"/>
		</g>
		<g>
			<path class="st0" d="M1057.73,559.9l101.69,20.87c6.43,1.32,11.88-4.82,9.8-11.05l-40.29-120.98
				c-2.29-6.88-11.57-7.94-15.36-1.76l-61.4,100.12C1049.09,552.13,1051.94,558.71,1057.73,559.9z"/>
		</g>
		<g>
			<path class="st0" d="M1249.82,174.64L993.36,606.02c-4,6.72-13.73,6.7-17.7-0.04l-123.81-210.4v-0.03l20.3-77.76
				c2.01-7.69,11.6-10.29,17.22-4.67l88.85,88.85c4.01,4.01,10.51,4.02,14.52,0.02l240.99-239.88
				C1242.29,153.57,1255.99,164.25,1249.82,174.64z"/>
		</g>
	</g>
	<g>
		<g>
			<g>
				<path class="st0" d="M1188.44,588.07c-7.11,0-12.9-5.79-12.9-12.9c0-7.11,5.79-12.9,12.9-12.9c7.11,0,12.9,5.79,12.9,12.9
					C1201.34,582.29,1195.55,588.07,1188.44,588.07z M1188.44,564.23c-6.04,0-10.95,4.91-10.95,10.95s4.91,10.95,10.95,10.95h0
					c6.04,0,10.95-4.91,10.95-10.95S1194.47,564.23,1188.44,564.23z"/>
			</g>
		</g>
		<g>
			<g>
				<path class="st0" d="M1191.88,582.44l-3.92-5.68h-2.47v5.74h-2.36v-15.1l6.95,0.02c0.64,0,1.25,0.12,1.81,0.37
					c0.56,0.25,1.06,0.58,1.48,1.01s0.76,0.92,1,1.5c0.24,0.58,0.36,1.19,0.36,1.83c0,0.59-0.1,1.14-0.3,1.66
					c-0.2,0.52-0.48,0.98-0.85,1.39c-0.36,0.41-0.79,0.75-1.27,1.02c-0.48,0.27-1.01,0.44-1.57,0.52l3.97,5.72H1191.88z
					 M1190.09,574.44c0.32,0,0.62-0.06,0.89-0.18c0.27-0.12,0.52-0.29,0.72-0.5c0.21-0.21,0.37-0.46,0.49-0.74
					c0.12-0.27,0.18-0.57,0.18-0.9s-0.06-0.63-0.18-0.92c-0.12-0.29-0.29-0.54-0.5-0.76c-0.21-0.21-0.46-0.39-0.73-0.51
					c-0.27-0.13-0.57-0.19-0.89-0.19h-4.58v4.67L1190.09,574.44z"/>
			</g>
		</g>
	</g>
</g>
<g>
	<g>
		<path class="st1" d="M686.07,642.73V731H672.3v-61.92l-32.5,32.38l-32.38-32.38V731h-13.78v-88.27h6.95l39.21,39.23l39.33-39.23
			H686.07z"/>
		<path class="st1" d="M710.8,731.24h-15.07l38.03-88.28h7.54l38.03,88.28h-15.07l-8.24-19.03h-36.97L710.8,731.24z M737.53,669.08
			l-12.6,29.31h25.2L737.53,669.08z"/>
		<path class="st1" d="M838.48,731l-22.91-33.32h-14.45v33.68h-13.78v-88.63l40.62,0.12c3.77,0,7.3,0.73,10.6,2.19
			c3.3,1.46,6.18,3.43,8.65,5.91c2.47,2.48,4.42,5.42,5.83,8.8c1.41,3.39,2.12,6.97,2.12,10.75c0,3.47-0.59,6.72-1.77,9.75
			c-1.18,3.03-2.83,5.75-4.95,8.15c-2.12,2.4-4.59,4.39-7.42,5.97c-2.83,1.58-5.89,2.6-9.18,3.07l23.2,33.56H838.48z M828,684.09
			c1.88,0,3.62-0.35,5.22-1.06c1.6-0.71,3.01-1.69,4.23-2.96c1.21-1.26,2.17-2.7,2.88-4.31c0.7-1.61,1.06-3.37,1.06-5.26
			c0-1.89-0.35-3.68-1.06-5.38c-0.71-1.69-1.68-3.17-2.93-4.43c-1.25-1.26-2.68-2.26-4.28-3.01c-1.6-0.75-3.35-1.12-5.22-1.12
			h-26.77v27.42L828,684.09z"/>
		<path class="st1" d="M899.2,682.43l36.5,48.69h-17.19l-28.85-38.41l-8.6,9.22v29.31h-13.78v-87.92h13.78v38.41l0.24-0.24v-0.12
			l0.47-0.35l35.68-38.29h18.84L899.2,682.43z"/>
		<g>
			<path class="st0" d="M976.44,642.73c6.04,0,11.73,1.16,17.07,3.49c5.34,2.32,10.01,5.5,14.01,9.51c4,4.02,7.16,8.71,9.48,14.06
				c2.31,5.36,3.47,11.07,3.47,17.14c0,6.15-1.16,11.9-3.47,17.25c-2.32,5.36-5.48,10.03-9.48,14c-4,3.98-8.67,7.13-14.01,9.45
				c-5.34,2.32-11.03,3.49-17.07,3.49c-6.12,0-11.85-1.16-17.19-3.49c-5.34-2.32-9.99-5.48-13.95-9.45c-3.96-3.98-7.11-8.64-9.42-14
				c-2.32-5.36-3.47-11.11-3.47-17.25c0-6.07,1.16-11.78,3.47-17.14c2.31-5.36,5.46-10.04,9.42-14.06
				c3.96-4.02,8.61-7.19,13.95-9.51C964.59,643.89,970.32,642.73,976.44,642.73z M976.44,718.12c4.24,0,8.24-0.81,12.01-2.42
				c3.77-1.61,7.07-3.84,9.89-6.68c2.83-2.84,5.04-6.15,6.65-9.93c1.61-3.78,2.41-7.84,2.41-12.17c0-4.25-0.81-8.27-2.41-12.05
				c-1.61-3.78-3.83-7.09-6.65-9.93c-2.83-2.84-6.12-5.06-9.89-6.68c-3.77-1.61-7.77-2.42-12.01-2.42c-4.32,0-8.36,0.81-12.13,2.42
				c-3.77,1.62-7.06,3.84-9.89,6.68c-2.83,2.84-5.04,6.15-6.65,9.93c-1.61,3.78-2.41,7.8-2.41,12.05c0,4.33,0.8,8.39,2.41,12.17
				c1.61,3.78,3.83,7.09,6.65,9.93c2.83,2.84,6.12,5.06,9.89,6.68C968.08,717.31,972.12,718.12,976.44,718.12z"/>
		</g>
		<g>
			<path class="st0" d="M1083.98,731l-22.91-33.32h-14.45v33.68h-13.78v-88.63l40.62,0.12c3.77,0,7.3,0.73,10.6,2.19
				c3.3,1.46,6.18,3.43,8.66,5.91c2.47,2.48,4.41,5.42,5.83,8.8c1.41,3.39,2.12,6.97,2.12,10.75c0,3.47-0.59,6.72-1.77,9.75
				c-1.18,3.03-2.83,5.75-4.95,8.15c-2.12,2.4-4.59,4.39-7.42,5.97c-2.83,1.58-5.89,2.6-9.19,3.07l23.2,33.56H1083.98z
				 M1073.5,684.09c1.88,0,3.62-0.35,5.23-1.06c1.6-0.71,3.01-1.69,4.23-2.96c1.21-1.26,2.17-2.7,2.88-4.31
				c0.7-1.61,1.06-3.37,1.06-5.26c0-1.89-0.35-3.68-1.06-5.38c-0.7-1.69-1.68-3.17-2.93-4.43c-1.25-1.26-2.68-2.26-4.29-3.01
				c-1.6-0.75-3.35-1.12-5.22-1.12h-26.77v27.42L1073.5,684.09z"/>
		</g>
		<g>
			<path class="st0" d="M1162.52,731l-22.91-33.32h-14.45v33.68h-13.78v-88.63l40.62,0.12c3.77,0,7.3,0.73,10.6,2.19
				c3.3,1.46,6.18,3.43,8.66,5.91c2.47,2.48,4.41,5.42,5.83,8.8c1.41,3.39,2.12,6.97,2.12,10.75c0,3.47-0.59,6.72-1.77,9.75
				c-1.18,3.03-2.83,5.75-4.95,8.15c-2.12,2.4-4.59,4.39-7.42,5.97c-2.83,1.58-5.89,2.6-9.19,3.07l23.2,33.56H1162.52z
				 M1152.04,684.09c1.88,0,3.62-0.35,5.23-1.06c1.6-0.71,3.01-1.69,4.23-2.96c1.21-1.26,2.17-2.7,2.88-4.31
				c0.7-1.61,1.06-3.37,1.06-5.26c0-1.89-0.35-3.68-1.06-5.38c-0.7-1.69-1.68-3.17-2.93-4.43c-1.25-1.26-2.68-2.26-4.29-3.01
				c-1.6-0.75-3.35-1.12-5.22-1.12h-26.77v27.42L1152.04,684.09z"/>
		</g>
		<g>
			<path class="st0" d="M1248.32,731.12h-56.99v-88.04h56.99v13.59h-43.45v19.85h37.8v13.59h-37.8v27.42h43.45V731.12z"/>
		</g>
		<g>
			<path class="st0" d="M1302.01,731.24c-6.05,0-11.74-1.16-17.07-3.49c-5.34-2.32-10.01-5.47-14.01-9.45c-4-3.98-7.16-8.64-9.48-14
				c-2.32-5.36-3.47-11.11-3.47-17.25c0-6.07,1.16-11.78,3.47-17.14c2.31-5.36,5.48-10.04,9.48-14.06c4-4.02,8.67-7.19,14.01-9.51
				c5.34-2.32,11.03-3.49,17.07-3.49c4.39,0,8.65,0.64,12.77,1.91c4.12,1.27,7.99,3.14,11.6,5.6l-7.42,11.28
				c-5.1-3.47-10.76-5.2-16.95-5.2c-4.24,0-8.2,0.8-11.89,2.41c-3.69,1.61-6.93,3.81-9.71,6.59c-2.79,2.79-4.99,6.02-6.59,9.71
				c-1.61,3.69-2.41,7.65-2.41,11.89c0,4.24,0.8,8.22,2.41,11.95c1.61,3.73,3.81,6.96,6.59,9.71c2.79,2.75,6.02,4.92,9.71,6.53
				c3.69,1.61,7.65,2.41,11.89,2.41c6.12,0,11.77-1.69,16.95-5.08l7.42,11.28c-3.61,2.47-7.48,4.31-11.6,5.55
				C1310.67,730.62,1306.41,731.24,1302.01,731.24z"/>
		</g>
		<g>
			<path class="st0" d="M1336.63,642.73h68.41v13.83h-27.32v74.57h-13.78v-74.57h-27.32V642.73z"/>
		</g>
	</g>
	<g>
		<g>
			<g>
				<g>
					<defs>
						<ellipse id="SVGID_1_" cx="1438.32" cy="638.83" rx="20.76" ry="20.83"/>
					</defs>
					<defs>
						<path id="SVGID_2_" d="M1438.32,621.15c-9.71,0-17.62,7.93-17.62,17.68s7.9,17.68,17.62,17.68h0
							c9.71,0,17.62-7.93,17.62-17.68S1448.04,621.15,1438.32,621.15z"/>
					</defs>
					<use xlink:href="#SVGID_1_"  style="overflow:visible;fill:#FF6229;"/>
					<use xlink:href="#SVGID_2_"  style="overflow:visible;fill:#FF6229;"/>
					<clipPath id="SVGID_3_">
						<use xlink:href="#SVGID_1_"  style="overflow:visible;"/>
					</clipPath>
					<clipPath id="SVGID_4_" class="st2">
						<use xlink:href="#SVGID_2_"  style="overflow:visible;"/>
					</clipPath>
					<g class="st3">
						<rect x="1420.71" y="621.15" class="st0" width="35.23" height="35.36"/>
					</g>
					<g class="st3">
						<ellipse class="st0" cx="1438.32" cy="638.83" rx="20.76" ry="20.83"/>
					</g>
					<g class="st3">
						<ellipse class="st0" cx="1438.32" cy="638.83" rx="20.07" ry="20.14"/>
					</g>
					<g class="st3">
						<ellipse class="st0" cx="1438.32" cy="638.83" rx="19.38" ry="19.45"/>
					</g>
					<g class="st3">
						<ellipse class="st0" cx="1438.32" cy="638.83" rx="18.68" ry="18.75"/>
					</g>
					<g class="st3">
						<ellipse class="st0" cx="1438.32" cy="638.83" rx="17.99" ry="18.06"/>
					</g>
					<g class="st3">
						<ellipse class="st0" cx="1438.32" cy="638.83" rx="17.3" ry="17.36"/>
					</g>
					<g class="st3">
						<ellipse class="st0" cx="1438.32" cy="638.83" rx="16.61" ry="16.67"/>
					</g>
					<g class="st3">
						<ellipse class="st0" cx="1438.32" cy="638.83" rx="15.92" ry="15.97"/>
					</g>
					<g class="st3">
						<ellipse class="st0" cx="1438.32" cy="638.83" rx="15.22" ry="15.28"/>
					</g>
					<g class="st3">
						<ellipse class="st0" cx="1438.32" cy="638.83" rx="14.53" ry="14.58"/>
					</g>
					<g class="st3">
						<ellipse class="st0" cx="1438.32" cy="638.83" rx="13.84" ry="13.89"/>
					</g>
					<g class="st3">
						<ellipse class="st0" cx="1438.32" cy="638.83" rx="13.15" ry="13.2"/>
					</g>
					<g class="st3">
						<ellipse class="st0" cx="1438.32" cy="638.83" rx="12.46" ry="12.5"/>
					</g>
					<g class="st3">
						<ellipse class="st0" cx="1438.32" cy="638.83" rx="11.76" ry="11.81"/>
					</g>
					<g class="st3">
						<ellipse class="st0" cx="1438.32" cy="638.83" rx="11.07" ry="11.11"/>
					</g>
					<g class="st3">
						<ellipse class="st0" cx="1438.32" cy="638.83" rx="10.38" ry="10.42"/>
					</g>
					<g class="st3">
						<ellipse class="st0" cx="1438.32" cy="638.83" rx="9.69" ry="9.72"/>
					</g>
					<g class="st3">
						<ellipse class="st0" cx="1438.32" cy="638.83" rx="9" ry="9.03"/>
					</g>
					<g class="st3">
						<ellipse class="st0" cx="1438.32" cy="638.83" rx="8.3" ry="8.33"/>
					</g>
					<g class="st3">
						<ellipse class="st0" cx="1438.32" cy="638.83" rx="7.61" ry="7.64"/>
					</g>
					<g class="st3">
						<ellipse class="st0" cx="1438.32" cy="638.83" rx="6.92" ry="6.94"/>
					</g>
					<g class="st3">
						<ellipse class="st0" cx="1438.32" cy="638.83" rx="6.23" ry="6.25"/>
					</g>
					<g class="st3">
						<ellipse class="st0" cx="1438.32" cy="638.83" rx="5.54" ry="5.56"/>
					</g>
					<g class="st3">
						<ellipse class="st0" cx="1438.32" cy="638.83" rx="4.84" ry="4.86"/>
					</g>
					<g class="st3">
						<ellipse class="st0" cx="1438.32" cy="638.83" rx="4.15" ry="4.17"/>
					</g>
					<g class="st3">
						<ellipse class="st0" cx="1438.32" cy="638.83" rx="3.46" ry="3.47"/>
					</g>
					<g class="st3">
						<ellipse class="st0" cx="1438.32" cy="638.83" rx="2.77" ry="2.78"/>
					</g>
					<g class="st3">
						<ellipse class="st0" cx="1438.32" cy="638.83" rx="2.08" ry="2.08"/>
					</g>
					<g class="st3">
						<ellipse class="st0" cx="1438.32" cy="638.83" rx="1.38" ry="1.39"/>
					</g>
					<g class="st3">
						<ellipse class="st0" cx="1438.32" cy="638.83" rx="0.69" ry="0.69"/>
					</g>
					<g class="st3">
						<rect x="1417.56" y="618" class="st0" width="41.52" height="41.67"/>
					</g>
					<g class="st3">
						<ellipse class="st0" cx="1438.32" cy="638.83" rx="20.76" ry="20.83"/>
					</g>
					<g class="st3">
						<ellipse class="st0" cx="1438.32" cy="638.83" rx="20.07" ry="20.14"/>
					</g>
					<g class="st3">
						<ellipse class="st0" cx="1438.32" cy="638.83" rx="19.38" ry="19.45"/>
					</g>
					<g class="st3">
						<ellipse class="st0" cx="1438.32" cy="638.83" rx="18.68" ry="18.75"/>
					</g>
					<g class="st3">
						<ellipse class="st0" cx="1438.32" cy="638.83" rx="17.99" ry="18.06"/>
					</g>
					<g class="st3">
						<ellipse class="st0" cx="1438.32" cy="638.83" rx="17.3" ry="17.36"/>
					</g>
					<g class="st3">
						<ellipse class="st0" cx="1438.32" cy="638.83" rx="16.61" ry="16.67"/>
					</g>
					<g class="st3">
						<ellipse class="st0" cx="1438.32" cy="638.83" rx="15.92" ry="15.97"/>
					</g>
					<g class="st3">
						<ellipse class="st0" cx="1438.32" cy="638.83" rx="15.22" ry="15.28"/>
					</g>
					<g class="st3">
						<ellipse class="st0" cx="1438.32" cy="638.83" rx="14.53" ry="14.58"/>
					</g>
					<g class="st3">
						<ellipse class="st0" cx="1438.32" cy="638.83" rx="13.84" ry="13.89"/>
					</g>
					<g class="st3">
						<ellipse class="st0" cx="1438.32" cy="638.83" rx="13.15" ry="13.2"/>
					</g>
					<g class="st3">
						<ellipse class="st0" cx="1438.32" cy="638.83" rx="12.46" ry="12.5"/>
					</g>
					<g class="st3">
						<ellipse class="st0" cx="1438.32" cy="638.83" rx="11.76" ry="11.81"/>
					</g>
					<g class="st3">
						<ellipse class="st0" cx="1438.32" cy="638.83" rx="11.07" ry="11.11"/>
					</g>
					<g class="st3">
						<ellipse class="st0" cx="1438.32" cy="638.83" rx="10.38" ry="10.42"/>
					</g>
					<g class="st3">
						<ellipse class="st0" cx="1438.32" cy="638.83" rx="9.69" ry="9.72"/>
					</g>
					<g class="st3">
						<ellipse class="st0" cx="1438.32" cy="638.83" rx="9" ry="9.03"/>
					</g>
					<g class="st3">
						<ellipse class="st0" cx="1438.32" cy="638.83" rx="8.3" ry="8.33"/>
					</g>
					<g class="st3">
						<ellipse class="st0" cx="1438.32" cy="638.83" rx="7.61" ry="7.64"/>
					</g>
					<g class="st3">
						<ellipse class="st0" cx="1438.32" cy="638.83" rx="6.92" ry="6.94"/>
					</g>
					<g class="st3">
						<ellipse class="st0" cx="1438.32" cy="638.83" rx="6.23" ry="6.25"/>
					</g>
					<g class="st3">
						<ellipse class="st0" cx="1438.32" cy="638.83" rx="5.54" ry="5.56"/>
					</g>
					<g class="st3">
						<ellipse class="st0" cx="1438.32" cy="638.83" rx="4.84" ry="4.86"/>
					</g>
					<g class="st3">
						<ellipse class="st0" cx="1438.32" cy="638.83" rx="4.15" ry="4.17"/>
					</g>
					<g class="st3">
						<ellipse class="st0" cx="1438.32" cy="638.83" rx="3.46" ry="3.47"/>
					</g>
					<g class="st3">
						<ellipse class="st0" cx="1438.32" cy="638.83" rx="2.77" ry="2.78"/>
					</g>
					<g class="st3">
						<ellipse class="st0" cx="1438.32" cy="638.83" rx="2.08" ry="2.08"/>
					</g>
					<g class="st3">
						<ellipse class="st0" cx="1438.32" cy="638.83" rx="1.38" ry="1.39"/>
					</g>
					<g class="st3">
						<ellipse class="st0" cx="1438.32" cy="638.83" rx="0.69" ry="0.69"/>
					</g>
				</g>
			</g>
		</g>
		<g>
			<g>
				<g>
					<defs>
						<path id="SVGID_5_" d="M1443.86,650.56l-6.31-9.17h-3.98v9.27h-3.79v-24.4l11.18,0.03c1.04,0,2.01,0.2,2.92,0.6
							c0.91,0.4,1.7,0.94,2.38,1.63c0.68,0.68,1.22,1.49,1.6,2.42c0.39,0.93,0.58,1.92,0.58,2.96c0,0.95-0.16,1.85-0.49,2.68
							c-0.32,0.84-0.78,1.58-1.36,2.24c-0.58,0.66-1.26,1.21-2.04,1.64c-0.78,0.43-1.62,0.72-2.53,0.85l6.38,9.24H1443.86z"/>
					</defs>
					<defs>
						<path id="SVGID_6_" d="M1440.98,637.65c0.52,0,1-0.1,1.44-0.29c0.44-0.2,0.83-0.47,1.16-0.81c0.33-0.35,0.6-0.74,0.79-1.19
							c0.19-0.44,0.29-0.93,0.29-1.45c0-0.52-0.1-1.01-0.29-1.48c-0.19-0.47-0.46-0.87-0.81-1.22c-0.34-0.35-0.74-0.62-1.18-0.83
							c-0.44-0.21-0.92-0.31-1.44-0.31h-7.37v7.55L1440.98,637.65z"/>
					</defs>
					<use xlink:href="#SVGID_5_"  style="overflow:visible;fill:#FF6229;"/>
					<use xlink:href="#SVGID_6_"  style="overflow:visible;fill:#FF6229;"/>
					<clipPath id="SVGID_7_">
						<use xlink:href="#SVGID_5_"  style="overflow:visible;"/>
					</clipPath>
					<clipPath id="SVGID_8_" class="st4">
						<use xlink:href="#SVGID_6_"  style="overflow:visible;"/>
					</clipPath>
					<g class="st5">
						<rect x="1433.58" y="630.07" class="st0" width="11.08" height="7.58"/>
					</g>
					<g class="st5">
						<ellipse class="st0" cx="1439.12" cy="638.46" rx="10.84" ry="10.88"/>
					</g>
					<g class="st5">
						<ellipse class="st0" cx="1439.12" cy="638.46" rx="10.47" ry="10.51"/>
					</g>
					<g class="st5">
						<ellipse class="st0" cx="1439.12" cy="638.46" rx="10.11" ry="10.15"/>
					</g>
					<g class="st5">
						<ellipse class="st0" cx="1439.12" cy="638.46" rx="9.75" ry="9.79"/>
					</g>
					<g class="st5">
						<ellipse class="st0" cx="1439.12" cy="638.46" rx="9.39" ry="9.43"/>
					</g>
					<g class="st5">
						<ellipse class="st0" cx="1439.12" cy="638.46" rx="9.03" ry="9.06"/>
					</g>
					<g class="st5">
						<ellipse class="st0" cx="1439.12" cy="638.46" rx="8.67" ry="8.7"/>
					</g>
					<g class="st5">
						<ellipse class="st0" cx="1439.12" cy="638.46" rx="8.31" ry="8.34"/>
					</g>
					<g class="st5">
						<ellipse class="st0" cx="1439.12" cy="638.46" rx="7.95" ry="7.98"/>
					</g>
					<g class="st5">
						<ellipse class="st0" cx="1439.12" cy="638.46" rx="7.59" ry="7.61"/>
					</g>
					<g class="st5">
						<ellipse class="st0" cx="1439.12" cy="638.46" rx="7.22" ry="7.25"/>
					</g>
					<g class="st5">
						<ellipse class="st0" cx="1439.12" cy="638.46" rx="6.86" ry="6.89"/>
					</g>
					<g class="st5">
						<ellipse class="st0" cx="1439.12" cy="638.46" rx="6.5" ry="6.53"/>
					</g>
					<g class="st5">
						<ellipse class="st0" cx="1439.12" cy="638.46" rx="6.14" ry="6.16"/>
					</g>
					<g class="st5">
						<ellipse class="st0" cx="1439.12" cy="638.46" rx="5.78" ry="5.8"/>
					</g>
					<g class="st5">
						<ellipse class="st0" cx="1439.12" cy="638.46" rx="5.42" ry="5.44"/>
					</g>
					<g class="st5">
						<ellipse class="st0" cx="1439.12" cy="638.46" rx="5.06" ry="5.08"/>
					</g>
					<g class="st5">
						<ellipse class="st0" cx="1439.12" cy="638.46" rx="4.7" ry="4.71"/>
					</g>
					<g class="st5">
						<ellipse class="st0" cx="1439.12" cy="638.46" rx="4.33" ry="4.35"/>
					</g>
					<g class="st5">
						<ellipse class="st0" cx="1439.12" cy="638.46" rx="3.97" ry="3.99"/>
					</g>
					<g class="st5">
						<ellipse class="st0" cx="1439.12" cy="638.46" rx="3.61" ry="3.63"/>
					</g>
					<g class="st5">
						<ellipse class="st0" cx="1439.12" cy="638.46" rx="3.25" ry="3.26"/>
					</g>
					<g class="st5">
						<ellipse class="st0" cx="1439.12" cy="638.46" rx="2.89" ry="2.9"/>
					</g>
					<g class="st5">
						<ellipse class="st0" cx="1439.12" cy="638.46" rx="2.53" ry="2.54"/>
					</g>
					<g class="st5">
						<ellipse class="st0" cx="1439.12" cy="638.46" rx="2.17" ry="2.18"/>
					</g>
					<g class="st5">
						<ellipse class="st0" cx="1439.12" cy="638.46" rx="1.81" ry="1.81"/>
					</g>
					<g class="st5">
						<ellipse class="st0" cx="1439.12" cy="638.46" rx="1.44" ry="1.45"/>
					</g>
					<g class="st5">
						<ellipse class="st0" cx="1439.12" cy="638.46" rx="1.08" ry="1.09"/>
					</g>
					<g class="st5">
						<ellipse class="st0" cx="1439.12" cy="638.46" rx="0.72" ry="0.73"/>
					</g>
					<g class="st5">
						<circle class="st0" cx="1439.12" cy="638.46" r="0.36"/>
					</g>
					<g class="st5">
						<rect x="1429.78" y="626.26" class="st0" width="18.67" height="24.39"/>
					</g>
					<g class="st5">
						<ellipse class="st0" cx="1439.12" cy="638.46" rx="10.84" ry="10.88"/>
					</g>
					<g class="st5">
						<ellipse class="st0" cx="1439.12" cy="638.46" rx="10.47" ry="10.51"/>
					</g>
					<g class="st5">
						<ellipse class="st0" cx="1439.12" cy="638.46" rx="10.11" ry="10.15"/>
					</g>
					<g class="st5">
						<ellipse class="st0" cx="1439.12" cy="638.46" rx="9.75" ry="9.79"/>
					</g>
					<g class="st5">
						<ellipse class="st0" cx="1439.12" cy="638.46" rx="9.39" ry="9.43"/>
					</g>
					<g class="st5">
						<ellipse class="st0" cx="1439.12" cy="638.46" rx="9.03" ry="9.06"/>
					</g>
					<g class="st5">
						<ellipse class="st0" cx="1439.12" cy="638.46" rx="8.67" ry="8.7"/>
					</g>
					<g class="st5">
						<ellipse class="st0" cx="1439.12" cy="638.46" rx="8.31" ry="8.34"/>
					</g>
					<g class="st5">
						<ellipse class="st0" cx="1439.12" cy="638.46" rx="7.95" ry="7.98"/>
					</g>
					<g class="st5">
						<ellipse class="st0" cx="1439.12" cy="638.46" rx="7.59" ry="7.61"/>
					</g>
					<g class="st5">
						<ellipse class="st0" cx="1439.12" cy="638.46" rx="7.22" ry="7.25"/>
					</g>
					<g class="st5">
						<ellipse class="st0" cx="1439.12" cy="638.46" rx="6.86" ry="6.89"/>
					</g>
					<g class="st5">
						<ellipse class="st0" cx="1439.12" cy="638.46" rx="6.5" ry="6.53"/>
					</g>
					<g class="st5">
						<ellipse class="st0" cx="1439.12" cy="638.46" rx="6.14" ry="6.16"/>
					</g>
					<g class="st5">
						<ellipse class="st0" cx="1439.12" cy="638.46" rx="5.78" ry="5.8"/>
					</g>
					<g class="st5">
						<ellipse class="st0" cx="1439.12" cy="638.46" rx="5.42" ry="5.44"/>
					</g>
					<g class="st5">
						<ellipse class="st0" cx="1439.12" cy="638.46" rx="5.06" ry="5.08"/>
					</g>
					<g class="st5">
						<ellipse class="st0" cx="1439.12" cy="638.46" rx="4.7" ry="4.71"/>
					</g>
					<g class="st5">
						<ellipse class="st0" cx="1439.12" cy="638.46" rx="4.33" ry="4.35"/>
					</g>
					<g class="st5">
						<ellipse class="st0" cx="1439.12" cy="638.46" rx="3.97" ry="3.99"/>
					</g>
					<g class="st5">
						<ellipse class="st0" cx="1439.12" cy="638.46" rx="3.61" ry="3.63"/>
					</g>
					<g class="st5">
						<ellipse class="st0" cx="1439.12" cy="638.46" rx="3.25" ry="3.26"/>
					</g>
					<g class="st5">
						<ellipse class="st0" cx="1439.12" cy="638.46" rx="2.89" ry="2.9"/>
					</g>
					<g class="st5">
						<ellipse class="st0" cx="1439.12" cy="638.46" rx="2.53" ry="2.54"/>
					</g>
					<g class="st5">
						<ellipse class="st0" cx="1439.12" cy="638.46" rx="2.17" ry="2.18"/>
					</g>
					<g class="st5">
						<ellipse class="st0" cx="1439.12" cy="638.46" rx="1.81" ry="1.81"/>
					</g>
					<g class="st5">
						<ellipse class="st0" cx="1439.12" cy="638.46" rx="1.44" ry="1.45"/>
					</g>
					<g class="st5">
						<ellipse class="st0" cx="1439.12" cy="638.46" rx="1.08" ry="1.09"/>
					</g>
					<g class="st5">
						<ellipse class="st0" cx="1439.12" cy="638.46" rx="0.72" ry="0.73"/>
					</g>
					<g class="st5">
						<circle class="st0" cx="1439.12" cy="638.46" r="0.36"/>
					</g>
				</g>
			</g>
		</g>
	</g>
</g>
</svg>
