<?xml version="1.0" encoding="utf-8"?>
<!-- Generator: Adobe Illustrator 23.0.1, SVG Export Plug-In . SVG Version: 6.00 Build 0)  -->
<svg version="1.1" id="Layer_1" xmlns="http://www.w3.org/2000/svg" xmlns:xlink="http://www.w3.org/1999/xlink" x="0px" y="0px"
	 viewBox="0 0 1920 1080" style="enable-background:new 0 0 1920 1080;" xml:space="preserve">
<style type="text/css">
	.st0{fill:#FF6229;}
</style>
<g>
	<g>
		<g>
			<path class="st0" d="M783.55,796.55l-184.39,43.58c-11.66,2.76-21.93-8.15-18.48-19.62l66.96-222.89
				c3.81-12.67,20.68-15.11,27.92-4.05l117.43,179.32C798.9,781.91,794.05,794.07,783.55,796.55z"/>
		</g>
		<g>
			<path class="st0" d="M1047.92,802.69l185.6,38.08c11.74,2.41,21.68-8.79,17.89-20.16l-73.54-220.81
				c-4.18-12.55-21.12-14.49-28.03-3.22l-112.06,182.72C1032.14,788.52,1037.35,800.53,1047.92,802.69z"/>
		</g>
		<g>
			<path class="st0" d="M1398.5,99.55L930.43,886.87c-7.29,12.27-25.07,12.23-32.3-0.07L672.16,502.78v-0.05l37.04-141.92
				c3.66-14.03,21.17-18.78,31.43-8.53l162.16,162.16c7.32,7.32,19.17,7.33,26.51,0.03l439.83-437.81
				C1384.76,61.1,1409.77,80.59,1398.5,99.55z"/>
		</g>
	</g>
	<g>
		<g>
			<g>
				<path class="st0" d="M1286.47,854.12c-12.98,0-23.54-10.56-23.54-23.54c0-12.98,10.56-23.54,23.54-23.54
					c12.98,0,23.54,10.56,23.54,23.54C1310.01,843.56,1299.45,854.12,1286.47,854.12z M1286.47,810.6
					c-11.02,0-19.98,8.96-19.98,19.98s8.96,19.98,19.98,19.98h0c11.02,0,19.98-8.96,19.98-19.98S1297.49,810.6,1286.47,810.6z"/>
			</g>
		</g>
		<g>
			<g>
				<path class="st0" d="M1292.75,843.83l-7.15-10.36h-4.51v10.47h-4.3v-27.56l12.68,0.04c1.18,0,2.28,0.23,3.31,0.68
					c1.03,0.45,1.93,1.07,2.7,1.84c0.77,0.77,1.38,1.68,1.82,2.74c0.44,1.05,0.66,2.17,0.66,3.34c0,1.08-0.18,2.09-0.55,3.03
					c-0.37,0.94-0.88,1.79-1.54,2.54c-0.66,0.75-1.43,1.37-2.32,1.86c-0.88,0.49-1.84,0.81-2.87,0.96l7.24,10.44H1292.75z
					 M1289.48,829.24c0.59,0,1.13-0.11,1.63-0.33c0.5-0.22,0.94-0.53,1.32-0.92c0.38-0.39,0.68-0.84,0.9-1.34
					c0.22-0.5,0.33-1.05,0.33-1.64s-0.11-1.15-0.33-1.67c-0.22-0.53-0.53-0.99-0.92-1.38c-0.39-0.39-0.84-0.7-1.34-0.94
					c-0.5-0.23-1.04-0.35-1.63-0.35h-8.35v8.53L1289.48,829.24z"/>
			</g>
		</g>
	</g>
</g>
</svg>
