<?xml version="1.0" encoding="utf-8"?>
<!-- Generator: Adobe Illustrator 23.0.1, SVG Export Plug-In . SVG Version: 6.00 Build 0)  -->
<svg version="1.1" id="Layer_1" xmlns="http://www.w3.org/2000/svg" xmlns:xlink="http://www.w3.org/1999/xlink" x="0px" y="0px"
	 viewBox="0 0 1920 1080" style="enable-background:new 0 0 1920 1080;" xml:space="preserve">
<style type="text/css">
	.st0{fill:#FF6229;}
	.st1{fill:#FFFFFF;}
	.st2{clip-path:url(#SVGID_3_);}
	.st3{clip-path:url(#SVGID_4_);}
	.st4{clip-path:url(#SVGID_7_);}
	.st5{clip-path:url(#SVGID_8_);}
</style>
<g>
	<g>
		<g>
			<path class="st0" d="M397.15,619.18L314,638.83c-5.26,1.24-9.89-3.67-8.33-8.85l30.19-100.51c1.72-5.71,9.32-6.82,12.59-1.83
				l52.95,80.86C404.07,612.58,401.88,618.06,397.15,619.18z"/>
		</g>
		<g>
			<path class="st0" d="M516.36,621.95l83.69,17.17c5.29,1.09,9.78-3.97,8.07-9.09l-33.16-99.57c-1.88-5.66-9.52-6.54-12.64-1.45
				l-50.53,82.4C509.25,615.56,511.6,620.97,516.36,621.95z"/>
		</g>
		<g>
			<path class="st0" d="M674.45,304.87L463.38,659.91c-3.29,5.53-11.3,5.51-14.57-0.03l-101.9-173.17v-0.02l16.7-64
				c1.65-6.33,9.55-8.47,14.17-3.85l73.12,73.12c3.3,3.3,8.65,3.31,11.95,0.01l198.34-197.43
				C668.26,287.53,679.53,296.32,674.45,304.87z"/>
		</g>
	</g>
	<g>
		<g>
			<g>
				<path class="st0" d="M623.94,645.14c-5.85,0-10.62-4.76-10.62-10.62c0-5.85,4.76-10.62,10.62-10.62s10.62,4.76,10.62,10.62
					C634.55,640.38,629.79,645.14,623.94,645.14z M623.94,625.52c-4.97,0-9.01,4.04-9.01,9.01s4.04,9.01,9.01,9.01h0
					c4.97,0,9.01-4.04,9.01-9.01S628.9,625.52,623.94,625.52z"/>
			</g>
		</g>
		<g>
			<g>
				<path class="st0" d="M626.77,640.5l-3.22-4.67h-2.03v4.72h-1.94v-12.43l5.72,0.02c0.53,0,1.03,0.1,1.49,0.31
					c0.46,0.2,0.87,0.48,1.22,0.83c0.35,0.35,0.62,0.76,0.82,1.23c0.2,0.48,0.3,0.98,0.3,1.51c0,0.49-0.08,0.94-0.25,1.37
					c-0.17,0.43-0.4,0.81-0.7,1.14c-0.3,0.34-0.65,0.62-1.04,0.84c-0.4,0.22-0.83,0.36-1.29,0.43l3.26,4.71H626.77z M625.29,633.92
					c0.26,0,0.51-0.05,0.74-0.15c0.23-0.1,0.42-0.24,0.59-0.41c0.17-0.18,0.31-0.38,0.4-0.6c0.1-0.23,0.15-0.47,0.15-0.74
					s-0.05-0.52-0.15-0.75c-0.1-0.24-0.24-0.44-0.41-0.62c-0.18-0.18-0.38-0.32-0.6-0.42c-0.23-0.1-0.47-0.16-0.74-0.16h-3.77v3.84
					L625.29,633.92z"/>
			</g>
		</g>
	</g>
</g>
<g>
	<g>
		<path class="st1" d="M788.47,476.84v115.06h-17.96v-80.71l-42.36,42.2l-42.2-42.2v80.71H668V476.84h9.05l51.11,51.14l51.26-51.14
			H788.47z"/>
		<path class="st1" d="M820.7,592.2h-19.64l49.57-115.06h9.82l49.57,115.06h-19.64l-10.74-24.8h-48.19L820.7,592.2z M855.54,511.18
			l-16.42,38.2h32.84L855.54,511.18z"/>
		<path class="st1" d="M987.11,591.89l-29.86-43.43h-18.84v43.9h-17.96V476.84l52.95,0.15c4.91,0,9.52,0.95,13.81,2.85
			c4.3,1.9,8.06,4.47,11.28,7.7c3.22,3.23,5.76,7.06,7.6,11.48c1.84,4.41,2.76,9.09,2.76,14.01c0,4.52-0.77,8.76-2.3,12.71
			c-1.54,3.95-3.68,7.5-6.45,10.63c-2.76,3.13-5.98,5.73-9.67,7.78c-3.68,2.06-7.67,3.39-11.97,4.01l30.23,43.74H987.11z
			 M973.46,530.75c2.45,0,4.72-0.46,6.81-1.39c2.09-0.92,3.93-2.21,5.51-3.85c1.58-1.64,2.83-3.52,3.75-5.62
			c0.92-2.1,1.38-4.39,1.38-6.85c0-2.46-0.46-4.8-1.38-7.01c-0.92-2.21-2.19-4.13-3.82-5.78c-1.63-1.64-3.49-2.95-5.58-3.93
			c-2.09-0.98-4.36-1.46-6.81-1.46h-34.89v35.73L973.46,530.75z"/>
		<path class="st1" d="M1066.26,528.59l47.58,63.46h-22.41l-37.6-50.06l-11.2,12.01v38.2h-17.96V477.61h17.96v50.06l0.31-0.31v-0.15
			l0.61-0.46l46.5-49.9h24.56L1066.26,528.59z"/>
		<g>
			<path class="st0" d="M1166.93,476.84c7.88,0,15.29,1.52,22.25,4.54c6.96,3.03,13.04,7.16,18.26,12.4
				c5.22,5.24,9.34,11.35,12.35,18.33c3.02,6.99,4.53,14.43,4.53,22.33c0,8.01-1.51,15.51-4.53,22.49
				c-3.02,6.99-7.14,13.07-12.35,18.25c-5.22,5.19-11.31,9.29-18.26,12.32c-6.96,3.03-14.38,4.54-22.25,4.54
				c-7.98,0-15.45-1.51-22.41-4.54c-6.96-3.03-13.02-7.14-18.19-12.32c-5.17-5.19-9.26-11.27-12.28-18.25
				c-3.02-6.98-4.53-14.48-4.53-22.49c0-7.91,1.51-15.35,4.53-22.33c3.02-6.98,7.11-13.09,12.28-18.33
				c5.16-5.24,11.23-9.37,18.19-12.4C1151.48,478.35,1158.95,476.84,1166.93,476.84z M1166.93,575.11c5.52,0,10.74-1.05,15.65-3.16
				c4.91-2.1,9.21-5,12.89-8.7c3.68-3.7,6.57-8.01,8.67-12.94c2.1-4.93,3.15-10.22,3.15-15.87c0-5.54-1.05-10.78-3.15-15.71
				c-2.1-4.93-4.99-9.24-8.67-12.94c-3.68-3.7-7.98-6.6-12.89-8.7c-4.91-2.1-10.13-3.16-15.65-3.16c-5.63,0-10.9,1.05-15.81,3.16
				c-4.91,2.11-9.21,5.01-12.89,8.7c-3.68,3.7-6.58,8.01-8.67,12.94c-2.1,4.93-3.15,10.16-3.15,15.71c0,5.65,1.05,10.94,3.15,15.87
				c2.1,4.93,4.99,9.24,8.67,12.94c3.68,3.7,7.98,6.6,12.89,8.7C1156.04,574.05,1161.31,575.11,1166.93,575.11z"/>
		</g>
		<g>
			<path class="st0" d="M1307.1,591.89l-29.86-43.43h-18.84v43.9h-17.96V476.84l52.95,0.15c4.91,0,9.51,0.95,13.81,2.85
				c4.3,1.9,8.06,4.47,11.28,7.7c3.22,3.23,5.75,7.06,7.6,11.48c1.84,4.41,2.76,9.09,2.76,14.01c0,4.52-0.77,8.76-2.3,12.71
				c-1.54,3.95-3.68,7.5-6.45,10.63c-2.76,3.13-5.99,5.73-9.67,7.78c-3.68,2.06-7.67,3.39-11.97,4.01l30.23,43.74H1307.1z
				 M1293.44,530.75c2.45,0,4.72-0.46,6.81-1.39c2.09-0.92,3.92-2.21,5.51-3.85c1.58-1.64,2.83-3.52,3.75-5.62
				c0.92-2.1,1.38-4.39,1.38-6.85c0-2.46-0.46-4.8-1.38-7.01c-0.92-2.21-2.19-4.13-3.82-5.78c-1.63-1.64-3.49-2.95-5.59-3.93
				c-2.09-0.98-4.36-1.46-6.81-1.46h-34.89v35.73L1293.44,530.75z"/>
		</g>
		<g>
			<path class="st0" d="M1409.46,591.89l-29.86-43.43h-18.84v43.9h-17.96V476.84l52.95,0.15c4.91,0,9.51,0.95,13.81,2.85
				c4.3,1.9,8.06,4.47,11.28,7.7c3.22,3.23,5.75,7.06,7.6,11.48s2.76,9.09,2.76,14.01c0,4.52-0.77,8.76-2.3,12.71
				c-1.54,3.95-3.68,7.5-6.45,10.63c-2.76,3.13-5.99,5.73-9.67,7.78c-3.68,2.06-7.67,3.39-11.97,4.01l30.23,43.74H1409.46z
				 M1395.81,530.75c2.45,0,4.72-0.46,6.81-1.39c2.09-0.92,3.92-2.21,5.51-3.85c1.58-1.64,2.83-3.52,3.75-5.62
				c0.92-2.1,1.38-4.39,1.38-6.85c0-2.46-0.46-4.8-1.38-7.01c-0.92-2.21-2.19-4.13-3.82-5.78c-1.63-1.64-3.49-2.95-5.59-3.93
				c-2.09-0.98-4.36-1.46-6.81-1.46h-34.89v35.73L1395.81,530.75z"/>
		</g>
		<g>
			<path class="st0" d="M1521.3,592.05h-74.28V477.3h74.28v17.71h-56.63v25.88h49.26v17.71h-49.26v35.73h56.63V592.05z"/>
		</g>
		<g>
			<path class="st0" d="M1591.28,592.2c-7.88,0-15.3-1.51-22.25-4.54c-6.96-3.03-13.05-7.14-18.26-12.32
				c-5.22-5.18-9.34-11.27-12.35-18.25c-3.02-6.98-4.53-14.48-4.53-22.49c0-7.91,1.51-15.35,4.53-22.33
				c3.02-6.98,7.14-13.09,12.35-18.33c5.22-5.24,11.3-9.37,18.26-12.4c6.96-3.03,14.37-4.54,22.25-4.54
				c5.73,0,11.28,0.83,16.65,2.49c5.37,1.66,10.41,4.09,15.12,7.3l-9.67,14.7c-6.65-4.52-14.02-6.78-22.1-6.78
				c-5.53,0-10.69,1.05-15.5,3.14c-4.81,2.1-9.03,4.96-12.66,8.59c-3.63,3.63-6.5,7.85-8.6,12.66c-2.1,4.81-3.15,9.97-3.15,15.5
				c0,5.53,1.05,10.72,3.15,15.57c2.1,4.86,4.96,9.08,8.6,12.66c3.63,3.58,7.85,6.42,12.66,8.51c4.81,2.1,9.98,3.14,15.5,3.14
				c7.98,0,15.35-2.21,22.1-6.62l9.67,14.7c-4.71,3.21-9.75,5.62-15.12,7.23C1602.56,591.4,1597,592.2,1591.28,592.2z"/>
		</g>
		<g>
			<path class="st0" d="M1636.4,476.84h89.17v18.02h-35.61v97.19H1672v-97.19h-35.61V476.84z"/>
		</g>
	</g>
	<g>
		<g>
			<g>
				<g>
					<defs>
						<ellipse id="SVGID_1_" cx="1768.94" cy="471.77" rx="27.06" ry="27.16"/>
					</defs>
					<defs>
						<path id="SVGID_2_" d="M1768.94,448.72c-12.66,0-22.96,10.34-22.96,23.04c0,12.71,10.3,23.04,22.96,23.04h0
							c12.66,0,22.96-10.34,22.96-23.04C1791.9,459.06,1781.6,448.72,1768.94,448.72z"/>
					</defs>
					<use xlink:href="#SVGID_1_"  style="overflow:visible;fill:#FF6229;"/>
					<use xlink:href="#SVGID_2_"  style="overflow:visible;fill:#FF6229;"/>
					<clipPath id="SVGID_3_">
						<use xlink:href="#SVGID_1_"  style="overflow:visible;"/>
					</clipPath>
					<clipPath id="SVGID_4_" class="st2">
						<use xlink:href="#SVGID_2_"  style="overflow:visible;"/>
					</clipPath>
					<g class="st3">
						<rect x="1745.98" y="448.72" class="st0" width="45.92" height="46.09"/>
					</g>
					<g class="st3">
						<ellipse class="st0" cx="1768.94" cy="471.77" rx="27.06" ry="27.16"/>
					</g>
					<g class="st3">
						<ellipse class="st0" cx="1768.94" cy="471.77" rx="26.16" ry="26.25"/>
					</g>
					<g class="st3">
						<ellipse class="st0" cx="1768.94" cy="471.77" rx="25.25" ry="25.34"/>
					</g>
					<g class="st3">
						<ellipse class="st0" cx="1768.94" cy="471.77" rx="24.35" ry="24.44"/>
					</g>
					<g class="st3">
						<ellipse class="st0" cx="1768.94" cy="471.77" rx="23.45" ry="23.53"/>
					</g>
					<g class="st3">
						<ellipse class="st0" cx="1768.94" cy="471.77" rx="22.55" ry="22.63"/>
					</g>
					<g class="st3">
						<ellipse class="st0" cx="1768.94" cy="471.77" rx="21.65" ry="21.72"/>
					</g>
					<g class="st3">
						<ellipse class="st0" cx="1768.94" cy="471.77" rx="20.74" ry="20.82"/>
					</g>
					<g class="st3">
						<ellipse class="st0" cx="1768.94" cy="471.77" rx="19.84" ry="19.91"/>
					</g>
					<g class="st3">
						<ellipse class="st0" cx="1768.94" cy="471.77" rx="18.94" ry="19.01"/>
					</g>
					<g class="st3">
						<ellipse class="st0" cx="1768.94" cy="471.77" rx="18.04" ry="18.1"/>
					</g>
					<g class="st3">
						<ellipse class="st0" cx="1768.94" cy="471.77" rx="17.14" ry="17.2"/>
					</g>
					<g class="st3">
						<ellipse class="st0" cx="1768.94" cy="471.77" rx="16.23" ry="16.29"/>
					</g>
					<g class="st3">
						<ellipse class="st0" cx="1768.94" cy="471.77" rx="15.33" ry="15.39"/>
					</g>
					<g class="st3">
						<ellipse class="st0" cx="1768.94" cy="471.77" rx="14.43" ry="14.48"/>
					</g>
					<g class="st3">
						<ellipse class="st0" cx="1768.94" cy="471.77" rx="13.53" ry="13.58"/>
					</g>
					<g class="st3">
						<ellipse class="st0" cx="1768.94" cy="471.77" rx="12.63" ry="12.67"/>
					</g>
					<g class="st3">
						<ellipse class="st0" cx="1768.94" cy="471.77" rx="11.73" ry="11.77"/>
					</g>
					<g class="st3">
						<ellipse class="st0" cx="1768.94" cy="471.77" rx="10.82" ry="10.86"/>
					</g>
					<g class="st3">
						<ellipse class="st0" cx="1768.94" cy="471.77" rx="9.92" ry="9.96"/>
					</g>
					<g class="st3">
						<ellipse class="st0" cx="1768.94" cy="471.77" rx="9.02" ry="9.05"/>
					</g>
					<g class="st3">
						<ellipse class="st0" cx="1768.94" cy="471.77" rx="8.12" ry="8.15"/>
					</g>
					<g class="st3">
						<ellipse class="st0" cx="1768.94" cy="471.77" rx="7.22" ry="7.24"/>
					</g>
					<g class="st3">
						<ellipse class="st0" cx="1768.94" cy="471.77" rx="6.31" ry="6.34"/>
					</g>
					<g class="st3">
						<ellipse class="st0" cx="1768.94" cy="471.77" rx="5.41" ry="5.43"/>
					</g>
					<g class="st3">
						<ellipse class="st0" cx="1768.94" cy="471.77" rx="4.51" ry="4.53"/>
					</g>
					<g class="st3">
						<ellipse class="st0" cx="1768.94" cy="471.77" rx="3.61" ry="3.62"/>
					</g>
					<g class="st3">
						<ellipse class="st0" cx="1768.94" cy="471.77" rx="2.71" ry="2.72"/>
					</g>
					<g class="st3">
						<ellipse class="st0" cx="1768.94" cy="471.77" rx="1.8" ry="1.81"/>
					</g>
					<g class="st3">
						<ellipse class="st0" cx="1768.94" cy="471.77" rx="0.9" ry="0.91"/>
					</g>
					<g class="st3">
						<rect x="1741.88" y="444.61" class="st0" width="54.12" height="54.31"/>
					</g>
					<g class="st3">
						<ellipse class="st0" cx="1768.94" cy="471.77" rx="27.06" ry="27.16"/>
					</g>
					<g class="st3">
						<ellipse class="st0" cx="1768.94" cy="471.77" rx="26.16" ry="26.25"/>
					</g>
					<g class="st3">
						<ellipse class="st0" cx="1768.94" cy="471.77" rx="25.25" ry="25.34"/>
					</g>
					<g class="st3">
						<ellipse class="st0" cx="1768.94" cy="471.77" rx="24.35" ry="24.44"/>
					</g>
					<g class="st3">
						<ellipse class="st0" cx="1768.94" cy="471.77" rx="23.45" ry="23.53"/>
					</g>
					<g class="st3">
						<ellipse class="st0" cx="1768.94" cy="471.77" rx="22.55" ry="22.63"/>
					</g>
					<g class="st3">
						<ellipse class="st0" cx="1768.94" cy="471.77" rx="21.65" ry="21.72"/>
					</g>
					<g class="st3">
						<ellipse class="st0" cx="1768.94" cy="471.77" rx="20.74" ry="20.82"/>
					</g>
					<g class="st3">
						<ellipse class="st0" cx="1768.94" cy="471.77" rx="19.84" ry="19.91"/>
					</g>
					<g class="st3">
						<ellipse class="st0" cx="1768.94" cy="471.77" rx="18.94" ry="19.01"/>
					</g>
					<g class="st3">
						<ellipse class="st0" cx="1768.94" cy="471.77" rx="18.04" ry="18.1"/>
					</g>
					<g class="st3">
						<ellipse class="st0" cx="1768.94" cy="471.77" rx="17.14" ry="17.2"/>
					</g>
					<g class="st3">
						<ellipse class="st0" cx="1768.94" cy="471.77" rx="16.23" ry="16.29"/>
					</g>
					<g class="st3">
						<ellipse class="st0" cx="1768.94" cy="471.77" rx="15.33" ry="15.39"/>
					</g>
					<g class="st3">
						<ellipse class="st0" cx="1768.94" cy="471.77" rx="14.43" ry="14.48"/>
					</g>
					<g class="st3">
						<ellipse class="st0" cx="1768.94" cy="471.77" rx="13.53" ry="13.58"/>
					</g>
					<g class="st3">
						<ellipse class="st0" cx="1768.94" cy="471.77" rx="12.63" ry="12.67"/>
					</g>
					<g class="st3">
						<ellipse class="st0" cx="1768.94" cy="471.77" rx="11.73" ry="11.77"/>
					</g>
					<g class="st3">
						<ellipse class="st0" cx="1768.94" cy="471.77" rx="10.82" ry="10.86"/>
					</g>
					<g class="st3">
						<ellipse class="st0" cx="1768.94" cy="471.77" rx="9.92" ry="9.96"/>
					</g>
					<g class="st3">
						<ellipse class="st0" cx="1768.94" cy="471.77" rx="9.02" ry="9.05"/>
					</g>
					<g class="st3">
						<ellipse class="st0" cx="1768.94" cy="471.77" rx="8.12" ry="8.15"/>
					</g>
					<g class="st3">
						<ellipse class="st0" cx="1768.94" cy="471.77" rx="7.22" ry="7.24"/>
					</g>
					<g class="st3">
						<ellipse class="st0" cx="1768.94" cy="471.77" rx="6.31" ry="6.34"/>
					</g>
					<g class="st3">
						<ellipse class="st0" cx="1768.94" cy="471.77" rx="5.41" ry="5.43"/>
					</g>
					<g class="st3">
						<ellipse class="st0" cx="1768.94" cy="471.77" rx="4.51" ry="4.53"/>
					</g>
					<g class="st3">
						<ellipse class="st0" cx="1768.94" cy="471.77" rx="3.61" ry="3.62"/>
					</g>
					<g class="st3">
						<ellipse class="st0" cx="1768.94" cy="471.77" rx="2.71" ry="2.72"/>
					</g>
					<g class="st3">
						<ellipse class="st0" cx="1768.94" cy="471.77" rx="1.8" ry="1.81"/>
					</g>
					<g class="st3">
						<ellipse class="st0" cx="1768.94" cy="471.77" rx="0.9" ry="0.91"/>
					</g>
				</g>
			</g>
		</g>
		<g>
			<g>
				<g>
					<defs>
						<path id="SVGID_5_" d="M1776.16,487.05l-8.22-11.96h-5.18v12.08h-4.94v-31.8l14.57,0.04c1.35,0,2.62,0.26,3.8,0.78
							c1.18,0.52,2.22,1.23,3.1,2.12c0.89,0.89,1.58,1.94,2.09,3.16c0.51,1.22,0.76,2.5,0.76,3.86c0,1.24-0.21,2.41-0.63,3.5
							c-0.42,1.09-1.01,2.06-1.77,2.93c-0.76,0.86-1.65,1.58-2.66,2.14c-1.01,0.57-2.11,0.93-3.29,1.1l8.32,12.04H1776.16z"/>
					</defs>
					<defs>
						<path id="SVGID_6_" d="M1772.4,470.22c0.67,0,1.3-0.13,1.87-0.38c0.58-0.25,1.08-0.61,1.52-1.06
							c0.44-0.45,0.78-0.97,1.03-1.55c0.25-0.58,0.38-1.21,0.38-1.89c0-0.68-0.13-1.32-0.38-1.93c-0.25-0.61-0.6-1.14-1.05-1.59
							c-0.45-0.45-0.96-0.81-1.54-1.08c-0.58-0.27-1.2-0.4-1.87-0.4h-9.6v9.84L1772.4,470.22z"/>
					</defs>
					<use xlink:href="#SVGID_5_"  style="overflow:visible;fill:#FF6229;"/>
					<use xlink:href="#SVGID_6_"  style="overflow:visible;fill:#FF6229;"/>
					<clipPath id="SVGID_7_">
						<use xlink:href="#SVGID_5_"  style="overflow:visible;"/>
					</clipPath>
					<clipPath id="SVGID_8_" class="st4">
						<use xlink:href="#SVGID_6_"  style="overflow:visible;"/>
					</clipPath>
					<g class="st5">
						<rect x="1762.75" y="460.34" class="st0" width="14.45" height="9.88"/>
					</g>
					<g class="st5">
						<ellipse class="st0" cx="1769.98" cy="471.28" rx="14.12" ry="14.17"/>
					</g>
					<g class="st5">
						<ellipse class="st0" cx="1769.98" cy="471.28" rx="13.65" ry="13.7"/>
					</g>
					<g class="st5">
						<ellipse class="st0" cx="1769.98" cy="471.28" rx="13.18" ry="13.23"/>
					</g>
					<g class="st5">
						<ellipse class="st0" cx="1769.98" cy="471.28" rx="12.71" ry="12.76"/>
					</g>
					<g class="st5">
						<ellipse class="st0" cx="1769.98" cy="471.28" rx="12.24" ry="12.28"/>
					</g>
					<g class="st5">
						<ellipse class="st0" cx="1769.98" cy="471.28" rx="11.77" ry="11.81"/>
					</g>
					<g class="st5">
						<ellipse class="st0" cx="1769.98" cy="471.28" rx="11.3" ry="11.34"/>
					</g>
					<g class="st5">
						<ellipse class="st0" cx="1769.98" cy="471.28" rx="10.83" ry="10.87"/>
					</g>
					<g class="st5">
						<ellipse class="st0" cx="1769.98" cy="471.28" rx="10.36" ry="10.39"/>
					</g>
					<g class="st5">
						<ellipse class="st0" cx="1769.98" cy="471.28" rx="9.89" ry="9.92"/>
					</g>
					<g class="st5">
						<ellipse class="st0" cx="1769.98" cy="471.28" rx="9.42" ry="9.45"/>
					</g>
					<g class="st5">
						<ellipse class="st0" cx="1769.98" cy="471.28" rx="8.94" ry="8.98"/>
					</g>
					<g class="st5">
						<ellipse class="st0" cx="1769.98" cy="471.28" rx="8.47" ry="8.5"/>
					</g>
					<g class="st5">
						<ellipse class="st0" cx="1769.98" cy="471.28" rx="8" ry="8.03"/>
					</g>
					<g class="st5">
						<ellipse class="st0" cx="1769.98" cy="471.28" rx="7.53" ry="7.56"/>
					</g>
					<g class="st5">
						<ellipse class="st0" cx="1769.98" cy="471.28" rx="7.06" ry="7.09"/>
					</g>
					<g class="st5">
						<ellipse class="st0" cx="1769.98" cy="471.28" rx="6.59" ry="6.61"/>
					</g>
					<g class="st5">
						<ellipse class="st0" cx="1769.98" cy="471.28" rx="6.12" ry="6.14"/>
					</g>
					<g class="st5">
						<ellipse class="st0" cx="1769.98" cy="471.28" rx="5.65" ry="5.67"/>
					</g>
					<g class="st5">
						<ellipse class="st0" cx="1769.98" cy="471.28" rx="5.18" ry="5.2"/>
					</g>
					<g class="st5">
						<ellipse class="st0" cx="1769.98" cy="471.28" rx="4.71" ry="4.72"/>
					</g>
					<g class="st5">
						<ellipse class="st0" cx="1769.98" cy="471.28" rx="4.24" ry="4.25"/>
					</g>
					<g class="st5">
						<ellipse class="st0" cx="1769.98" cy="471.28" rx="3.77" ry="3.78"/>
					</g>
					<g class="st5">
						<ellipse class="st0" cx="1769.98" cy="471.28" rx="3.3" ry="3.31"/>
					</g>
					<g class="st5">
						<ellipse class="st0" cx="1769.98" cy="471.28" rx="2.82" ry="2.83"/>
					</g>
					<g class="st5">
						<ellipse class="st0" cx="1769.98" cy="471.28" rx="2.35" ry="2.36"/>
					</g>
					<g class="st5">
						<ellipse class="st0" cx="1769.98" cy="471.28" rx="1.88" ry="1.89"/>
					</g>
					<g class="st5">
						<ellipse class="st0" cx="1769.98" cy="471.28" rx="1.41" ry="1.42"/>
					</g>
					<g class="st5">
						<ellipse class="st0" cx="1769.98" cy="471.28" rx="0.94" ry="0.94"/>
					</g>
					<g class="st5">
						<circle class="st0" cx="1769.98" cy="471.28" r="0.47"/>
					</g>
					<g class="st5">
						<rect x="1757.81" y="455.38" class="st0" width="24.33" height="31.8"/>
					</g>
					<g class="st5">
						<ellipse class="st0" cx="1769.98" cy="471.28" rx="14.12" ry="14.17"/>
					</g>
					<g class="st5">
						<ellipse class="st0" cx="1769.98" cy="471.28" rx="13.65" ry="13.7"/>
					</g>
					<g class="st5">
						<ellipse class="st0" cx="1769.98" cy="471.28" rx="13.18" ry="13.23"/>
					</g>
					<g class="st5">
						<ellipse class="st0" cx="1769.98" cy="471.28" rx="12.71" ry="12.76"/>
					</g>
					<g class="st5">
						<ellipse class="st0" cx="1769.98" cy="471.28" rx="12.24" ry="12.28"/>
					</g>
					<g class="st5">
						<ellipse class="st0" cx="1769.98" cy="471.28" rx="11.77" ry="11.81"/>
					</g>
					<g class="st5">
						<ellipse class="st0" cx="1769.98" cy="471.28" rx="11.3" ry="11.34"/>
					</g>
					<g class="st5">
						<ellipse class="st0" cx="1769.98" cy="471.28" rx="10.83" ry="10.87"/>
					</g>
					<g class="st5">
						<ellipse class="st0" cx="1769.98" cy="471.28" rx="10.36" ry="10.39"/>
					</g>
					<g class="st5">
						<ellipse class="st0" cx="1769.98" cy="471.28" rx="9.89" ry="9.92"/>
					</g>
					<g class="st5">
						<ellipse class="st0" cx="1769.98" cy="471.28" rx="9.42" ry="9.45"/>
					</g>
					<g class="st5">
						<ellipse class="st0" cx="1769.98" cy="471.28" rx="8.94" ry="8.98"/>
					</g>
					<g class="st5">
						<ellipse class="st0" cx="1769.98" cy="471.28" rx="8.47" ry="8.5"/>
					</g>
					<g class="st5">
						<ellipse class="st0" cx="1769.98" cy="471.28" rx="8" ry="8.03"/>
					</g>
					<g class="st5">
						<ellipse class="st0" cx="1769.98" cy="471.28" rx="7.53" ry="7.56"/>
					</g>
					<g class="st5">
						<ellipse class="st0" cx="1769.98" cy="471.28" rx="7.06" ry="7.09"/>
					</g>
					<g class="st5">
						<ellipse class="st0" cx="1769.98" cy="471.28" rx="6.59" ry="6.61"/>
					</g>
					<g class="st5">
						<ellipse class="st0" cx="1769.98" cy="471.28" rx="6.12" ry="6.14"/>
					</g>
					<g class="st5">
						<ellipse class="st0" cx="1769.98" cy="471.28" rx="5.65" ry="5.67"/>
					</g>
					<g class="st5">
						<ellipse class="st0" cx="1769.98" cy="471.28" rx="5.18" ry="5.2"/>
					</g>
					<g class="st5">
						<ellipse class="st0" cx="1769.98" cy="471.28" rx="4.71" ry="4.72"/>
					</g>
					<g class="st5">
						<ellipse class="st0" cx="1769.98" cy="471.28" rx="4.24" ry="4.25"/>
					</g>
					<g class="st5">
						<ellipse class="st0" cx="1769.98" cy="471.28" rx="3.77" ry="3.78"/>
					</g>
					<g class="st5">
						<ellipse class="st0" cx="1769.98" cy="471.28" rx="3.3" ry="3.31"/>
					</g>
					<g class="st5">
						<ellipse class="st0" cx="1769.98" cy="471.28" rx="2.82" ry="2.83"/>
					</g>
					<g class="st5">
						<ellipse class="st0" cx="1769.98" cy="471.28" rx="2.35" ry="2.36"/>
					</g>
					<g class="st5">
						<ellipse class="st0" cx="1769.98" cy="471.28" rx="1.88" ry="1.89"/>
					</g>
					<g class="st5">
						<ellipse class="st0" cx="1769.98" cy="471.28" rx="1.41" ry="1.42"/>
					</g>
					<g class="st5">
						<ellipse class="st0" cx="1769.98" cy="471.28" rx="0.94" ry="0.94"/>
					</g>
					<g class="st5">
						<circle class="st0" cx="1769.98" cy="471.28" r="0.47"/>
					</g>
				</g>
			</g>
		</g>
	</g>
</g>
</svg>
