<?xml version="1.0" encoding="utf-8"?>
<!-- Generator: Adobe Illustrator 23.0.1, SVG Export Plug-In . SVG Version: 6.00 Build 0)  -->
<svg version="1.1" id="Layer_1" xmlns="http://www.w3.org/2000/svg" xmlns:xlink="http://www.w3.org/1999/xlink" x="0px" y="0px"
	 viewBox="0 0 1920 1080" style="enable-background:new 0 0 1920 1080;" xml:space="preserve">
<style type="text/css">
	.st0{display:none;}
	.st1{display:inline;}
	.st2{fill:#FF6229;}
	.st3{fill:#FFFFFF;}
	.st4{clip-path:url(#SVGID_3_);}
	.st5{clip-path:url(#SVGID_4_);}
	.st6{clip-path:url(#SVGID_7_);}
	.st7{clip-path:url(#SVGID_8_);}
</style>
<g class="st0">
	<g class="st1">
		<g>
			<path class="st2" d="M783.55,796.55l-184.39,43.58c-11.66,2.76-21.93-8.15-18.48-19.62l66.96-222.89
				c3.81-12.67,20.68-15.11,27.92-4.05l117.43,179.32C798.9,781.91,794.05,794.07,783.55,796.55z"/>
		</g>
		<g>
			<path class="st2" d="M1047.92,802.69l185.6,38.08c11.74,2.41,21.68-8.79,17.89-20.16l-73.54-220.81
				c-4.18-12.55-21.12-14.49-28.03-3.22l-112.06,182.72C1032.14,788.52,1037.35,800.53,1047.92,802.69z"/>
		</g>
		<g>
			<path class="st2" d="M1398.5,99.55L930.43,886.87c-7.29,12.27-25.07,12.23-32.3-0.07L672.16,502.78v-0.05l37.04-141.92
				c3.66-14.03,21.17-18.78,31.43-8.53l162.16,162.16c7.32,7.32,19.17,7.33,26.51,0.03l439.83-437.81
				C1384.76,61.1,1409.77,80.59,1398.5,99.55z"/>
		</g>
	</g>
	<g class="st1">
		<g>
			<g>
				<path class="st2" d="M1286.47,854.12c-12.98,0-23.54-10.56-23.54-23.54c0-12.98,10.56-23.54,23.54-23.54
					c12.98,0,23.54,10.56,23.54,23.54C1310.01,843.56,1299.45,854.12,1286.47,854.12z M1286.47,810.6
					c-11.02,0-19.98,8.96-19.98,19.98s8.96,19.98,19.98,19.98h0c11.02,0,19.98-8.96,19.98-19.98S1297.49,810.6,1286.47,810.6z"/>
			</g>
		</g>
		<g>
			<g>
				<path class="st2" d="M1292.75,843.83l-7.15-10.36h-4.51v10.47h-4.3v-27.56l12.68,0.04c1.18,0,2.28,0.23,3.31,0.68
					c1.03,0.45,1.93,1.07,2.7,1.84c0.77,0.77,1.38,1.68,1.82,2.74c0.44,1.05,0.66,2.17,0.66,3.34c0,1.08-0.18,2.09-0.55,3.03
					c-0.37,0.94-0.88,1.79-1.54,2.54c-0.66,0.75-1.43,1.37-2.32,1.86c-0.88,0.49-1.84,0.81-2.87,0.96l7.24,10.44H1292.75z
					 M1289.48,829.24c0.59,0,1.13-0.11,1.63-0.33c0.5-0.22,0.94-0.53,1.32-0.92c0.38-0.39,0.68-0.84,0.9-1.34
					c0.22-0.5,0.33-1.05,0.33-1.64s-0.11-1.15-0.33-1.67c-0.22-0.53-0.53-0.99-0.92-1.38c-0.39-0.39-0.84-0.7-1.34-0.94
					c-0.5-0.23-1.04-0.35-1.63-0.35h-8.35v8.53L1289.48,829.24z"/>
			</g>
		</g>
	</g>
</g>
<g>
	<g>
		<path class="st3" d="M401.82,441.07v151.67h-23.67V486.35l-55.84,55.63l-55.64-55.63v106.39H243V441.07h11.94l67.37,67.41
			l67.57-67.41H401.82z"/>
		<path class="st3" d="M444.3,593.15h-25.9l65.35-151.68h12.95l65.35,151.68h-25.9l-14.16-32.69h-63.53L444.3,593.15z
			 M490.23,486.35l-21.65,50.36h43.3L490.23,486.35z"/>
		<path class="st3" d="M663.67,592.75l-39.37-57.26h-24.83v57.87h-23.67V441.07l69.8,0.2c6.47,0,12.54,1.25,18.21,3.76
			c5.67,2.51,10.62,5.89,14.87,10.15c4.25,4.26,7.59,9.31,10.01,15.13c2.43,5.82,3.64,11.98,3.64,18.48
			c0,5.96-1.01,11.54-3.03,16.75c-2.02,5.21-4.86,9.88-8.5,14.01c-3.64,4.13-7.89,7.55-12.74,10.25
			c-4.86,2.71-10.12,4.47-15.78,5.28l39.86,57.66H663.67z M645.67,512.14c3.23,0,6.22-0.61,8.98-1.83c2.76-1.22,5.18-2.91,7.26-5.08
			c2.08-2.16,3.73-4.63,4.94-7.41c1.21-2.77,1.82-5.79,1.82-9.04c0-3.25-0.61-6.33-1.82-9.24c-1.21-2.91-2.89-5.45-5.04-7.61
			c-2.15-2.16-4.61-3.89-7.36-5.18c-2.76-1.29-5.75-1.93-8.98-1.93h-45.99v47.11L645.67,512.14z"/>
		<path class="st3" d="M768.01,509.3l62.72,83.65h-29.54l-49.57-65.99l-14.77,15.84v50.36h-23.67V442.09h23.67v65.99l0.4-0.41v-0.2
			l0.81-0.61l61.3-65.79h32.37L768.01,509.3z"/>
		<g>
			<path class="st2" d="M900.73,441.07c10.38,0,20.16,2,29.34,5.99c9.17,3.99,17.2,9.44,24.08,16.35
				c6.88,6.9,12.31,14.96,16.29,24.16c3.98,9.21,5.97,19.02,5.97,29.44c0,10.56-1.99,20.44-5.97,29.64
				c-3.98,9.21-9.41,17.23-16.29,24.06c-6.88,6.84-14.91,12.25-24.08,16.24c-9.17,3.99-18.95,5.99-29.34,5.99
				c-10.52,0-20.37-2-29.54-5.99c-9.17-3.99-17.17-9.41-23.97-16.24c-6.81-6.84-12.21-14.85-16.19-24.06
				c-3.98-9.2-5.97-19.09-5.97-29.64c0-10.42,1.99-20.23,5.97-29.44c3.98-9.2,9.37-17.26,16.19-24.16
				c6.81-6.9,14.8-12.35,23.97-16.35C880.36,443.07,890.2,441.07,900.73,441.07z M900.73,570.62c7.28,0,14.16-1.39,20.64-4.16
				c6.47-2.77,12.14-6.6,16.99-11.47c4.86-4.87,8.66-10.56,11.43-17.05c2.76-6.5,4.15-13.47,4.15-20.91
				c0-7.31-1.39-14.21-4.15-20.71c-2.77-6.5-6.57-12.18-11.43-17.06c-4.86-4.87-10.52-8.69-16.99-11.47
				c-6.47-2.77-13.35-4.16-20.64-4.16c-7.42,0-14.36,1.39-20.84,4.16c-6.47,2.78-12.14,6.6-16.99,11.47
				c-4.86,4.87-8.67,10.56-11.43,17.06c-2.77,6.5-4.15,13.4-4.15,20.71c0,7.45,1.38,14.42,4.15,20.91
				c2.76,6.5,6.57,12.18,11.43,17.05c4.86,4.88,10.52,8.7,16.99,11.47C886.36,569.23,893.31,570.62,900.73,570.62z"/>
		</g>
		<g>
			<path class="st2" d="M1085.5,592.75l-39.37-57.26h-24.83v57.87h-23.67V441.07l69.8,0.2c6.47,0,12.54,1.25,18.21,3.76
				c5.67,2.51,10.62,5.89,14.87,10.15c4.25,4.26,7.59,9.31,10.01,15.13c2.43,5.82,3.64,11.98,3.64,18.48
				c0,5.96-1.01,11.54-3.03,16.75c-2.02,5.21-4.86,9.88-8.5,14.01c-3.64,4.13-7.89,7.55-12.75,10.25
				c-4.86,2.71-10.12,4.47-15.78,5.28l39.86,57.66H1085.5z M1067.5,512.14c3.23,0,6.22-0.61,8.98-1.83
				c2.76-1.22,5.17-2.91,7.26-5.08c2.08-2.16,3.73-4.63,4.94-7.41c1.21-2.77,1.82-5.79,1.82-9.04c0-3.25-0.61-6.33-1.82-9.24
				c-1.21-2.91-2.89-5.45-5.04-7.61c-2.15-2.16-4.61-3.89-7.36-5.18c-2.76-1.29-5.75-1.93-8.98-1.93h-45.99v47.11L1067.5,512.14z"/>
		</g>
		<g>
			<path class="st2" d="M1220.44,592.75l-39.37-57.26h-24.83v57.87h-23.67V441.07l69.8,0.2c6.47,0,12.54,1.25,18.21,3.76
				c5.67,2.51,10.62,5.89,14.87,10.15c4.25,4.26,7.59,9.31,10.01,15.13c2.43,5.82,3.64,11.98,3.64,18.48
				c0,5.96-1.01,11.54-3.03,16.75c-2.02,5.21-4.86,9.88-8.5,14.01c-3.64,4.13-7.89,7.55-12.75,10.25
				c-4.86,2.71-10.12,4.47-15.78,5.28l39.86,57.66H1220.44z M1202.44,512.14c3.23,0,6.22-0.61,8.98-1.83
				c2.76-1.22,5.17-2.91,7.26-5.08c2.08-2.16,3.73-4.63,4.94-7.41c1.21-2.77,1.82-5.79,1.82-9.04c0-3.25-0.61-6.33-1.82-9.24
				c-1.21-2.91-2.89-5.45-5.04-7.61c-2.15-2.16-4.61-3.89-7.36-5.18c-2.76-1.29-5.75-1.93-8.98-1.93h-45.99v47.11L1202.44,512.14z"
				/>
		</g>
		<g>
			<path class="st2" d="M1367.87,592.95h-97.92V441.68h97.92v23.35h-74.66v34.11h64.94v23.35h-64.94v47.11h74.66V592.95z"/>
		</g>
		<g>
			<path class="st2" d="M1460.12,593.15c-10.39,0-20.17-2-29.34-5.99c-9.18-3.99-17.2-9.41-24.08-16.24
				c-6.88-6.83-12.31-14.85-16.29-24.06c-3.98-9.21-5.97-19.09-5.97-29.65c0-10.42,1.99-20.23,5.97-29.44
				c3.98-9.2,9.41-17.26,16.29-24.16c6.88-6.9,14.9-12.35,24.08-16.35c9.17-3.99,18.95-5.99,29.34-5.99
				c7.55,0,14.87,1.09,21.95,3.28c7.08,2.19,13.72,5.39,19.93,9.63l-12.75,19.38c-8.77-5.95-18.48-8.93-29.13-8.93
				c-7.29,0-14.1,1.38-20.44,4.15c-6.34,2.77-11.9,6.54-16.69,11.33c-4.79,4.79-8.57,10.35-11.33,16.69
				c-2.77,6.34-4.15,13.15-4.15,20.43c0,7.29,1.38,14.13,4.15,20.53c2.76,6.4,6.54,11.97,11.33,16.69
				c4.79,4.72,10.35,8.46,16.69,11.22c6.34,2.77,13.15,4.15,20.44,4.15c10.52,0,20.23-2.91,29.13-8.73l12.75,19.38
				c-6.21,4.24-12.85,7.41-19.93,9.53C1474.99,592.1,1467.67,593.15,1460.12,593.15z"/>
		</g>
		<g>
			<path class="st2" d="M1519.6,441.07h117.54v23.76h-46.94v128.12h-23.67V464.83h-46.94V441.07z"/>
		</g>
	</g>
	<g>
		<g>
			<g>
				<g>
					<defs>
						<ellipse id="SVGID_1_" cx="1694.33" cy="434.39" rx="35.67" ry="35.8"/>
					</defs>
					<defs>
						<path id="SVGID_2_" d="M1694.33,404.01c-16.69,0-30.27,13.63-30.27,30.38s13.58,30.38,30.27,30.38h0
							c16.69,0,30.27-13.63,30.27-30.38S1711.02,404.01,1694.33,404.01z"/>
					</defs>
					<use xlink:href="#SVGID_1_"  style="overflow:visible;fill:#FF6229;"/>
					<use xlink:href="#SVGID_2_"  style="overflow:visible;fill:#FF6229;"/>
					<clipPath id="SVGID_3_">
						<use xlink:href="#SVGID_1_"  style="overflow:visible;"/>
					</clipPath>
					<clipPath id="SVGID_4_" class="st4">
						<use xlink:href="#SVGID_2_"  style="overflow:visible;"/>
					</clipPath>
					<g class="st5">
						<rect x="1664.06" y="404.01" class="st2" width="60.54" height="60.76"/>
					</g>
					<g class="st5">
						<ellipse class="st2" cx="1694.33" cy="434.39" rx="35.67" ry="35.8"/>
					</g>
					<g class="st5">
						<ellipse class="st2" cx="1694.33" cy="434.39" rx="34.48" ry="34.6"/>
					</g>
					<g class="st5">
						<ellipse class="st2" cx="1694.33" cy="434.39" rx="33.29" ry="33.41"/>
					</g>
					<g class="st5">
						<ellipse class="st2" cx="1694.33" cy="434.39" rx="32.1" ry="32.22"/>
					</g>
					<g class="st5">
						<ellipse class="st2" cx="1694.33" cy="434.39" rx="30.91" ry="31.02"/>
					</g>
					<g class="st5">
						<ellipse class="st2" cx="1694.33" cy="434.39" rx="29.72" ry="29.83"/>
					</g>
					<g class="st5">
						<ellipse class="st2" cx="1694.33" cy="434.39" rx="28.54" ry="28.64"/>
					</g>
					<g class="st5">
						<ellipse class="st2" cx="1694.33" cy="434.39" rx="27.35" ry="27.45"/>
					</g>
					<g class="st5">
						<ellipse class="st2" cx="1694.33" cy="434.39" rx="26.16" ry="26.25"/>
					</g>
					<g class="st5">
						<ellipse class="st2" cx="1694.33" cy="434.39" rx="24.97" ry="25.06"/>
					</g>
					<g class="st5">
						<ellipse class="st2" cx="1694.33" cy="434.39" rx="23.78" ry="23.87"/>
					</g>
					<g class="st5">
						<ellipse class="st2" cx="1694.33" cy="434.39" rx="22.59" ry="22.67"/>
					</g>
					<g class="st5">
						<ellipse class="st2" cx="1694.33" cy="434.39" rx="21.4" ry="21.48"/>
					</g>
					<g class="st5">
						<ellipse class="st2" cx="1694.33" cy="434.39" rx="20.21" ry="20.29"/>
					</g>
					<g class="st5">
						<ellipse class="st2" cx="1694.33" cy="434.39" rx="19.02" ry="19.09"/>
					</g>
					<g class="st5">
						<ellipse class="st2" cx="1694.33" cy="434.39" rx="17.83" ry="17.9"/>
					</g>
					<g class="st5">
						<ellipse class="st2" cx="1694.33" cy="434.39" rx="16.65" ry="16.71"/>
					</g>
					<g class="st5">
						<ellipse class="st2" cx="1694.33" cy="434.39" rx="15.46" ry="15.51"/>
					</g>
					<g class="st5">
						<ellipse class="st2" cx="1694.33" cy="434.39" rx="14.27" ry="14.32"/>
					</g>
					<g class="st5">
						<ellipse class="st2" cx="1694.33" cy="434.39" rx="13.08" ry="13.13"/>
					</g>
					<g class="st5">
						<ellipse class="st2" cx="1694.33" cy="434.39" rx="11.89" ry="11.93"/>
					</g>
					<g class="st5">
						<ellipse class="st2" cx="1694.33" cy="434.39" rx="10.7" ry="10.74"/>
					</g>
					<g class="st5">
						<ellipse class="st2" cx="1694.33" cy="434.39" rx="9.51" ry="9.55"/>
					</g>
					<g class="st5">
						<ellipse class="st2" cx="1694.33" cy="434.39" rx="8.32" ry="8.35"/>
					</g>
					<g class="st5">
						<ellipse class="st2" cx="1694.33" cy="434.39" rx="7.13" ry="7.16"/>
					</g>
					<g class="st5">
						<ellipse class="st2" cx="1694.33" cy="434.39" rx="5.94" ry="5.97"/>
					</g>
					<g class="st5">
						<ellipse class="st2" cx="1694.33" cy="434.39" rx="4.76" ry="4.77"/>
					</g>
					<g class="st5">
						<ellipse class="st2" cx="1694.33" cy="434.39" rx="3.57" ry="3.58"/>
					</g>
					<g class="st5">
						<ellipse class="st2" cx="1694.33" cy="434.39" rx="2.38" ry="2.39"/>
					</g>
					<g class="st5">
						<ellipse class="st2" cx="1694.33" cy="434.39" rx="1.19" ry="1.19"/>
					</g>
					<g class="st5">
						<rect x="1658.66" y="398.59" class="st2" width="71.34" height="71.6"/>
					</g>
					<g class="st5">
						<ellipse class="st2" cx="1694.33" cy="434.39" rx="35.67" ry="35.8"/>
					</g>
					<g class="st5">
						<ellipse class="st2" cx="1694.33" cy="434.39" rx="34.48" ry="34.6"/>
					</g>
					<g class="st5">
						<ellipse class="st2" cx="1694.33" cy="434.39" rx="33.29" ry="33.41"/>
					</g>
					<g class="st5">
						<ellipse class="st2" cx="1694.33" cy="434.39" rx="32.1" ry="32.22"/>
					</g>
					<g class="st5">
						<ellipse class="st2" cx="1694.33" cy="434.39" rx="30.91" ry="31.02"/>
					</g>
					<g class="st5">
						<ellipse class="st2" cx="1694.33" cy="434.39" rx="29.72" ry="29.83"/>
					</g>
					<g class="st5">
						<ellipse class="st2" cx="1694.33" cy="434.39" rx="28.54" ry="28.64"/>
					</g>
					<g class="st5">
						<ellipse class="st2" cx="1694.33" cy="434.39" rx="27.35" ry="27.45"/>
					</g>
					<g class="st5">
						<ellipse class="st2" cx="1694.33" cy="434.39" rx="26.16" ry="26.25"/>
					</g>
					<g class="st5">
						<ellipse class="st2" cx="1694.33" cy="434.39" rx="24.97" ry="25.06"/>
					</g>
					<g class="st5">
						<ellipse class="st2" cx="1694.33" cy="434.39" rx="23.78" ry="23.87"/>
					</g>
					<g class="st5">
						<ellipse class="st2" cx="1694.33" cy="434.39" rx="22.59" ry="22.67"/>
					</g>
					<g class="st5">
						<ellipse class="st2" cx="1694.33" cy="434.39" rx="21.4" ry="21.48"/>
					</g>
					<g class="st5">
						<ellipse class="st2" cx="1694.33" cy="434.39" rx="20.21" ry="20.29"/>
					</g>
					<g class="st5">
						<ellipse class="st2" cx="1694.33" cy="434.39" rx="19.02" ry="19.09"/>
					</g>
					<g class="st5">
						<ellipse class="st2" cx="1694.33" cy="434.39" rx="17.83" ry="17.9"/>
					</g>
					<g class="st5">
						<ellipse class="st2" cx="1694.33" cy="434.39" rx="16.65" ry="16.71"/>
					</g>
					<g class="st5">
						<ellipse class="st2" cx="1694.33" cy="434.39" rx="15.46" ry="15.51"/>
					</g>
					<g class="st5">
						<ellipse class="st2" cx="1694.33" cy="434.39" rx="14.27" ry="14.32"/>
					</g>
					<g class="st5">
						<ellipse class="st2" cx="1694.33" cy="434.39" rx="13.08" ry="13.13"/>
					</g>
					<g class="st5">
						<ellipse class="st2" cx="1694.33" cy="434.39" rx="11.89" ry="11.93"/>
					</g>
					<g class="st5">
						<ellipse class="st2" cx="1694.33" cy="434.39" rx="10.7" ry="10.74"/>
					</g>
					<g class="st5">
						<ellipse class="st2" cx="1694.33" cy="434.39" rx="9.51" ry="9.55"/>
					</g>
					<g class="st5">
						<ellipse class="st2" cx="1694.33" cy="434.39" rx="8.32" ry="8.35"/>
					</g>
					<g class="st5">
						<ellipse class="st2" cx="1694.33" cy="434.39" rx="7.13" ry="7.16"/>
					</g>
					<g class="st5">
						<ellipse class="st2" cx="1694.33" cy="434.39" rx="5.94" ry="5.97"/>
					</g>
					<g class="st5">
						<ellipse class="st2" cx="1694.33" cy="434.39" rx="4.76" ry="4.77"/>
					</g>
					<g class="st5">
						<ellipse class="st2" cx="1694.33" cy="434.39" rx="3.57" ry="3.58"/>
					</g>
					<g class="st5">
						<ellipse class="st2" cx="1694.33" cy="434.39" rx="2.38" ry="2.39"/>
					</g>
					<g class="st5">
						<ellipse class="st2" cx="1694.33" cy="434.39" rx="1.19" ry="1.19"/>
					</g>
				</g>
			</g>
		</g>
		<g>
			<g>
				<g>
					<defs>
						<path id="SVGID_5_" d="M1703.84,454.53l-10.84-15.76h-6.83v15.93h-6.52v-41.92l19.21,0.06c1.78,0,3.45,0.35,5.01,1.03
							c1.56,0.69,2.92,1.62,4.09,2.79c1.17,1.17,2.09,2.56,2.76,4.16c0.67,1.6,1,3.3,1,5.09c0,1.64-0.28,3.18-0.84,4.61
							c-0.56,1.43-1.34,2.72-2.34,3.86c-1,1.14-2.17,2.08-3.51,2.82c-1.34,0.75-2.78,1.23-4.34,1.45l10.97,15.87H1703.84z"/>
					</defs>
					<defs>
						<path id="SVGID_6_" d="M1698.89,432.35c0.89,0,1.71-0.17,2.47-0.5c0.76-0.34,1.42-0.8,2-1.4c0.57-0.6,1.03-1.28,1.36-2.04
							c0.33-0.76,0.5-1.59,0.5-2.49c0-0.89-0.17-1.74-0.5-2.54c-0.33-0.8-0.8-1.5-1.39-2.1c-0.59-0.6-1.27-1.07-2.03-1.43
							c-0.76-0.35-1.58-0.53-2.47-0.53h-12.66v12.97L1698.89,432.35z"/>
					</defs>
					<use xlink:href="#SVGID_5_"  style="overflow:visible;fill:#FF6229;"/>
					<use xlink:href="#SVGID_6_"  style="overflow:visible;fill:#FF6229;"/>
					<clipPath id="SVGID_7_">
						<use xlink:href="#SVGID_5_"  style="overflow:visible;"/>
					</clipPath>
					<clipPath id="SVGID_8_" class="st6">
						<use xlink:href="#SVGID_6_"  style="overflow:visible;"/>
					</clipPath>
					<g class="st7">
						<rect x="1686.17" y="419.32" class="st2" width="19.04" height="13.02"/>
					</g>
					<g class="st7">
						<ellipse class="st2" cx="1695.7" cy="433.74" rx="18.62" ry="18.69"/>
					</g>
					<g class="st7">
						<ellipse class="st2" cx="1695.7" cy="433.74" rx="18" ry="18.06"/>
					</g>
					<g class="st7">
						<ellipse class="st2" cx="1695.7" cy="433.74" rx="17.38" ry="17.44"/>
					</g>
					<g class="st7">
						<ellipse class="st2" cx="1695.7" cy="433.74" rx="16.76" ry="16.82"/>
					</g>
					<g class="st7">
						<ellipse class="st2" cx="1695.7" cy="433.74" rx="16.14" ry="16.19"/>
					</g>
					<g class="st7">
						<ellipse class="st2" cx="1695.7" cy="433.74" rx="15.52" ry="15.57"/>
					</g>
					<g class="st7">
						<ellipse class="st2" cx="1695.7" cy="433.74" rx="14.89" ry="14.95"/>
					</g>
					<g class="st7">
						<ellipse class="st2" cx="1695.7" cy="433.74" rx="14.27" ry="14.33"/>
					</g>
					<g class="st7">
						<ellipse class="st2" cx="1695.7" cy="433.74" rx="13.65" ry="13.7"/>
					</g>
					<g class="st7">
						<ellipse class="st2" cx="1695.7" cy="433.74" rx="13.03" ry="13.08"/>
					</g>
					<g class="st7">
						<ellipse class="st2" cx="1695.7" cy="433.74" rx="12.41" ry="12.46"/>
					</g>
					<g class="st7">
						<ellipse class="st2" cx="1695.7" cy="433.74" rx="11.79" ry="11.83"/>
					</g>
					<g class="st7">
						<ellipse class="st2" cx="1695.7" cy="433.74" rx="11.17" ry="11.21"/>
					</g>
					<g class="st7">
						<ellipse class="st2" cx="1695.7" cy="433.74" rx="10.55" ry="10.59"/>
					</g>
					<g class="st7">
						<ellipse class="st2" cx="1695.7" cy="433.74" rx="9.93" ry="9.97"/>
					</g>
					<g class="st7">
						<ellipse class="st2" cx="1695.7" cy="433.74" rx="9.31" ry="9.34"/>
					</g>
					<g class="st7">
						<ellipse class="st2" cx="1695.7" cy="433.74" rx="8.69" ry="8.72"/>
					</g>
					<g class="st7">
						<ellipse class="st2" cx="1695.7" cy="433.74" rx="8.07" ry="8.1"/>
					</g>
					<g class="st7">
						<ellipse class="st2" cx="1695.7" cy="433.74" rx="7.45" ry="7.47"/>
					</g>
					<g class="st7">
						<ellipse class="st2" cx="1695.7" cy="433.74" rx="6.83" ry="6.85"/>
					</g>
					<g class="st7">
						<ellipse class="st2" cx="1695.7" cy="433.74" rx="6.21" ry="6.23"/>
					</g>
					<g class="st7">
						<ellipse class="st2" cx="1695.7" cy="433.74" rx="5.59" ry="5.61"/>
					</g>
					<g class="st7">
						<ellipse class="st2" cx="1695.7" cy="433.74" rx="4.96" ry="4.98"/>
					</g>
					<g class="st7">
						<ellipse class="st2" cx="1695.7" cy="433.74" rx="4.34" ry="4.36"/>
					</g>
					<g class="st7">
						<ellipse class="st2" cx="1695.7" cy="433.74" rx="3.72" ry="3.74"/>
					</g>
					<g class="st7">
						<ellipse class="st2" cx="1695.7" cy="433.74" rx="3.1" ry="3.11"/>
					</g>
					<g class="st7">
						<ellipse class="st2" cx="1695.7" cy="433.74" rx="2.48" ry="2.49"/>
					</g>
					<g class="st7">
						<ellipse class="st2" cx="1695.7" cy="433.74" rx="1.86" ry="1.87"/>
					</g>
					<g class="st7">
						<ellipse class="st2" cx="1695.7" cy="433.74" rx="1.24" ry="1.25"/>
					</g>
					<g class="st7">
						<ellipse class="st2" cx="1695.7" cy="433.74" rx="0.62" ry="0.62"/>
					</g>
					<g class="st7">
						<rect x="1679.66" y="412.79" class="st2" width="32.08" height="41.92"/>
					</g>
					<g class="st7">
						<ellipse class="st2" cx="1695.7" cy="433.74" rx="18.62" ry="18.69"/>
					</g>
					<g class="st7">
						<ellipse class="st2" cx="1695.7" cy="433.74" rx="18" ry="18.06"/>
					</g>
					<g class="st7">
						<ellipse class="st2" cx="1695.7" cy="433.74" rx="17.38" ry="17.44"/>
					</g>
					<g class="st7">
						<ellipse class="st2" cx="1695.7" cy="433.74" rx="16.76" ry="16.82"/>
					</g>
					<g class="st7">
						<ellipse class="st2" cx="1695.7" cy="433.74" rx="16.14" ry="16.19"/>
					</g>
					<g class="st7">
						<ellipse class="st2" cx="1695.7" cy="433.74" rx="15.52" ry="15.57"/>
					</g>
					<g class="st7">
						<ellipse class="st2" cx="1695.7" cy="433.74" rx="14.89" ry="14.95"/>
					</g>
					<g class="st7">
						<ellipse class="st2" cx="1695.7" cy="433.74" rx="14.27" ry="14.33"/>
					</g>
					<g class="st7">
						<ellipse class="st2" cx="1695.7" cy="433.74" rx="13.65" ry="13.7"/>
					</g>
					<g class="st7">
						<ellipse class="st2" cx="1695.7" cy="433.74" rx="13.03" ry="13.08"/>
					</g>
					<g class="st7">
						<ellipse class="st2" cx="1695.7" cy="433.74" rx="12.41" ry="12.46"/>
					</g>
					<g class="st7">
						<ellipse class="st2" cx="1695.7" cy="433.74" rx="11.79" ry="11.83"/>
					</g>
					<g class="st7">
						<ellipse class="st2" cx="1695.7" cy="433.74" rx="11.17" ry="11.21"/>
					</g>
					<g class="st7">
						<ellipse class="st2" cx="1695.7" cy="433.74" rx="10.55" ry="10.59"/>
					</g>
					<g class="st7">
						<ellipse class="st2" cx="1695.7" cy="433.74" rx="9.93" ry="9.97"/>
					</g>
					<g class="st7">
						<ellipse class="st2" cx="1695.7" cy="433.74" rx="9.31" ry="9.34"/>
					</g>
					<g class="st7">
						<ellipse class="st2" cx="1695.7" cy="433.74" rx="8.69" ry="8.72"/>
					</g>
					<g class="st7">
						<ellipse class="st2" cx="1695.7" cy="433.74" rx="8.07" ry="8.1"/>
					</g>
					<g class="st7">
						<ellipse class="st2" cx="1695.7" cy="433.74" rx="7.45" ry="7.47"/>
					</g>
					<g class="st7">
						<ellipse class="st2" cx="1695.7" cy="433.74" rx="6.83" ry="6.85"/>
					</g>
					<g class="st7">
						<ellipse class="st2" cx="1695.7" cy="433.74" rx="6.21" ry="6.23"/>
					</g>
					<g class="st7">
						<ellipse class="st2" cx="1695.7" cy="433.74" rx="5.59" ry="5.61"/>
					</g>
					<g class="st7">
						<ellipse class="st2" cx="1695.7" cy="433.74" rx="4.96" ry="4.98"/>
					</g>
					<g class="st7">
						<ellipse class="st2" cx="1695.7" cy="433.74" rx="4.34" ry="4.36"/>
					</g>
					<g class="st7">
						<ellipse class="st2" cx="1695.7" cy="433.74" rx="3.72" ry="3.74"/>
					</g>
					<g class="st7">
						<ellipse class="st2" cx="1695.7" cy="433.74" rx="3.1" ry="3.11"/>
					</g>
					<g class="st7">
						<ellipse class="st2" cx="1695.7" cy="433.74" rx="2.48" ry="2.49"/>
					</g>
					<g class="st7">
						<ellipse class="st2" cx="1695.7" cy="433.74" rx="1.86" ry="1.87"/>
					</g>
					<g class="st7">
						<ellipse class="st2" cx="1695.7" cy="433.74" rx="1.24" ry="1.25"/>
					</g>
					<g class="st7">
						<ellipse class="st2" cx="1695.7" cy="433.74" rx="0.62" ry="0.62"/>
					</g>
				</g>
			</g>
		</g>
	</g>
</g>
</svg>
