<?xml version="1.0" encoding="utf-8"?>
<!-- Generator: Adobe Illustrator 23.0.1, SVG Export Plug-In . SVG Version: 6.00 Build 0)  -->
<svg version="1.1" id="Layer_1" xmlns="http://www.w3.org/2000/svg" xmlns:xlink="http://www.w3.org/1999/xlink" x="0px" y="0px"
	 viewBox="0 0 1920 1080" style="enable-background:new 0 0 1920 1080;" xml:space="preserve">
<style type="text/css">
	.st0{opacity:0.3;}
	.st1{fill:#141615;}
	.st2{fill:#F9F9FC;}
	.st3{fill:#E1E2E6;}
	.st4{fill:#ECEDF0;}
</style>
<g>
	<g class="st0">
		<polygon class="st1" points="397.84,222.38 368.58,224.43 377.56,239.75 378.79,239 378.8,239.01 343,261.2 433.41,316.89 
			416.83,206.07 		"/>
		<polygon class="st1" points="491.45,396.21 459.65,409.72 475.39,423.57 476.47,422.25 476.48,422.26 444.95,461 566.38,489.25 
			506.48,370.53 		"/>
		<polygon class="st1" points="649.24,662.86 776.86,586.53 628.2,530.36 636.27,565.93 619.95,604.64 644.82,603.88 644.67,601.78 
			644.69,601.78 		"/>
		<polygon class="st1" points="874.1,692.01 1031.64,552.49 811.5,512.46 831.66,560.04 818.82,618.29 853.09,610.8 852.35,607.92 
			852.38,607.91 		"/>
		<polygon class="st1" points="1049.27,517.25 1076.77,521.66 1077.04,519.34 1077.06,519.34 1069.51,586.92 1225.51,530.51 
			1073.61,437.97 1075.17,478.47 		"/>
		<polygon class="st1" points="1295.76,550.41 1273.06,561.89 1285.26,571.32 1285.99,570.3 1286.01,570.3 1264.69,600.34 
			1355.16,615.26 1305.58,530.78 		"/>
		<polygon class="st1" points="1371.38,666.95 1354.01,667.73 1359.11,676.94 1359.85,676.51 1359.86,676.51 1338.32,689.12 
			1391.1,723.43 1382.87,657.57 		"/>
		<polygon class="st1" points="1374.42,772.05 1387.22,811.5 1410.39,775.38 1400.59,775.14 1391.36,768.14 1390.15,774.87 
			1390.71,774.97 1390.71,774.97 		"/>
	</g>
	<g>
		<g>
			<polygon class="st2" points="413.7,198.99 438.91,308.04 405.68,253.53 396.07,216.92 			"/>
			<polygon class="st3" points="396.07,216.92 367.08,221.53 438.91,308.04 			"/>
			<polygon class="st2" points="438.91,308.04 344.49,260.43 382.43,232.17 			"/>
			<polygon class="st4" points="367.08,221.53 377.23,236.02 382.43,232.17 			"/>
		</g>
		<g>
			<polygon class="st2" points="515.9,355.12 584.87,468.24 530.74,423.22 502.94,382.04 			"/>
			<polygon class="st3" points="502.94,382.04 472.33,398.29 584.87,468.24 			"/>
			<polygon class="st2" points="584.87,468.24 461.71,450.72 493.44,404.41 			"/>
			<polygon class="st4" points="472.33,398.29 489.09,410.73 493.44,404.41 			"/>
		</g>
		<g>
			<polygon class="st2" points="649.68,503.82 802.15,546.8 715.16,549.56 660.51,538.58 			"/>
			<polygon class="st3" points="660.51,538.58 647.29,578.6 802.15,546.8 			"/>
			<polygon class="st2" points="802.15,546.8 681.03,634.08 670.6,566.4 			"/>
			<polygon class="st4" points="647.29,578.6 672,575.66 670.6,566.4 			"/>
		</g>
		<g>
			<polygon class="st2" points="830.85,469.92 1053.26,490.55 923.76,522.46 854.66,515.59 			"/>
			<polygon class="st3" points="854.66,515.59 846.44,574.79 1053.26,490.55 			"/>
			<polygon class="st2" points="1053.26,490.55 907.28,643.45 875.7,551.78 			"/>
			<polygon class="st4" points="846.44,574.79 879.99,564.33 875.7,551.78 			"/>
		</g>
		<g>
			<polygon class="st2" points="1086.08,372.69 1244.64,451.65 1139.95,437.8 1090.81,412.93 			"/>
			<polygon class="st3" points="1090.81,412.93 1068.06,453.87 1244.64,451.65 			"/>
			<polygon class="st2" points="1244.64,451.65 1093.68,521.56 1096.17,445.44 			"/>
			<polygon class="st4" points="1068.06,453.87 1095.8,455.85 1096.17,445.44 			"/>
		</g>
		<g>
			<polygon class="st2" points="1324.42,444.9 1380.43,524.8 1333.43,490.28 1316.18,465.33 			"/>
			<polygon class="st3" points="1316.18,465.33 1294.47,478.77 1380.43,524.8 			"/>
			<polygon class="st2" points="1380.43,524.8 1289.15,517.85 1310.26,482.25 			"/>
			<polygon class="st4" points="1294.47,478.77 1307.36,487.11 1310.26,482.25 			"/>
		</g>
		<g>
			<polygon class="st2" points="1411.35,564.55 1424.72,629.5 1404.67,595.12 1400.64,574.91 			"/>
			<polygon class="st3" points="1400.64,574.91 1383.4,577.21 1424.72,629.5 			"/>
			<polygon class="st2" points="1424.72,629.5 1369.45,599.92 1392.34,583.74 			"/>
			<polygon class="st4" points="1383.4,577.21 1389.2,585.94 1392.34,583.74 			"/>
		</g>
		<g>
			<polygon class="st2" points="1448,679.61 1427.76,717.65 1431.86,692.01 1438.23,680.22 			"/>
			<polygon class="st3" points="1438.23,680.22 1428.48,674.05 1427.76,717.65 			"/>
			<polygon class="st2" points="1427.76,717.65 1411.91,679.44 1430.32,681.1 			"/>
			<polygon class="st4" points="1428.48,674.05 1427.8,680.86 1430.32,681.1 			"/>
		</g>
	</g>
</g>
</svg>
