<?xml version="1.0" encoding="utf-8"?>
<!-- Generator: Adobe Illustrator 23.0.1, SVG Export Plug-In . SVG Version: 6.00 Build 0)  -->
<svg version="1.1" id="Layer_1" xmlns="http://www.w3.org/2000/svg" xmlns:xlink="http://www.w3.org/1999/xlink" x="0px" y="0px"
	 viewBox="0 0 1920 1080" style="enable-background:new 0 0 1920 1080;" xml:space="preserve">
<style type="text/css">
	.st0{opacity:0.3;}
	.st1{fill:#141615;}
	.st2{fill:#F9F9FC;}
	.st3{fill:#E1E2E6;}
	.st4{fill:#ECEDF0;}
</style>
<g>
	<g class="st0">
		<polygon class="st1" points="1406.45,159.95 1432.89,156.96 1427.39,172.11 1426.17,171.63 1426.17,171.65 1461.74,185.54 
			1390.28,250.07 1386.84,148.53 		"/>
		<polygon class="st1" points="1351.58,330.35 1382.15,337.16 1370.4,352.1 1369.22,351.1 1369.21,351.11 1403.7,380.47 
			1300.07,425.64 1333.95,309.92 		"/>
		<polygon class="st1" points="1254.74,594.07 1128.39,547 1251.71,472.46 1250.36,505.51 1271.28,537.34 1248.98,540.75 
			1248.77,538.86 1248.75,538.86 		"/>
		<polygon class="st1" points="1059.03,657.05 895.61,558.56 1085.31,486.65 1075.17,532.39 1096.2,582.22 1064.41,581.19 
			1064.59,578.49 1064.57,578.49 		"/>
		<polygon class="st1" points="874.09,530.04 850.29,538.49 849.67,536.47 849.65,536.47 867.51,595.49 719.12,570.85 
			839.34,463.35 844.61,499.71 		"/>
		<polygon class="st1" points="659.75,600.15 681.88,606.65 672.56,617.07 671.73,616.27 671.72,616.28 695.67,639.56 
			617.46,667.75 647.77,584.26 		"/>
		<polygon class="st1" points="611.49,716.5 627.11,714.34 624.08,723.39 623.35,723.13 623.34,723.13 644.62,730.84 603.2,770.11 
			599.7,710.03 		"/>
		<polygon class="st1" points="626.08,810.72 621.15,848 594.55,819.61 603.24,817.78 610.32,810.01 612.51,815.82 612.03,816 
			612.03,816 		"/>
	</g>
	<g>
		<g>
			<polygon class="st2" points="1388.46,141.71 1383.93,243.08 1404.59,189.02 1407.14,154.79 			"/>
			<polygon class="st3" points="1407.14,154.79 1433.75,154.13 1383.93,243.08 			"/>
			<polygon class="st2" points="1383.93,243.08 1460.29,185.1 1421.81,166.15 			"/>
			<polygon class="st4" points="1433.75,154.13 1427.08,168.72 1421.81,166.15 			"/>
		</g>
		<g>
			<polygon class="st2" points="1323.02,297.73 1280.12,409.95 1320.99,360.9 1339,319.6 			"/>
			<polygon class="st3" points="1339,319.6 1368.97,329.06 1280.12,409.95 			"/>
			<polygon class="st2" points="1280.12,409.95 1387.07,374.06 1351.15,337.99 			"/>
			<polygon class="st4" points="1368.97,329.06 1356.07,342.91 1351.15,337.99 			"/>
		</g>
		<g>
			<polygon class="st2" points="1228.19,452.33 1099.3,515.74 1177.33,503.89 1224.25,485.11 			"/>
			<polygon class="st3" points="1224.25,485.11 1242.62,518.62 1099.3,515.74 			"/>
			<polygon class="st2" points="1099.3,515.74 1221.66,573.64 1219.83,511.58 			"/>
			<polygon class="st4" points="1242.62,518.62 1220.1,520.06 1219.83,511.58 			"/>
		</g>
		<g>
			<polygon class="st2" points="1061.06,451.9 866.14,506.88 986.86,514.03 1047.34,496.54 			"/>
			<polygon class="st3" points="1047.34,496.54 1064.41,547.98 866.14,506.88 			"/>
			<polygon class="st2" points="866.14,506.88 1021.45,619.21 1034.54,532.27 			"/>
			<polygon class="st4" points="1064.41,547.98 1032.78,544.17 1034.54,532.27 			"/>
		</g>
		<g>
			<polygon class="st2" points="817.48,407.18 689.09,503.68 780.17,474.1 819.89,443.85 			"/>
			<polygon class="st3" points="819.89,443.85 846.91,476.61 689.09,503.68 			"/>
			<polygon class="st2" points="689.09,503.68 835.2,541.18 820.46,473.72 			"/>
			<polygon class="st4" points="846.91,476.61 822.5,482.94 820.46,473.72 			"/>
		</g>
		<g>
			<polygon class="st2" points="616.85,510.78 580.05,591.24 616.28,552.73 627.55,527.65 			"/>
			<polygon class="st3" points="627.55,527.65 649.12,536.05 580.05,591.24 			"/>
			<polygon class="st2" points="580.05,591.24 660.29,570.02 635.61,541.75 			"/>
			<polygon class="st4" points="649.12,536.05 639,545.61 635.61,541.75 			"/>
		</g>
		<g>
			<polygon class="st2" points="559.01,631.77 557.77,691.88 570,657.93 570.26,639.24 			"/>
			<polygon class="st3" points="570.26,639.24 586.02,638.46 557.77,691.88 			"/>
			<polygon class="st2" points="557.77,691.88 602.19,656.41 579.12,645.75 			"/>
			<polygon class="st4" points="586.02,638.46 582.28,647.2 579.12,645.75 			"/>
		</g>
		<g>
			<polygon class="st2" points="545.26,740.39 569.56,770.98 561.69,748.79 554.07,739.33 			"/>
			<polygon class="st3" points="554.07,739.33 561.75,732.22 569.56,770.98 			"/>
			<polygon class="st2" points="569.56,770.98 577.41,734.31 561.27,738.81 			"/>
			<polygon class="st4" points="561.75,732.22 563.47,738.19 561.27,738.81 			"/>
		</g>
	</g>
</g>
</svg>
