<?xml version="1.0" encoding="utf-8"?>
<!-- Generator: Adobe Illustrator 23.0.1, SVG Export Plug-In . SVG Version: 6.00 Build 0)  -->
<svg version="1.1" id="Layer_1" xmlns="http://www.w3.org/2000/svg" xmlns:xlink="http://www.w3.org/1999/xlink" x="0px" y="0px"
	 viewBox="0 0 1920 1080" style="enable-background:new 0 0 1920 1080;" xml:space="preserve">
<style type="text/css">
	.st0{fill-rule:evenodd;clip-rule:evenodd;fill:#101C29;}
	.st1{fill-rule:evenodd;clip-rule:evenodd;fill:#C2C4C2;}
	.st2{fill-rule:evenodd;clip-rule:evenodd;fill:#FF6500;}
	.st3{fill-rule:evenodd;clip-rule:evenodd;fill:#E9EFFD;}
	.st4{fill-rule:evenodd;clip-rule:evenodd;fill:#FF3E00;}
	.st5{fill-rule:evenodd;clip-rule:evenodd;fill:#FFFFFF;}
	.st6{fill-rule:evenodd;clip-rule:evenodd;fill:#E4C000;}
	.st7{fill-rule:evenodd;clip-rule:evenodd;fill:#D47B05;}
</style>
<g>
	<path class="st0" d="M677.77,839.62l-73.73,152.73c0,0-6.54,13.64,12.24,13.22c18.78-0.42,622.52,17.68,635.13,18.1
		c12.61,0.42,15.43-7.7,7.67-24.06c-7.04-14.84-52.38-121.23-60.78-140.96c-0.84-1.96-2.62-3.19-4.75-3.27l-510.72-18.8
		C680.63,836.5,678.72,837.66,677.77,839.62z"/>
	<g>
		<path class="st1" d="M1232.36,421.3c0.08-0.09,9.91-11.15,27.04-26.73c10.66,3.59,61.52,19.33,61.26-7.53
			c-0.21-22.08-31.56-11.28-48.09-4.05c7.92-6.73,16.86-13.91,26.66-21.17c12.41,4.33,58.81,19.03,58.09-3.28
			c-0.74-23.08-33.69-11.04-44.34-6.53c8.61-5.91,17.75-11.77,27.36-17.36c9.77,4.3,47.07,19.32,49.9-0.69
			c2.52-17.81-21.82-12.1-33.01-8.59c5.51-2.85,11.14-5.58,16.88-8.17c21.49,3.22,73.29-7.83,53.96-26.66
			c-16.83-16.4-44.89,12.11-54.09,22.48c-6.5,2.89-12.86,5.97-19.06,9.19c6.85-11.56,20.88-38.86-0.86-36.58
			c-24.2,2.54-18.24,37.72-16.46,46.15c-7.81,4.57-15.32,9.31-22.48,14.11c9.85-14.61,27.43-45.52,2.22-48.48
			c-30.38-3.57-22.82,52.68-21.36,62.01c-11.5,8.56-21.79,16.99-30.64,24.69c9.41-12.78,38.32-55.04,7.92-53.46
			c-31.77,1.65-19.62,50.15-16.47,61.07c-17.3,15.73-27.23,26.9-27.31,26.99L1232.36,421.3z"/>
		<path class="st2" d="M999.71,500.94c-0.06-0.09-7.49-11.37-17.18-30.16c5.69-8.55,31.58-49.69,7.84-55.8
			c-19.52-5.03-17.41,25.16-14.93,41.45c-4.06-8.57-8.28-18.15-12.37-28.52c6.75-9.92,30.68-47.37,10.83-52.01
			c-20.54-4.8-17.7,27.11-16.24,37.56c-3.18-8.99-6.18-18.44-8.84-28.24c6.1-7.6,28.17-36.95,11.18-44.17
			c-15.12-6.43-15.83,16.38-15.38,27.08c-1.21-5.53-2.29-11.14-3.21-16.82c7.92-18.19,10.41-66.48-10.76-53.88
			c-18.44,10.97,0.08,42.45,7.04,53.02c1.02,6.41,2.23,12.75,3.6,18.98c-8.58-8.77-29.34-27.6-32.46-7.88
			c-3.48,21.94,28.95,25,36.81,25.42c2.19,7.97,4.59,15.71,7.13,23.15c-10.56-12.14-33.66-34.94-42.23-13.42
			c-10.33,25.95,41.06,32.58,49.64,33.49c4.83,12.16,9.83,23.23,14.53,32.86c-9.05-11.33-39.48-46.8-45.28-19.61
			c-6.05,28.41,39.59,29.15,49.97,28.96c9.78,18.98,17.29,30.37,17.35,30.46L999.71,500.94z"/>
		<g>
			<path class="st2" d="M1101.56,770.93c0.09-0.06,11.37-7.49,30.16-17.18c8.55,5.69,49.69,31.58,55.8,7.84
				c5.03-19.52-25.16-17.41-41.45-14.93c8.57-4.06,18.15-8.28,28.52-12.37c9.92,6.75,47.37,30.68,52.01,10.83
				c4.8-20.54-27.11-17.7-37.56-16.24c8.99-3.18,18.44-6.18,28.24-8.84c7.6,6.1,36.95,28.17,44.17,11.18
				c6.43-15.12-16.38-15.83-27.08-15.38c5.53-1.21,11.14-2.29,16.82-3.21c18.19,7.92,66.48,10.41,53.88-10.76
				c-10.97-18.44-42.45,0.08-53.02,7.04c-6.41,1.02-12.75,2.23-18.98,3.6c8.77-8.58,27.6-29.34,7.88-32.46
				c-21.94-3.48-25,28.95-25.42,36.81c-7.97,2.19-15.71,4.59-23.15,7.13c12.14-10.56,34.94-33.66,13.42-42.22
				c-25.95-10.33-32.58,41.06-33.49,49.64c-12.16,4.83-23.23,9.83-32.86,14.53c11.33-9.05,46.8-39.48,19.61-45.28
				c-28.41-6.05-29.15,39.59-28.96,49.97c-18.98,9.78-30.37,17.29-30.46,17.35L1101.56,770.93z"/>
			<path class="st2" d="M1101.56,770.93c0.09-0.06,11.37-7.49,30.16-17.18c3.17,2.11,10.82,6.99,19.5,11.1
				c-0.65-10.64,8.73-17.01,14.08-19.76c-6.74-0.05-13.76,0.73-19.22,1.57c4.84-2.29,10-4.64,15.45-6.98
				c-0.33-1.11-0.43-2.37-0.37-3.68c-7.84,3.35-15.11,6.72-21.71,9.94c5.01-4,14.73-12.18,21.67-20.56
				c-6.8-1.47-4.51-14.75-1.78-24.65c-0.09-0.02-0.18-0.05-0.28-0.07c-28.41-6.05-29.15,39.59-28.96,49.97
				c-18.98,9.78-30.37,17.29-30.46,17.35L1101.56,770.93z"/>
		</g>
		<g>
			<path class="st2" d="M654.24,752.14c-0.09-0.06-11.2-7.74-29.77-17.85c-8.68,5.5-50.38,30.47-55.97,6.59
				c-4.59-19.63,25.54-16.84,41.78-14.01c-8.48-4.25-17.96-8.69-28.24-13c-10.07,6.53-48.04,29.62-52.23,9.67
				c-4.34-20.63,27.49-17.09,37.91-15.4c-8.92-3.38-18.3-6.59-28.03-9.47c-7.73,5.93-37.56,27.34-44.41,10.2
				c-6.09-15.25,16.72-15.46,27.41-14.77c-5.5-1.33-11.08-2.54-16.74-3.59c-18.36,7.51-66.7,8.93-53.63-11.95
				c11.38-18.19,42.43,1.02,52.85,8.22c6.39,1.16,12.7,2.51,18.9,4.02c-8.58-8.77-26.94-29.94-7.16-32.63
				c22.02-2.99,24.35,29.49,24.6,37.36c7.92,2.36,15.6,4.94,22.99,7.64c-11.9-10.83-34.18-34.43-12.47-42.51
				c26.17-9.75,31.65,41.78,32.38,50.37c12.05,5.1,23.01,10.35,32.52,15.26c-11.12-9.3-45.91-40.51-18.6-45.7
				c28.53-5.42,28.26,40.23,27.84,50.6c18.75,10.2,29.98,17.96,30.07,18.02L654.24,752.14z"/>
			<path class="st2" d="M654.24,752.14c-0.09-0.06-11.2-7.74-29.77-17.85c-2.31,1.46-6.94,4.3-12.62,7.23
				c1.15-4.94-0.25-10.06-2.85-14.86c0.43,0.07,0.86,0.14,1.28,0.22l-1.6-0.8c-1.15-2.03-2.5-3.99-3.95-5.85
				c4.28,2.06,8.36,4.09,12.19,6.07c-11.12-9.3-45.91-40.51-18.6-45.7c28.53-5.42,28.26,40.23,27.84,50.6
				c18.75,10.2,29.98,17.96,30.07,18.02L654.24,752.14L654.24,752.14z M551.41,689.48c6.48-1.6,21.33-3.98,30.53,4.6
				c-3.56-17.43-11.76-40.17-29.92-33.4C537.4,666.12,542.73,678.61,551.41,689.48z"/>
		</g>
		<path class="st1" d="M561.38,377.31c-0.08-0.09-9.66-11.36-26.44-27.32c-10.74,3.35-61.94,17.95-61.08-8.89
			c0.7-22.07,31.8-10.58,48.17-2.97c-7.77-6.9-16.54-14.28-26.19-21.76c-12.51,4.05-59.22,17.72-58-4.57
			c1.26-23.06,33.92-10.29,44.47-5.55c-8.47-6.1-17.49-12.16-26.97-17.96c-9.86,4.08-47.49,18.27-49.87-1.8
			c-2.12-17.87,22.09-11.62,33.19-7.85c-5.44-2.97-11.01-5.82-16.69-8.54c-21.55,2.74-73.1-9.46-53.35-27.85
			c17.2-16.02,44.61,13.11,53.58,23.67c6.43,3.04,12.72,6.26,18.85,9.61c-6.59-11.71-20.01-39.32,1.68-36.55
			c24.14,3.08,17.4,38.11,15.43,46.5c7.71,4.74,15.11,9.65,22.16,14.61c-9.52-14.83-26.41-46.12-1.15-48.52
			c30.46-2.89,21.65,53.18,19.98,62.47c11.31,8.81,21.41,17.47,30.09,25.36c-9.13-12.99-37.09-55.88-6.73-53.63
			c31.72,2.35,18.5,50.58,15.11,61.42c16.95,16.11,26.62,27.5,26.7,27.59L561.38,377.31z"/>
	</g>
	<path class="st1" d="M676.08,792.82l7.66-297.72c0,0-2.35-19.58,24.04-18.66c26.4,0.92,474.01,13.74,474.01,13.74
		s18.11,3.4,19.13,17.43c1.01,14.03-7.19,304.26-7.19,304.26L676.08,792.82z"/>
	<path class="st0" d="M955.88,488.03c2.46,0,4.46,2,4.46,4.46c0,2.46-2,4.46-4.46,4.46c-2.46,0-4.46-2-4.46-4.46
		C951.42,490.02,953.41,488.03,955.88,488.03z"/>
	<path class="st0" d="M695.38,755.83l6.29-244.34c0,0-2.05-17.04,20.92-16.24c22.97,0.8,442.88,15.78,442.88,15.78
		s15.76,2.96,16.64,15.17c0.75,10.39-4.31,194.8-5.83,249.57c-0.12,4.17-1.72,7.71-4.77,10.56c-3.05,2.84-6.7,4.19-10.87,4.02
		l-450.9-19.14C701.57,770.86,695.16,764.01,695.38,755.83z"/>
	<path class="st0" d="M964.48,711.95c0,0-67.01-28.24-163.3-46.48l-91.44,105.74c-12.46-11.71-23.83-12.08-32.89-8.49l6.88-267.61
		c0,0-2.35-19.58,24.04-18.66c11.15,0.39,97.49,2.9,193.49,5.67C913.9,559.94,926.52,641.91,964.48,711.95z"/>
	<path class="st0" d="M1137.18,488.91l44.61,1.28c0,0,18.11,3.4,19.12,17.43c0.7,9.74-3.03,152.61-5.39,239.06
		c-6.43-11.48-17.02-19.49-32.7,0.01C1142.06,772.53,1137.88,592.99,1137.18,488.91z"/>
	<path class="st3" d="M914.14,787.35c0,0,39.45-1.72,40.53,2.75c1.07,4.47,0.36,8.82-0.63,8.59c-0.98-0.23-39.72,0.69-40.44-1.49
		C912.89,795.02,912.98,787.35,914.14,787.35z"/>
	<path class="st0" d="M927.33,700.57l-27.15-76.89c-0.38-1.07-1.25-1.79-2.37-1.97c-11.26-1.76-22.53-3.39-33.77-4.88
		c-1.07-0.14-2.06,0.26-2.74,1.1c-0.68,0.84-0.85,1.9-0.47,2.91l27.78,75.46c0.38,1.02,1.2,1.71,2.26,1.91
		c11,2.06,22.02,4.16,33.05,6.3c1.09,0.21,2.12-0.15,2.84-0.99C927.49,702.69,927.69,701.61,927.33,700.57L927.33,700.57z
		 M928.97,701.01c-8.85-24.84-17.63-49.48-26.14-73.96c-0.36-1.03-0.16-2.09,0.55-2.93c0.71-0.83,1.72-1.2,2.8-1.02l33.84,5.83
		c1.12,0.19,1.99,0.94,2.34,2.02c8.45,25.73,17.43,51.69,26.68,77.94c0.37,1.05,0.16,2.13-0.56,2.97c-0.73,0.84-1.77,1.19-2.86,0.98
		l-33.27-6.67c-1.06-0.21-1.87-0.91-2.24-1.94L928.97,701.01L928.97,701.01z M897.43,615.77c0.35,1.02,0.16,2.07-0.53,2.9
		c-0.69,0.83-1.69,1.21-2.76,1.04c-11.28-1.74-22.54-3.34-33.78-4.8c-1.14-0.15-2.03-0.86-2.43-1.94
		c-9.17-24.85-18.23-49.58-26.98-74.22c-0.35-0.99-0.19-2.01,0.46-2.85c0.65-0.83,1.59-1.24,2.64-1.15
		c12.03,1.1,24.09,2.45,36.16,4.04c1.19,0.16,2.12,0.94,2.47,2.08C880.46,565.7,888.78,590.65,897.43,615.77L897.43,615.77z
		 M870.26,533.11c-7.59-24.58-14.62-49.02-20.87-73.37c-0.32-1.23-1.31-2.1-2.58-2.24c-13.44-1.49-26.87-2.64-40.27-3.44
		c-1.02-0.06-1.92,0.35-2.55,1.16c-0.63,0.81-0.8,1.78-0.49,2.76c7.79,24.29,16.09,48.65,24.72,73.1c0.4,1.14,1.37,1.89,2.57,1.99
		c12.06,1.05,24.13,2.36,36.22,3.91c1.04,0.13,2-0.24,2.68-1.05C870.37,535.12,870.57,534.11,870.26,533.11L870.26,533.11z
		 M847.45,452.08c0.25,0.98,0.02,1.94-0.65,2.7c-0.66,0.76-1.58,1.12-2.58,1.01c-13.49-1.45-26.98-2.56-40.43-3.3
		c-1.27-0.07-2.31-0.88-2.7-2.09c-7.65-24.18-14.88-48.2-20.82-72.76c-0.23-0.94-0.02-1.85,0.59-2.6c0.61-0.75,1.46-1.14,2.42-1.11
		c15.37,0.48,30.79,1.46,46.22,2.88c1.39,0.13,2.47,1.15,2.69,2.52C836.07,403.89,841.39,427.89,847.45,452.08L847.45,452.08z
		 M840.37,415.49c-2.46-11.44-4.62-22.89-6.46-34.36c-0.16-0.96,0.13-1.86,0.81-2.56c0.68-0.7,1.57-1.01,2.54-0.89l45.89,5.84
		c1.42,0.18,2.5,1.3,2.61,2.73c2,24.48,5.6,48.45,10.22,72.65c0.19,0.98-0.09,1.91-0.77,2.63c-0.69,0.72-1.6,1.04-2.59,0.9
		l-40.6-5.72c-1.23-0.17-2.19-1.03-2.49-2.24C846.22,441.46,843.16,428.46,840.37,415.49L840.37,415.49z M851.5,462.26
		c6.34,24.46,13.46,49.03,21.14,73.73c0.35,1.12,1.24,1.89,2.4,2.07l36.45,5.68c1.03,0.16,2-0.18,2.7-0.96
		c0.7-0.78,0.94-1.78,0.66-2.79c-6.67-24.64-12.55-49.09-17.39-73.4c-0.25-1.27-1.24-2.2-2.52-2.39l-40.12-5.68
		c-1.02-0.14-1.97,0.2-2.66,0.97C851.48,460.28,851.24,461.26,851.5,462.26L851.5,462.26z M875.1,543.89
		c-0.32-1.02-0.11-2.05,0.59-2.86c0.7-0.81,1.68-1.17,2.74-1.01l36.14,5.65c1.19,0.19,2.11,1,2.43,2.16
		c6.99,25.23,14.58,49.97,22.76,75.15c0.33,1.03,0.12,2.07-0.59,2.89c-0.71,0.82-1.71,1.18-2.78,0.99l-34-5.84
		c-1.11-0.19-1.96-0.92-2.33-1.98C891.35,593.84,882.95,568.79,875.1,543.89L875.1,543.89z M831.07,371.94
		c-3.53-24.18-5.69-48.46-6.47-72.87c-0.05-1.54-1.24-2.78-2.77-2.9c-17.72-1.35-35.45-2.15-53.12-2.32
		c-0.92-0.01-1.72,0.36-2.32,1.06c-0.6,0.7-0.83,1.55-0.66,2.46l12.89,72.7c0.25,1.38,1.37,2.39,2.77,2.47l46.53,2.82
		c0.93,0.06,1.76-0.28,2.39-0.96C830.94,373.71,831.2,372.86,831.07,371.94L831.07,371.94z M824.4,291.64
		c0.02,0.88-0.3,1.64-0.94,2.24c-0.64,0.6-1.41,0.88-2.29,0.81c-17.89-1.35-35.77-2.13-53.61-2.28c-1.52-0.01-2.78-1.14-2.96-2.66
		c-2.84-24.62-4.41-49.29-4.68-74.14c-0.02-1.65,1.31-3.02,2.97-3.03c20.4-0.23,40.87,0.32,61.34,1.57c0.84,0.05,1.55,0.4,2.09,1.04
		c0.55,0.64,0.79,1.39,0.71,2.23C824.78,242.23,823.89,266.9,824.4,291.64L824.4,291.64z M825.7,272.74
		c0.15-18.37,1.08-36.83,2.77-55.39c0.15-1.62,1.57-2.83,3.19-2.72c20.31,1.4,40.56,3.45,60.78,6.07c0.85,0.11,1.54,0.52,2.05,1.22
		c0.5,0.7,0.68,1.48,0.52,2.32c-4.74,24.79-8.01,49.52-9.73,74.42c-0.06,0.85-0.42,1.56-1.07,2.1c-0.65,0.54-1.41,0.77-2.26,0.68
		l-53.45-6.08c-1.5-0.17-2.63-1.41-2.66-2.92C825.69,285.89,825.64,279.32,825.7,272.74L825.7,272.74z M826.04,299.96
		c0.83,24.63,3.05,49.12,6.68,73.51c0.2,1.35,1.24,2.36,2.59,2.54l46.5,5.9c0.92,0.12,1.76-0.16,2.44-0.79
		c0.68-0.64,1-1.46,0.93-2.39c-1.64-24.13-1.77-48.34-0.38-72.69c0.09-1.59-1.07-2.97-2.66-3.15l-52.77-6.01
		c-0.9-0.1-1.71,0.16-2.38,0.78C826.34,298.27,826.01,299.06,826.04,299.96L826.04,299.96z M827.76,210.06
		c2.62-25.69,6.72-51.57,12.3-77.7c0.19-0.9,0-1.75-0.57-2.48c-0.57-0.72-1.35-1.12-2.27-1.15c-23.55-0.71-47.08-0.62-70.54,0.39
		c-1.5,0.06-2.7,1.2-2.86,2.69c-2.65,25.63-3.96,51.08-3.93,76.35c0,0.83,0.3,1.55,0.89,2.13c0.59,0.59,1.31,0.88,2.14,0.87
		c20.51-0.23,41.09,0.33,61.67,1.58C826.2,212.85,827.59,211.67,827.76,210.06L827.76,210.06z M841.12,127.45l0.28-1.27l1.38,0.3
		l-0.22,1.01c24.71,0.87,49.37,2.62,73.98,5.11c1.41,0.14,2.7-0.69,3.15-2.04l0.07-0.2l1.34,0.45l-0.73,2.19
		c25.89,2.7,51.68,6.22,77.27,10.4l-0.11,0.7l0.64,0.29c-41.82,93.61-64.32,188.85-56.79,288.42
		c7.31,96.68,39.46,196.76,72.93,290.6l-0.67,0.24l-0.15,0.69c-48.29-10.51-97.15-20.06-145.56-28.94
		c-19.8-3.63-39.66-7.62-59.79-12.3c-0.61-0.14-1.17-0.1-1.76,0.12l-0.42,0.16l-0.34-0.88l-40.21-10.34l0.26,0.64l-1.32,0.53
		l-0.11-0.28c-0.36-0.89-1.04-1.5-1.96-1.77c-13.81-3.93-27.83-8.28-42.12-13.14l0.23-0.67l-0.66,0.27
		c-31.94-78.71-76.48-157.18-124.51-230.07c-7.18-10.9-14.21-21.8-21.07-32.71l-0.32,0.07l-0.08-0.38c-0.08-0.36-0.2-0.65-0.39-0.96
		c-13.54-21.56-26.43-43.13-38.6-64.74l-2.3,0.72l-0.43-1.35l2.02-0.63c-11.92-21.23-23.39-42.95-33.95-64.58l-2.52,0.99l-0.52-1.32
		l2.42-0.95c-10.47-21.49-20.14-43.04-28.94-64.68l0.65-0.27l-0.29-0.65c20.28-9.16,41.21-17.48,62.71-24.93
		c1.49-0.52,2.33-2.09,1.92-3.62l-0.41-1.51l1.37-0.37l0.28,1.04c0.22,0.83,0.72,1.46,1.48,1.86c0.76,0.41,1.56,0.47,2.37,0.2
		c22.16-7.44,44.94-13.94,67.91-19.41l-0.24-1.77l1.4-0.19l0.22,1.63C686.19,131.18,762.15,124.77,841.12,127.45L841.12,127.45z
		 M841.71,131.37c-5.69,26.42-9.86,52.6-12.52,78.57c-0.09,0.84,0.15,1.59,0.69,2.24c0.54,0.65,1.25,1,2.09,1.06
		c20.43,1.41,40.8,3.48,61.14,6.12c1.57,0.2,3.02-0.83,3.33-2.38c5.3-26.15,12.27-52.53,20.89-79.21c0.29-0.89,0.17-1.78-0.34-2.57
		c-0.51-0.79-1.28-1.25-2.21-1.34c-23.28-2.33-46.63-3.98-70.01-4.86C843.29,128.94,842.02,129.93,841.71,131.37L841.71,131.37z
		 M660.14,526.14c10.74,0.41,21.58,0.75,32.47,1.07c1.09,0.03,2.04-0.47,2.62-1.39c0.58-0.92,0.63-1.99,0.14-2.97
		c-10.81-21.3-22.02-42.63-33.53-63.97c-0.58-1.07-1.67-1.66-2.88-1.57c-12.04,0.98-23.97,2.07-35.8,3.23
		c-1.06,0.1-1.93,0.7-2.4,1.66c-0.47,0.96-0.42,2.01,0.15,2.92c38.09,61.09,73.02,125.64,99.49,190.53
		c0.34,0.84,0.96,1.42,1.82,1.71c11.79,3.98,23.39,7.62,34.86,10.96c1.13,0.33,2.28,0,3.07-0.87c0.79-0.88,0.99-2.05,0.55-3.14
		c-8.48-20.75-17.53-41.56-27.08-62.41c-0.43-0.95-1.24-1.56-2.27-1.72c-12-1.85-24.07-3.88-36.24-6.15l0.26-1.39
		c10.47,1.96,20.87,3.74,31.21,5.37c1.13,0.18,2.2-0.26,2.88-1.18c0.68-0.92,0.79-2.06,0.29-3.09l-30.57-63.29
		c-0.5-1.04-1.47-1.66-2.62-1.69c-12.12-0.35-24.25-0.72-36.47-1.19L660.14,526.14L660.14,526.14z M701.05,527.45l34.55,0.97
		c1.06,0.03,1.99-0.45,2.58-1.34c0.59-0.89,0.67-1.93,0.24-2.9c-10.25-22.72-20.66-45.43-31.11-68.14
		c-0.53-1.15-1.66-1.82-2.92-1.74l-37.26,2.42c-1.05,0.07-1.92,0.62-2.43,1.54c-0.51,0.92-0.52,1.95-0.02,2.88
		c11.6,21.57,22.89,43.13,33.78,64.66C698.97,526.82,699.92,527.42,701.05,527.45L701.05,527.45z M713.79,529.22l-8.87-0.25
		c-1.08-0.03-2.02,0.47-2.6,1.37c-0.59,0.9-0.65,1.96-0.18,2.94l31.09,64.43c0.44,0.92,1.24,1.51,2.26,1.66
		c11.1,1.67,22.14,3.2,33.15,4.62c1.1,0.14,2.11-0.28,2.78-1.17c0.67-0.88,0.8-1.97,0.37-2.99c-9.73-22.71-19.76-45.42-29.97-68.13
		c-0.48-1.07-1.47-1.73-2.65-1.77C730.68,529.68,722.23,529.45,713.79,529.22L713.79,529.22z M743.83,528.66
		c11.66,0.36,23.35,0.76,35.09,1.26c1.05,0.05,1.97-0.41,2.58-1.26c0.61-0.86,0.73-1.88,0.34-2.85
		c-9.47-23.71-18.87-47.39-28.03-71.06c-0.46-1.19-1.55-1.93-2.83-1.92c-12.96,0.12-25.81,0.49-38.56,1.06
		c-1.03,0.05-1.89,0.56-2.43,1.44c-0.54,0.88-0.6,1.88-0.16,2.82c10.54,22.91,21.03,45.83,31.36,68.75
		C741.67,527.96,742.66,528.62,743.83,528.66L743.83,528.66z M787.02,530.31c-1.19-0.07-2.16-0.78-2.6-1.88
		c-9.54-23.86-19-47.67-28.22-71.45c-0.37-0.96-0.25-1.96,0.34-2.81c0.59-0.85,1.49-1.3,2.52-1.28l39.47,0.8
		c1.31,0.03,2.4,0.84,2.8,2.09c7.71,24.18,15.94,48.4,24.5,72.72c0.34,0.98,0.19,1.98-0.44,2.8c-0.62,0.83-1.54,1.25-2.58,1.19
		L787.02,530.31L787.02,530.31z M807.59,532.78c-5.75-0.34-11.5-0.65-17.23-0.92c-1.05-0.05-1.98,0.4-2.59,1.26
		c-0.61,0.86-0.73,1.88-0.34,2.86l28.82,72.17c0.42,1.05,1.32,1.74,2.44,1.87l33.43,3.91c1.07,0.12,2.04-0.28,2.71-1.13
		c0.66-0.84,0.83-1.89,0.46-2.89c-9.11-24.72-18.11-49.32-26.8-73.84c-0.4-1.14-1.38-1.89-2.58-1.99
		C819.79,533.57,813.68,533.14,807.59,532.78L807.59,532.78z M782.2,531.48c1.21,0.05,2.21,0.76,2.65,1.88l28.59,71.59
		c0.4,1.01,0.26,2.07-0.4,2.94c-0.66,0.86-1.65,1.28-2.73,1.16c-11.03-1.27-22.08-2.57-33.15-3.96c-1.09-0.14-1.96-0.79-2.39-1.8
		c-9.8-22.96-19.91-45.91-30.22-68.87c-0.44-0.97-0.35-2.01,0.24-2.9c0.59-0.89,1.52-1.36,2.59-1.33
		C758.97,530.55,770.58,530.96,782.2,531.48L782.2,531.48z M919.47,545.06c-1.17-0.21-2.05-1.02-2.36-2.16
		c-6.78-24.79-12.76-49.4-17.71-73.85c-0.2-1,0.08-1.95,0.79-2.69c0.71-0.73,1.66-1.04,2.66-0.86c13.19,2.28,26.36,4.83,39.49,7.6
		c1.26,0.26,2.17,1.24,2.35,2.51c11.6,80.53,38.06,163.14,66.05,242.01c0.37,1.05,0.16,2.15-0.57,2.99
		c-0.74,0.84-1.79,1.19-2.89,0.95c-11.1-2.39-22.17-4.73-33.2-7c-1.06-0.22-1.86-0.92-2.22-1.94
		c-9.31-26.35-18.36-52.41-26.88-78.24c-0.34-1.04-0.13-2.1,0.59-2.92c0.72-0.82,1.74-1.17,2.82-0.97
		c11.2,2.13,22.4,4.37,33.62,6.74l0.29-1.38c-12.55-2.65-25.11-5.15-37.66-7.5c-1.11-0.21-1.95-0.95-2.3-2.02
		c-8.27-25.34-15.94-50.17-23.02-75.46c-0.29-1.03-0.05-2.04,0.67-2.83c0.72-0.79,1.71-1.12,2.76-0.93
		c12.22,2.23,24.43,4.66,36.62,7.27l0.3-1.39C946.28,550.12,932.88,547.47,919.47,545.06L919.47,545.06z M503.35,260.34
		c17-6.54,34.46-12.5,52.33-17.84c0.82-0.24,1.43-0.76,1.82-1.52c0.39-0.76,0.44-1.56,0.15-2.36
		c-7.51-21.17-14.26-42.42-20.18-63.75c-0.23-0.83-0.74-1.46-1.5-1.85c-0.76-0.4-1.57-0.46-2.38-0.18
		c-20.14,6.99-39.77,14.75-58.85,23.25c-1.48,0.66-2.17,2.38-1.55,3.88c8.09,19.69,16.91,39.31,26.38,58.88
		C500.25,260.26,501.89,260.9,503.35,260.34L503.35,260.34z M562.78,240.41c18.64-5.37,37.7-10.04,56.86-13.96
		c0.82-0.17,1.47-0.61,1.92-1.32c0.45-0.71,0.59-1.48,0.4-2.3c-5.22-22.77-9.5-45.65-12.8-68.63c-0.12-0.87-0.56-1.57-1.29-2.06
		c-0.73-0.49-1.54-0.64-2.39-0.43c-21.93,5.32-43.67,11.59-64.84,18.71c-1.51,0.51-2.36,2.11-1.94,3.65
		c5.98,21.57,12.8,43.05,20.41,64.46C559.65,240.03,561.25,240.85,562.78,240.41L562.78,240.41z M605.31,230.97
		c-14.12,3.18-28.02,6.74-41.68,10.67c-0.83,0.24-1.45,0.75-1.85,1.52c-0.39,0.77-0.44,1.58-0.15,2.39
		c7.93,21.81,16.7,43.59,26.08,64.99c0.57,1.3,1.93,2.02,3.33,1.74l49.56-9.77c0.87-0.17,1.55-0.66,2.01-1.42
		c0.45-0.77,0.54-1.6,0.27-2.44c-7.29-22.64-13.75-45.58-19.23-68.6c-0.38-1.57-1.93-2.57-3.52-2.25
		C615.17,228.81,610.23,229.87,605.31,230.97L605.31,230.97z M556.47,243.74c-17.76,5.3-35.11,11.21-52.01,17.69
		c-0.82,0.31-1.4,0.89-1.72,1.71c-0.32,0.81-0.28,1.64,0.1,2.42c9.83,19.96,20.41,39.99,31.38,59.6c0.7,1.25,2.13,1.82,3.5,1.4
		c15.03-4.63,30.4-8.86,46.08-12.65c0.89-0.22,1.57-0.76,1.98-1.58c0.41-0.82,0.43-1.69,0.06-2.54
		c-9.24-21.16-17.87-42.65-25.7-64.2C559.6,244.09,557.99,243.28,556.47,243.74L556.47,243.74z M626.89,225.01
		c19.57-3.8,39.52-6.86,59.8-9.14c1.64-0.18,2.83-1.67,2.65-3.31c-2.68-24.04-4.24-48.22-4.64-72.54c-0.01-0.89-0.37-1.66-1.05-2.24
		c-0.68-0.58-1.49-0.81-2.38-0.68c-23.27,3.37-46.13,7.68-68.51,12.89c-1.52,0.35-2.51,1.8-2.29,3.35
		c3.31,23.24,7.64,46.37,12.92,69.4C623.75,224.31,625.3,225.32,626.89,225.01L626.89,225.01z M694.04,215.08
		c20.5-2.11,40.83-3.36,61.49-3.79c1.63-0.03,2.94-1.37,2.94-3c-0.03-25,1.24-50.16,3.83-75.5c0.09-0.9-0.19-1.72-0.81-2.37
		c-0.63-0.66-1.42-0.98-2.33-0.93c-23.63,1.22-47.08,3.4-70.46,6.57c-1.51,0.21-2.62,1.49-2.6,3.02
		c0.38,24.59,1.95,49.04,4.66,73.35C690.93,214.06,692.41,215.25,694.04,215.08L694.04,215.08z M718.46,214.38
		c-8.11,0.57-16.17,1.27-24.18,2.09c-0.83,0.08-1.52,0.46-2.04,1.11c-0.52,0.65-0.74,1.4-0.63,2.23
		c2.93,24.23,7.02,48.38,12.17,72.28c0.32,1.47,1.65,2.47,3.16,2.36c17.76-1.34,35.33-2.04,53.19-2.07c0.88,0,1.65-0.34,2.23-1.01
		c0.59-0.66,0.84-1.46,0.74-2.34c-2.78-24.37-4.32-48.79-4.59-73.38c-0.01-0.83-0.32-1.54-0.91-2.12c-0.6-0.58-1.32-0.86-2.15-0.84
		C743.09,212.96,730.75,213.52,718.46,214.38L718.46,214.38z M686.88,217.27c-20.16,2.27-39.99,5.31-59.44,9.07
		c-0.83,0.16-1.49,0.61-1.95,1.32s-0.59,1.5-0.4,2.32c5.54,23.24,12.07,46.37,19.46,69.21c0.46,1.41,1.85,2.27,3.31,2.04
		c16.95-2.61,34.18-4.69,51.65-6.18c0.89-0.08,1.63-0.49,2.16-1.2c0.53-0.72,0.71-1.54,0.52-2.42c-5.07-23.66-9.1-47.56-12-71.54
		C690,218.26,688.51,217.09,686.88,217.27L686.88,217.27z M900.46,220.34c18.81,2.57,37.56,5.62,56.19,9.07l-0.26,1.39
		c-18.76-3.47-37.63-6.54-56.57-9.12c-1.58-0.22-3.05,0.84-3.35,2.41c-4.8,25.03-8.1,49.99-9.82,75.14c-0.11,1.57,1,2.94,2.55,3.17
		c17.52,2.61,35,5.68,52.38,9.13l-0.27,1.39c-17.15-3.4-34.39-6.43-51.68-9.02c-0.86-0.13-1.66,0.09-2.34,0.64
		c-0.68,0.55-1.05,1.29-1.1,2.16c-1.38,24.63-1.21,49.13,0.52,73.53c0.1,1.41,1.13,2.53,2.52,2.75c15.29,2.45,30.54,5.26,45.73,8.38
		c0.91,0.19,1.76-0.02,2.49-0.6c0.72-0.58,1.11-1.37,1.12-2.3c1.01-82.44,21.97-162.06,56.37-240.24c0.39-0.88,0.35-1.8-0.11-2.64
		c-0.46-0.84-1.21-1.38-2.16-1.53c-23.31-3.73-46.78-6.9-70.33-9.4c-1.43-0.15-2.73,0.69-3.17,2.06
		c-8.77,26.97-15.86,53.64-21.23,80.07c-0.17,0.84,0,1.63,0.49,2.33C898.91,219.8,899.61,220.22,900.46,220.34L900.46,220.34z
		 M630.4,305.57c-12.7,2.26-25.23,4.83-37.58,7.66c-0.9,0.21-1.6,0.75-2.01,1.59c-0.41,0.83-0.43,1.71-0.06,2.56
		c9.67,21.68,20.1,43.3,31.23,64.86c0.59,1.15,1.8,1.77,3.08,1.6l43.03-5.97c0.95-0.13,1.71-0.65,2.19-1.48
		c0.48-0.83,0.54-1.75,0.17-2.64c-9.31-22.62-17.75-45.32-25.29-68.11c-0.47-1.41-1.86-2.26-3.33-2.02
		C638.01,304.25,634.19,304.9,630.4,305.57L630.4,305.57z M585.44,314.97c-15.56,3.74-30.81,7.91-45.74,12.47
		c-0.9,0.27-1.56,0.88-1.91,1.76c-0.35,0.87-0.29,1.77,0.18,2.59c11.31,19.95,23.24,39.88,35.73,59.81
		c0.68,1.09,1.92,1.61,3.17,1.34c13.31-2.86,26.84-5.5,40.58-7.87c0.97-0.17,1.74-0.73,2.18-1.62c0.44-0.88,0.44-1.83-0.02-2.71
		c-10.95-21.3-21.21-42.65-30.73-64.07C588.29,315.33,586.86,314.63,585.44,314.97L585.44,314.97z M729.94,294.5
		c10.33-0.46,20.69-0.69,31.07-0.7c1.52,0,2.79,1.12,2.98,2.63c3.02,24.22,7.28,48.32,12.74,72.31c0.21,0.91,0.01,1.79-0.57,2.52
		c-0.58,0.74-1.38,1.13-2.32,1.15l-46.08,0.63c-1.34,0.02-2.49-0.81-2.9-2.09c-7.57-23.72-14.07-47.55-19.46-71.5
		c-0.2-0.88-0.02-1.72,0.52-2.45c0.54-0.73,1.29-1.14,2.19-1.21C715.35,295.26,722.62,294.83,729.94,294.5L729.94,294.5z
		 M700.61,296.39c-17.37,1.46-34.48,3.49-51.32,6.06c-0.9,0.14-1.63,0.62-2.11,1.4c-0.48,0.78-0.58,1.64-0.29,2.51
		c7.64,23,16.2,45.91,25.64,68.74c0.52,1.25,1.75,1.98,3.09,1.84c14.68-1.57,29.54-2.78,44.58-3.59c0.96-0.05,1.76-0.5,2.31-1.29
		c0.55-0.79,0.68-1.7,0.39-2.61c-7.42-23.46-13.81-47.03-19.11-70.72C703.46,297.25,702.12,296.26,700.61,296.39L700.61,296.39z
		 M659.86,380.18c-10.79,1.35-21.48,2.89-32.05,4.59c-0.99,0.16-1.77,0.74-2.22,1.64c-0.44,0.9-0.42,1.87,0.06,2.75l35.15,64.82
		c0.57,1.05,1.64,1.64,2.83,1.56l37.81-2.48c1.02-0.07,1.86-0.58,2.38-1.46c0.52-0.88,0.57-1.87,0.15-2.79
		c-10.4-22.55-21.02-45.22-30.61-68.06c-0.52-1.25-1.76-1.97-3.1-1.82C666.79,379.34,663.32,379.75,659.86,380.18L659.86,380.18z
		 M620.05,386.06c-13.6,2.3-27.01,4.88-40.19,7.68c-1,0.21-1.76,0.84-2.15,1.78c-0.39,0.94-0.3,1.92,0.25,2.78l40.03,62.15
		l-0.08-0.81c12.45-1.24,25.02-2.41,37.69-3.47c1.04-0.09,1.9-0.64,2.39-1.56c0.5-0.92,0.5-1.94,0-2.86l-34.79-64.17
		C622.57,386.43,621.34,385.84,620.05,386.06L620.05,386.06z M750.79,373.68c-6.98,0.11-13.93,0.32-20.84,0.61
		c-0.97,0.04-1.79,0.49-2.34,1.29c-0.55,0.8-0.69,1.72-0.38,2.65c7.9,24.01,16.94,47.63,26.08,71.29c0.45,1.16,1.5,1.9,2.74,1.92
		l39.99,0.79c1,0.02,1.86-0.4,2.46-1.2c0.6-0.8,0.76-1.75,0.46-2.7c-7.57-24.01-14.68-47.86-20.52-72.28
		c-0.32-1.35-1.47-2.27-2.86-2.3C767.3,373.57,759.03,373.54,750.79,373.68L750.79,373.68z M722.24,374.65
		c-14.92,0.77-29.68,1.94-44.25,3.46c-0.98,0.1-1.77,0.61-2.27,1.46c-0.5,0.85-0.56,1.79-0.18,2.69
		c9.74,23.02,20.48,45.88,30.95,68.61c0.52,1.13,1.62,1.8,2.87,1.74c12.84-0.6,25.79-1.01,38.84-1.17c1.01-0.01,1.88-0.48,2.45-1.32
		c0.57-0.84,0.68-1.82,0.32-2.76c-9.05-23.45-17.93-46.81-25.71-70.65C724.82,375.41,723.61,374.58,722.24,374.65L722.24,374.65z
		 M779.03,372.4l52.58,3.19C814.06,373.93,796.52,372.84,779.03,372.4L779.03,372.4z M938.53,392.86l-0.13,0.65
		c-15.81-3.3-31.69-6.28-47.62-8.85c-0.94-0.15-1.82,0.11-2.52,0.76c-0.7,0.65-1.03,1.5-0.95,2.45
		c2.09,24.69,5.82,48.92,10.55,73.36c0.24,1.25,1.19,2.17,2.44,2.39c13.27,2.26,26.52,4.78,39.73,7.54c0.98,0.2,1.92-0.06,2.66-0.74
		c0.74-0.68,1.06-1.6,0.93-2.59C940.29,442.72,938.44,418.22,938.53,392.86L938.53,392.86z M766.21,670.9l33.11,8.55
		c1.12,0.29,2.23-0.05,3-0.92c0.77-0.86,0.97-2.01,0.55-3.09c-8.84-22.57-18.12-45.13-27.71-67.69c-0.43-1.01-1.29-1.67-2.38-1.8
		c-10.86-1.38-21.75-2.86-32.69-4.47c-1.12-0.16-2.16,0.26-2.84,1.16c-0.68,0.9-0.8,2.02-0.33,3.05
		c9.63,21.2,18.76,42.35,27.27,63.42C764.55,670.03,765.26,670.66,766.21,670.9L766.21,670.9z M808.22,681.67
		c11.02,2.56,21.95,4.92,32.83,7.12c1.1,0.22,2.15-0.14,2.88-1c0.73-0.85,0.92-1.95,0.52-3c-9.06-24.06-18.41-48.06-27.88-72.01
		c-0.42-1.06-1.32-1.75-2.45-1.88c-10.94-1.25-21.88-2.53-32.85-3.89c-1.09-0.13-2.1,0.29-2.76,1.17c-0.66,0.88-0.8,1.96-0.37,2.98
		c9.7,22.89,19.06,45.78,27.96,68.67C806.47,680.79,807.22,681.44,808.22,681.67L808.22,681.67z M849.64,690.49
		c-1.06-0.2-1.88-0.88-2.26-1.89c-9.12-24.31-18.52-48.51-28.04-72.63c-0.4-1.01-0.25-2.07,0.41-2.93c0.66-0.86,1.65-1.28,2.73-1.15
		l33.21,3.89c1.15,0.14,2.07,0.86,2.47,1.94l27.59,74.93c0.38,1.04,0.19,2.13-0.52,2.97c-0.72,0.85-1.75,1.22-2.85,1.01
		L849.64,690.49z"/>
	<g>
		<path class="st1" d="M736.66,717.01c28.59,56.55,224.4,89.99,222.16,54.32c-103.84-101.29-111.37-319.26-104.2-402.36
			c38.2-10.41,74.52-34.72,64.43-80.48c-11.84-53.76-227.57-27.96-333.07-10.34C444.09,301.86,595.27,671.49,736.66,717.01z"/>
		<path class="st1" d="M736.66,717.01c13.68,27.06,65.64,48.82,115.88,60.26l98.75,4.19c5.06-2.38,7.81-5.72,7.53-10.12
			c-46.29-45.16-73.43-113.5-88.67-182.74c-22.27,23.62-71.36,59.82-129.58,4.05c0,0-16.5,10.22-41.47,18.31l-2.19,85.26
			C710.08,705.63,723.41,712.75,736.66,717.01z"/>
		<path class="st1" d="M854.63,368.98c89.74,12.4,78.3-87.39,46.14-95.35C878.14,268.03,845.97,297.52,854.63,368.98z"/>
		<path class="st1" d="M900.77,273.63c0,0,23.45,10.64,20.99,40.46c-2.46,29.82-41.07,51.94-46.59,33.95
			c-5.51-17.99,17.57-28.8,21.47-18.41c0,0-2.94-17.73-15.11-15.07v-0.01c-42.69,9.37-27.26,61.02,3.62,54.17
			c16.95-3.76,35.16-14.52,42.76-36.45C937.39,304.92,922.54,274.14,900.77,273.63z"/>
	</g>
	<g>
		<path class="st2" d="M558.25,393.31c0,0,274.52-11.12,275.89-6c1.37,5.13,3.72,160.74,37.68,243.57c0,0,11.54,12.85-11.67,11.49
			c-23.21-1.36-199.82-0.6-199.82-0.6S563.05,505.34,558.25,393.31z"/>
		<path class="st4" d="M861.78,601.39c3,10.51,6.33,20.43,10.05,29.49c0,0,11.54,12.85-11.67,11.49
			c-23.21-1.36-199.82-0.6-199.82-0.6s-5.86-8.22-14.76-22.26c55.13,0.93,101.87-28.01,101.87-28.01
			C794.75,636.81,836.02,621.42,861.78,601.39z"/>
		<path class="st5" d="M814.34,395.01l10.93-0.43c0.58-0.02,1.09,0.36,1.22,0.93l2.22,9.68c0.15,0.64-0.26,1.29-0.9,1.44l-1.11,0.25
			c-0.64,0.15-1.29-0.26-1.44-0.9l-0.8-3.47c-0.1-0.45-0.43-0.79-0.88-0.9c-0.45-0.11-0.9,0.03-1.2,0.39l-5.82,6.82
			c-0.43,0.5-1.19,0.56-1.69,0.13l-0.86-0.74c-0.5-0.43-0.56-1.19-0.13-1.69l5.24-6.14c0.32-0.37,0.38-0.86,0.17-1.3
			c-0.21-0.44-0.64-0.69-1.13-0.67l-3.67,0.14c-0.66,0.03-1.22-0.49-1.25-1.15l-0.05-1.14c-0.01-0.33,0.09-0.62,0.32-0.86
			C813.73,395.15,814.01,395.02,814.34,395.01z"/>
		<path class="st6" d="M786.81,413.64c0.04,1.39,0.08,2.78,0.13,4.17l0.01,0.25c0.03,0.99-0.75,1.82-1.74,1.85l-0.25,0.01
			c-13.73,0.48-27.46,0.99-41.19,1.5l-0.25,0.01c-0.5,0.02-0.94-0.15-1.3-0.49c-0.36-0.34-0.55-0.77-0.57-1.27l-0.01-0.25
			c-0.04-1.95-0.27-5.03,0.9-6.68c0.73-1.03,2.25-1.06,3.38-1.16c1.56-0.14,3.14-0.22,4.7-0.29c4.61-0.21,9.24-0.32,13.85-0.38
			c4.49-0.06,9.02-0.08,13.51,0.06c1.71,0.05,6.71,0.06,8.06,1.15l0.09,0.07c0.42,0.34,0.65,0.8,0.67,1.35L786.81,413.64z"/>
		<path class="st6" d="M733.69,414.81c0.03,1.65,0,3.3,0.03,4.95l0.01,0.24c0.02,0.98-0.76,1.8-1.74,1.83l-0.24,0.01
			c-15.7,0.53-31.41,0.98-47.12,1.26l-0.25,0c-0.5,0.01-0.93-0.16-1.28-0.51c-0.36-0.34-0.54-0.77-0.55-1.27l0-0.25
			c-0.04-2.36-0.43-6.09,1.83-7.57c1.07-0.7,7.11-0.67,8.46-0.71c5.23-0.15,10.47-0.25,15.71-0.32c5.2-0.07,10.4-0.12,15.6-0.07
			c1.6,0.02,7.54-0.17,8.79,0.83l0.09,0.07c0.43,0.35,0.66,0.82,0.67,1.37L733.69,414.81z"/>
		<path class="st6" d="M809.93,433.4c0.07,1.39,0.13,2.78,0.2,4.17l0.01,0.25c0.02,0.5-0.13,0.93-0.47,1.3
			c-0.34,0.37-0.76,0.56-1.26,0.58l-0.25,0.01c-12.11,0.48-24.21,1.02-36.32,1.6l-0.25,0.01c-0.5,0.02-0.93-0.13-1.3-0.47
			c-0.37-0.33-0.56-0.75-0.59-1.25l-0.01-0.25c-0.08-1.74-0.16-3.48-0.23-5.22l-0.01-0.25c-0.04-0.99,0.72-1.83,1.71-1.88l0.25-0.01
			c6.07-0.29,12.13-0.56,18.2-0.74c3.66-0.11,7.33-0.19,11-0.18c2.38,0.01,5.28-0.01,7.61,0.38l0.2,0.03
			c0.84,0.14,1.46,0.84,1.5,1.69L809.93,433.4z"/>
		<path class="st6" d="M765.74,435.39c0.06,1.39,0.12,2.78,0.18,4.17l0.01,0.25c0.04,0.99-0.72,1.83-1.71,1.88l-0.25,0.01
			c-38.07,1.87-76.15,3.51-114.27,4l-0.24,0c-0.96,0.01-1.76-0.73-1.82-1.69l-0.01-0.24c-0.14-2.33-0.74-6.05,1.5-7.57
			c0.89-0.61,4.97-0.54,6.04-0.57c4.29-0.15,8.58-0.28,12.87-0.41c12.96-0.39,25.92-0.74,38.88-1.07
			c12.87-0.32,25.75-0.62,38.62-0.81c4.31-0.06,8.62-0.12,12.93-0.11c1.31,0,5.36-0.19,6.43,0.61l0.09,0.07
			c0.45,0.33,0.7,0.81,0.73,1.37L765.74,435.39z"/>
		<path class="st6" d="M642.02,445.79c-17.09,0.19-34.18,0.38-51.26,0.78l-0.24,0.01c-0.98,0.02-1.79-0.74-1.84-1.72l-0.01-0.24
			c-0.12-2.65-0.75-6.8,2.36-7.99c1.52-0.58,7.38-0.65,9.13-0.71c5.55-0.2,11.11-0.31,16.67-0.4c5.72-0.09,11.44-0.15,17.17-0.14
			c1.43,0,7.07-0.26,8.96,0.47c0.68,0.26,1.12,0.87,1.15,1.6l0,0.11c0.09,2.02-0.15,4.08-0.06,6.09l0.01,0.26
			c0.02,0.51-0.14,0.95-0.49,1.32c-0.35,0.37-0.78,0.56-1.29,0.56L642.02,445.79z"/>
		<path class="st6" d="M772.77,461.12c0.07,1.38,0.15,2.76,0.22,4.14l0.01,0.25c0.03,0.5-0.13,0.93-0.46,1.3
			c-0.33,0.37-0.75,0.57-1.25,0.59l-0.25,0.01c-16.1,0.79-32.19,1.6-48.29,2.34l-0.24,0.01c-0.98,0.04-1.82-0.71-1.88-1.69
			l-0.02-0.24c-0.11-1.72-0.22-3.44-0.32-5.17l-0.02-0.25c-0.03-0.5,0.12-0.94,0.46-1.31c0.33-0.37,0.76-0.57,1.26-0.6l0.25-0.01
			c7.91-0.37,15.84-1.02,23.76-1.44c3.88-0.2,23.18-1.55,25.94,0.52l0.09,0.07c0.44,0.33,0.69,0.8,0.72,1.35L772.77,461.12z"/>
		<path class="st4" d="M711.42,464.02c0.09,1.37,0.17,2.75,0.26,4.12l0.02,0.26c0.03,0.5-0.12,0.95-0.46,1.32
			c-0.34,0.37-0.76,0.57-1.27,0.59l-0.25,0.01c-25.91,1-51.84,1.46-77.77,1.83l-0.24,0c-0.97,0.01-1.77-0.74-1.82-1.7l-0.01-0.24
			c-0.16-2.84-0.81-7.25,2.86-8.13c1.1-0.27,3.25-0.23,4.41-0.26c2.92-0.07,5.84-0.09,8.75-0.1c8.46-0.05,16.91-0.03,25.37,0.01
			c8.72,0.04,17.44,0.1,26.15,0.18c2.89,0.03,5.77,0.06,8.66,0.1c1.01,0.02,3.67-0.14,4.51,0.48l0.09,0.07
			c0.45,0.33,0.7,0.79,0.74,1.34L711.42,464.02z"/>
		<path class="st4" d="M597.92,463.47c4.95-0.11,23.09-1.96,26.34,1.12l0.07,0.07c0.35,0.33,0.53,0.73,0.56,1.21l0.01,0.1
			c0.13,2.37,0.38,5.61-2.26,6.74c-0.88,0.38-11.09,0.28-12.51,0.29c-2.68,0.02-5.37,0.04-8.05,0.05c-1.1,0-3.46,0.27-4.76-0.4
			c-0.38-0.2-0.65-0.49-0.82-0.88c-0.65-1.51-0.49-4.65-0.57-6.13l-0.01-0.25c-0.02-0.5,0.14-0.95,0.48-1.32
			c0.34-0.37,0.77-0.56,1.28-0.57L597.92,463.47z"/>
		<path class="st6" d="M786.64,493.22c-0.11-1.73-0.21-3.45-0.32-5.18l-0.02-0.25c-0.03-0.5,0.12-0.94,0.45-1.31
			c0.33-0.37,0.75-0.57,1.25-0.6l0.25-0.01c9.58-0.47,19.15-0.91,28.73-1.3l0.24-0.01c0.98-0.04,1.82,0.72,1.87,1.7l0.31,5.7
			c0.03,0.5-0.13,0.94-0.47,1.31c-0.34,0.37-0.76,0.57-1.26,0.59l-0.25,0.01c-9.56,0.39-19.11,0.81-28.66,1.28l-0.24,0.01
			c-0.98,0.05-1.82-0.71-1.88-1.69L786.64,493.22z"/>
		<path class="st6" d="M693.66,497.92c-0.14-1.7-0.29-3.41-0.43-5.11l-0.02-0.26c-0.04-0.51,0.11-0.96,0.44-1.34
			c0.34-0.38,0.77-0.59,1.28-0.61l0.26-0.01c5.33-0.22,10.69-0.61,16.02-0.93c8.9-0.54,17.8-1.07,26.7-1.56
			c9.76-0.53,19.55-1.04,29.33-1.3c2.55-0.07,13.89-0.61,15.88,0.82l0.09,0.07c0.45,0.33,0.71,0.79,0.75,1.35l0.01,0.12
			c0.09,1.38,0.18,2.76,0.26,4.14l0.02,0.25c0.03,0.5-0.12,0.94-0.45,1.31c-0.33,0.37-0.75,0.58-1.25,0.6l-0.25,0.01
			c-28.83,1.49-57.65,3.12-86.49,4.32l-0.24,0.01c-0.96,0.04-1.79-0.69-1.87-1.65L693.66,497.92z"/>
		<path class="st4" d="M686.68,493.9c0.11,1.36,0.23,2.72,0.34,4.09l0.02,0.26c0.04,0.51-0.11,0.96-0.45,1.35
			c-0.34,0.38-0.77,0.59-1.28,0.6l-0.26,0.01c-24.76,0.87-49.54,1.42-74.3,2.23l-0.24,0.01c-0.97,0.03-1.79-0.71-1.85-1.68
			l-0.02-0.24c-0.14-2.15-0.67-5.62,1.05-7.26c0.91-0.87,3.46-0.75,4.64-0.79c2.79-0.11,5.59-0.17,8.38-0.24
			c8.37-0.19,16.75-0.3,25.13-0.4c8.33-0.09,16.67-0.16,25.01-0.13c2.8,0.01,5.61,0.02,8.41,0.09c1.13,0.03,3.69-0.06,4.61,0.65
			l0.09,0.07c0.42,0.32,0.66,0.76,0.7,1.28L686.68,493.9z"/>
		<path class="st4" d="M734.71,519.62c-0.14-1.71-0.27-3.42-0.41-5.13l-0.02-0.25c-0.04-0.5,0.11-0.95,0.44-1.33
			c0.33-0.38,0.76-0.59,1.26-0.61l0.26-0.01c29.46-1.47,58.92-2.9,88.39-4.14l0.24-0.01c0.98-0.04,1.82,0.72,1.87,1.7l0.31,5.7
			c0.03,0.5-0.13,0.94-0.47,1.31c-0.34,0.37-0.76,0.57-1.26,0.59l-0.25,0.01c-29.42,1.24-58.83,2.61-88.23,4.06l-0.24,0.01
			c-0.97,0.05-1.81-0.69-1.88-1.65L734.71,519.62z"/>
		<path class="st6" d="M729.01,515.64c0.11,1.36,0.23,2.73,0.34,4.1l0.02,0.26c0.04,0.51-0.11,0.96-0.44,1.34
			c-0.33,0.38-0.76,0.59-1.27,0.61l-0.26,0.01c-33.81,1.58-67.64,2.66-101.47,3.88l-0.24,0.01c-0.97,0.04-1.79-0.71-1.86-1.68
			l-0.02-0.24c-0.12-1.73-0.23-3.45-0.35-5.17l-0.02-0.26c-0.03-0.5,0.12-0.95,0.46-1.33c0.34-0.38,0.77-0.57,1.27-0.59l0.26-0.01
			c16.83-0.58,33.66-1.19,50.49-1.73c10.8-0.34,21.61-0.67,32.42-0.92c3.97-0.09,7.94-0.17,11.91-0.21
			c2.24-0.02,4.61-0.08,6.84,0.06l0.22,0.01c0.9,0.06,1.61,0.75,1.68,1.65L729.01,515.64z"/>
		<path class="st6" d="M705.5,541.44c0.09,1.37,0.18,2.75,0.27,4.12l0.02,0.26c0.03,0.51-0.13,0.95-0.47,1.33
			c-0.34,0.37-0.77,0.57-1.28,0.58l-0.26,0.01c-22.73,0.58-45.47,0.46-68.21,1.05l-0.25,0.01c-0.99,0.03-1.82-0.76-1.85-1.75
			l-0.01-0.25c-0.07-2.39-0.59-6.36,1.72-7.86c0.81-0.52,3.11-0.36,4.05-0.36c2.54-0.01,5.09,0,7.63,0.01
			c7.68,0.02,15.36,0.07,23.04,0.14c7.61,0.07,15.22,0.15,22.82,0.31c1.74,0.04,10.71-0.08,12,0.94l0.09,0.07
			c0.41,0.33,0.64,0.77,0.68,1.29L705.5,541.44z"/>
		<path class="st6" d="M676.5,414.7c0.04,2.72-0.14,6.37-3.33,7.29c-2.54,0.74-8.43,0.72-11.14,0.8
			c-6.41,0.19-12.84,0.26-19.25,0.31c-5.84,0.05-11.67,0.08-17.51,0.12c-3.72,0.03-7.49,0.01-11.21,0.16l-0.24,0.01
			c-0.97,0.04-1.77-0.72-1.8-1.7l-0.01-0.24c-0.06-2.28-0.58-6,1.55-7.56c1.24-0.91,9.15-0.85,10.75-0.9
			c6.78-0.2,13.56-0.32,20.33-0.42c6.76-0.1,13.53-0.17,20.3-0.15c2.28,0.01,4.57,0.02,6.85,0.09c1.1,0.03,3.16-0.04,4.02,0.7
			l0.08,0.07c0.39,0.34,0.6,0.78,0.6,1.3L676.5,414.7z"/>
	</g>
	<g>
		<path class="st2" d="M543.47,339.91c0.68-0.04,237.18-15.09,280.86-9.47c0.54,0.01,8.48,0.36,9.05,11
			c0.31,5.82-0.01,12.48-1.47,17.71c-1.2,4.27-3.17,7.63-6.21,8.89c-3.53,1.47-84.02,5.92-157.59,9.16
			c-61.91,2.73-119,4.57-121.42,3.04c-2.91-1.86-5.84-13.52-6.73-23.72c-0.28-3.21-0.36-6.28-0.19-8.86
			c0.18-2.65,0.64-4.83,1.44-6.16c0.56-0.94,1.3-1.49,2.23-1.57L543.47,339.91L543.47,339.91z M824.22,331.85
			c-43.42-5.62-279.98,9.43-280.66,9.47c-0.45,0.05-0.84,0.37-1.16,0.91c-0.68,1.12-1.07,3.08-1.24,5.52
			c-0.17,2.51-0.09,5.51,0.18,8.64c0.85,9.86,3.51,21.02,6.08,22.65c2.15,1.37,58.93-0.54,120.62-3.25
			c73.46-3.23,153.74-7.64,157.13-9.05c2.59-1.08,4.32-4.1,5.41-7.98c1.42-5.06,1.72-11.54,1.42-17.23
			c-0.52-9.65-7.68-9.65-7.7-9.65L824.22,331.85z"/>
		<path class="st2" d="M550.07,349.42c-0.14,7.59-0.06,15.06,0.46,22.59c0.03,0.43,0.29,0.79,0.66,1.07
			c0.37,0.28,0.78,0.32,1.23,0.35c13.3,0.74,17.07-8.16,4.47-13.74c11.27,2.72,14.44-14.31-5.61-11.38
			C550.64,348.4,550.08,348.79,550.07,349.42z"/>
		<path class="st2" d="M583.19,353.5l-3.09,13.15c-0.12,0.53-0.55,0.86-1.14,0.89l-3.47,0.19c-0.63,0.03-1.08,0.42-1.16,1
			l-0.04,0.33c-0.06,0.46,0.11,0.93,0.5,1.31c0.39,0.38,0.87,0.57,1.37,0.54l13.02-0.84c0.64-0.04,1.08-0.45,1.15-1.04l0.02-0.23
			c0.05-0.46-0.13-0.91-0.51-1.28c-0.38-0.37-0.85-0.56-1.34-0.54l-1.2,0.06c-0.52,0.03-1.03-0.19-1.41-0.6
			c-0.38-0.41-0.53-0.9-0.42-1.37l3.03-12.46c0.12-0.49,0.5-0.81,1.04-0.88l5-0.6c0.59-0.07,0.99-0.45,1.06-1.01l0.22-1.74
			c0.06-0.47-0.13-0.94-0.52-1.32c-0.4-0.38-0.89-0.56-1.39-0.52l-14.95,1.35c-0.63,0.06-1.06,0.47-1.11,1.07l-0.07,0.91
			c-0.04,0.46,0.15,0.91,0.54,1.28c0.39,0.36,0.87,0.54,1.36,0.51l1.65-0.12c0.52-0.04,1.04,0.17,1.43,0.58
			C583.14,352.53,583.3,353.02,583.19,353.5z"/>
		<path class="st2" d="M607.16,366l20.71-1.15c0.8-0.04,1.5,0.57,1.54,1.38l0.08,1.38c0.02,0.4-0.1,0.76-0.37,1.06
			c-0.27,0.3-0.61,0.46-1.01,0.49l-20.71,1.15c-0.8,0.04-1.5-0.57-1.54-1.38l-0.08-1.38c-0.02-0.4,0.1-0.76,0.37-1.06
			C606.42,366.18,606.76,366.02,607.16,366L607.16,366z M608.7,356.71l28.24-1.57c0.8-0.04,1.5,0.57,1.54,1.38l0.08,1.38
			c0.02,0.4-0.1,0.76-0.37,1.06c-0.27,0.3-0.61,0.46-1.01,0.49l-28.24,1.57c-0.8,0.04-1.5-0.57-1.54-1.38l-0.08-1.38
			c-0.02-0.4,0.1-0.76,0.37-1.06C607.96,356.9,608.29,356.74,608.7,356.71L608.7,356.71z M610.12,348.76l15.48-0.86
			c0.8-0.04,1.5,0.57,1.54,1.38l0.08,1.38c0.02,0.4-0.1,0.76-0.37,1.06c-0.27,0.3-0.61,0.46-1.01,0.49l-15.48,0.86
			c-0.8,0.04-1.5-0.57-1.54-1.38l-0.08-1.38c-0.02-0.4,0.1-0.76,0.37-1.06C609.38,348.94,609.72,348.78,610.12,348.76z"/>
		<path class="st2" d="M654.87,346.83l13.05-0.73c0.8-0.05,1.49,0.57,1.54,1.38l0.08,1.38c0.02,0.4-0.1,0.76-0.37,1.06
			c-0.27,0.3-0.61,0.46-1.01,0.49l-13.05,0.73c-0.8,0.04-1.5-0.57-1.54-1.38l-0.08-1.38c-0.02-0.4,0.1-0.76,0.37-1.06
			C654.13,347.02,654.47,346.86,654.87,346.83L654.87,346.83z M653.81,363.17l17.07-0.95c0.8-0.05,1.5,0.57,1.54,1.38l0.08,1.38
			c0.02,0.4-0.1,0.76-0.37,1.06c-0.27,0.3-0.61,0.46-1.01,0.49l-17.07,0.95c-0.8,0.04-1.5-0.57-1.54-1.38l-0.08-1.38
			c-0.02-0.4,0.1-0.76,0.37-1.06C653.07,363.35,653.41,363.19,653.81,363.17L653.81,363.17z M648.54,354.89l28.25-1.57
			c0.8-0.04,1.5,0.57,1.54,1.38l0.08,1.38c0.02,0.4-0.1,0.76-0.37,1.06c-0.27,0.3-0.61,0.46-1.01,0.49l-28.25,1.57
			c-0.8,0.04-1.5-0.57-1.54-1.38l-0.08-1.38c-0.02-0.4,0.1-0.76,0.37-1.06C647.8,355.07,648.14,354.91,648.54,354.89z"/>
		<path class="st2" d="M720.83,358.44l-20.33,1.25c-0.79,0.05-1.48,0.76-1.54,1.58l-0.11,1.42c-0.03,0.41,0.08,0.76,0.34,1.04
			c0.26,0.28,0.59,0.4,0.98,0.38l20.33-1.25c0.79-0.05,1.48-0.76,1.54-1.58l0.11-1.42c0.03-0.41-0.08-0.76-0.34-1.03
			C721.56,358.54,721.23,358.41,720.83,358.44L720.83,358.44z M719.51,349.15l-27.73,1.7c-0.79,0.05-1.48,0.76-1.54,1.58l-0.11,1.42
			c-0.03,0.41,0.08,0.76,0.34,1.04c0.26,0.28,0.59,0.4,0.98,0.38l27.73-1.7c0.79-0.05,1.48-0.76,1.54-1.58l0.11-1.42
			c0.03-0.41-0.08-0.76-0.34-1.04C720.23,349.25,719.9,349.13,719.51,349.15L719.51,349.15z M718.26,341.2l-15.2,0.93
			c-0.79,0.05-1.48,0.76-1.54,1.58l-0.11,1.42c-0.03,0.41,0.08,0.76,0.34,1.03c0.26,0.28,0.59,0.4,0.98,0.38l15.2-0.93
			c0.79-0.05,1.48-0.76,1.54-1.58l0.11-1.42c0.03-0.41-0.08-0.76-0.34-1.04C718.99,341.31,718.66,341.18,718.26,341.2z"/>
		<path class="st2" d="M800.77,350.81c4.87-1.83,8.85,8.36,0.85,8.93c-10.78,0.77-11.74-13.61-2.13-17.46
			c0.55-0.22,1.16-0.06,1.53,0.41c0.37,0.47,0.38,1.1,0.03,1.59c-1.08,1.49-2.09,3.4-2.06,5.31c0.01,0.44,0.21,0.82,0.57,1.07
			C799.93,350.92,800.36,350.97,800.77,350.81L800.77,350.81z M817.03,351.06c-0.42,0.16-0.84,0.1-1.21-0.15
			c-0.36-0.25-0.57-0.63-0.58-1.07c-0.03-1.92,0.98-3.82,2.06-5.32c0.35-0.48,0.34-1.12-0.03-1.59c-0.37-0.47-0.98-0.64-1.53-0.41
			c-9.61,3.86-8.66,18.23,2.13,17.46C825.88,359.42,821.9,349.23,817.03,351.06z"/>
		<path class="st2" d="M737.3,346.4c0,0,3.46-2.6,5.93-2.51c2.47,0.09,5.66,1.5,6.19,6.49c0.52,4.99,1.96,3.51,1.96,3.51l0.13,3.64
			c0,0-4.36,2.11-4.86-1.56c0,0-1.74,3.88-6.47,3.53c-4.72-0.35-4.29-5.83-2.75-7.37c1.54-1.54,6.78-3.76,8.25-2.02
			c0,0-2.68-3.94-6.22-0.67L737.3,346.4L737.3,346.4z M781.42,343.52c0,0-5.37-5.17-9.86-0.83c-4.49,4.33-2.69,12.23,1.45,13.07
			c4.14,0.84,8.17-2.75,8.17-2.75l-1.97-2.82c0,0-5.71,4.59-6.43-0.65c-0.72-5.24,3.92-6.15,5.01-3.59L781.42,343.52L781.42,343.52z
			 M754.1,339.27c1.31-0.62,5.01-1.1,5.01-1.1l-0.95,8.59c9.13-6.68,11.41,3.84,8.41,8.35c-3,4.5-7.97,0.62-7.97,0.62l0.08,2.19
			l-4.97,0.35L754.1,339.27L754.1,339.27z M758.67,350.06c0,0-0.04,2.12,1.29,2.82c1.34,0.7,4.79-0.55,3.92-3.4
			C763,346.63,758.67,350.06,758.67,350.06L758.67,350.06z M744.86,353.03c0,0-6.18-0.3-5.37,1.94c0.81,2.24,5.53,0.22,5.68-0.7
			C745.32,353.37,744.86,353.03,744.86,353.03z"/>
	</g>
	<path class="st2" d="M785.02,282.6c1.98-4.43,46.4-7.22,43.44,1.56c-2.97,8.77-6.49,21.54-7.87,29.35
		c-1.38,7.8-39.59,5.29-40.52,0.4C779.15,309.02,780.69,293.97,785.02,282.6z"/>
	<path class="st2" d="M566.75,302.97c0,0,130.81-10.45,135.79-9.92c4.98,0.53,1.78,28.88-2.69,29.42
		c-4.47,0.54-140.41,12.36-144.06,7.14C552.13,324.38,556.08,305.39,566.75,302.97z"/>
	<path class="st2" d="M751.4,613.59l173.26,18.82c4.65,0.38,18.84,4.13,13.15,22.64c0,0-8.54-2.95-20.31-3.83
		c-12.72,45.95-0.02,108.2,35.03,130.78l-166.87-7.08L751.4,613.59z"/>
	<path class="st4" d="M751.4,613.59l124.42,13.52c-22.35,45.54-46.74,126.09,41.58,153.41l-131.74-5.59L751.4,613.59z"/>
	<path class="st0" d="M631.51,754.29c0,0-8.54-2.95-20.31-3.83C620.65,724.4,633.7,741.53,631.51,754.29z"/>
	<path class="st4" d="M651.34,568.53l73.41,5.49c0.88,0.07,1.59,0.51,2.11,1.22c0.52,0.71,0.69,1.52,0.51,2.38
		c-1.35,6.42,0.14,18.91,1.46,21.86l-78.17-4.38L651.34,568.53z"/>
	<path class="st0" d="M658.96,587.72c40.94,2.98,82.39,3.6,163.05,11.94c-2.76,177.16,78.33,179.63,125.07,181.62l-220.37-9.35
		c-74.72-27.54-189.82-108.12-216.58-214.51l144.83,8.11c0.84,0.05,1.52,0.49,2.03,1.16c0.51,0.67,0.71,1.43,0.58,2.26
		C656.68,574.93,656.9,581.14,658.96,587.72z"/>
	<path class="st5" d="M568.13,617.43c-9.31-0.71-9.84-9.85-3.29-9.35l41.82,3.19c5.57,0.42,7.15,9.65,3.3,9.35L568.13,617.43z"/>
	<path class="st6" d="M609.53,644.26c-2.61-0.15-4.75-2.35-4.78-4.9c-0.03-2.55,2.06-4.49,4.66-4.34l57.19,3.37
		c1.21,0.07,2.25,0.56,3.1,1.47c0.85,0.9,1.26,1.96,1.23,3.13l-0.02,0.87c-0.06,2.24-1.92,3.91-4.22,3.77L609.53,644.26
		L609.53,644.26z M690.92,639.82l48.99,2.89c2.3,0.14,4.21,2.02,4.33,4.27l0.05,0.87c0.06,1.18-0.33,2.19-1.15,2.99
		c-0.83,0.8-1.86,1.17-3.07,1.1l-49.12-2.9c-1.26-0.07-2.34-0.61-3.19-1.57c-0.85-0.96-1.24-2.08-1.12-3.29l0.08-0.86
		C686.91,641.2,688.72,639.69,690.92,639.82L690.92,639.82z M759.41,643.86l30.99,1.83c2.61,0.15,4.75,2.35,4.78,4.9
		c0.03,2.55-2.06,4.49-4.67,4.34l-31.01-1.83c-1.19-0.07-2.22-0.55-3.07-1.43c-0.85-0.88-1.27-1.92-1.26-3.08l0.01-0.87
		C755.2,645.44,757.08,643.72,759.41,643.86z"/>
	<path class="st6" d="M625.23,668.13c-2.6-0.13-4.76-2.32-4.84-4.88c-0.07-2.57,1.97-4.54,4.57-4.41l26.7,1.38
		c1.2,0.06,2.25,0.55,3.11,1.45c0.86,0.9,1.28,1.96,1.26,3.15l-0.01,0.88c-0.04,2.25-1.86,3.93-4.15,3.81L625.23,668.13
		L625.23,668.13z M679.09,661.64l50.85,2.63c2.6,0.13,4.76,2.32,4.84,4.88c0.07,2.57-1.97,4.54-4.57,4.41l-50.84-2.63
		c-2.29-0.12-4.22-2.01-4.36-4.28l-0.05-0.88c-0.07-1.19,0.3-2.2,1.11-3.01C676.87,661.96,677.89,661.58,679.09,661.64z"/>
	<path class="st4" d="M649.71,691.09c-2.68-0.15-5.22-2.31-5.69-4.82c-0.46-2.51,1.33-4.43,4.01-4.28l41.87,2.36
		c2.68,0.15,5.22,2.31,5.69,4.82c0.46,2.51-1.33,4.43-4.01,4.28L649.71,691.09z"/>
	<path class="st5" d="M641.8,709.44c-9.71-0.76-9.42-10-3.81-9.56l33.81,2.72c4.91,0.38,8.27,9.91,3.81,9.56L641.8,709.44z"/>
	<path class="st4" d="M705.44,726.12c-2.61-0.1-4.86-2.25-5.04-4.81c-0.17-2.56,1.8-4.55,4.41-4.46l12.73,0.51
		c2.25,0.09,4.22,1.87,4.52,4.08l0.12,0.88c0.16,1.21-0.15,2.26-0.94,3.1c-0.78,0.85-1.81,1.26-3.04,1.21L705.44,726.12
		L705.44,726.12z M734.79,718.05l62.82,2.52c2.61,0.1,4.86,2.25,5.04,4.81c0.17,2.56-1.8,4.55-4.41,4.46l-62.8-2.52
		c-2.29-0.09-4.28-1.93-4.53-4.17l-0.1-0.88c-0.13-1.19,0.2-2.22,0.98-3.04C732.57,718.4,733.58,718,734.79,718.05z"/>
	<path class="st6" d="M710.95,745.48c-2.59-0.11-4.91-2.29-5.18-4.87c-0.27-2.58,1.61-4.58,4.2-4.47l32.97,1.52
		c2.59,0.11,4.91,2.29,5.18,4.87c0.27,2.58-1.61,4.58-4.2,4.47L710.95,745.48z"/>
	<path class="st4" d="M640.22,571.61c3.63-0.44,7.27,2.11,8.13,5.69c0.86,3.58-1.39,6.84-5.03,7.28c-3.63,0.44-7.27-2.11-8.13-5.69
		C634.33,575.3,636.58,572.04,640.22,571.61z"/>
	<path class="st4" d="M800.58,686.28l-5.2,7.27c-0.58,0.82-0.66,1.82-0.22,2.72c0.45,0.9,1.3,1.44,2.3,1.46l11.76,0.28
		c1.07,0.03,2-0.55,2.46-1.52c0.46-0.97,0.31-2.05-0.4-2.86l-6.56-7.55c-0.55-0.63-1.28-0.95-2.12-0.91
		C801.77,685.22,801.06,685.6,800.58,686.28z"/>
	<path class="st2" d="M933.49,765.9c0,0,102.67-182.98,113.88-441.47c0,0,481.94,97.25,573.63,137.66
		c-77.99,143.61-440.26,152.01-444.72,313.69c-0.12,4.17-1.72,7.71-4.77,10.56c-3.05,2.84-6.7,4.19-10.87,4.02l-235.7-10
		L933.49,765.9z"/>
	<path class="st2" d="M933.49,765.9c0,0,21.05-37.51,45.12-102.55c33.74,41.12,101.83,79.74,235.42,34.12
		c-22.76,21.81-36.89,47.22-37.75,78.31c-0.12,4.17-1.72,7.71-4.77,10.56c-3.05,2.84-6.7,4.19-10.87,4.02l-235.7-10L933.49,765.9z"
		/>
	<path class="st1" d="M1042.44,390.6c2.25-21.43,3.95-43.51,4.93-66.17c0,0,481.94,97.25,573.63,137.66
		c-8.94,16.46-20.46,30.95-33.93,43.93C1496.62,472.03,1116.52,403.74,1042.44,390.6z"/>
	<path class="st2" d="M1074.06,352.96c7.28-1.86,14.69,2.52,16.55,9.8c1.87,7.28-2.52,14.69-9.8,16.55
		c-7.28,1.86-14.69-2.52-16.55-9.8C1062.39,362.23,1066.78,354.82,1074.06,352.96z"/>
	<path class="st7" d="M1148.81,371.2c7.28-1.86,14.69,2.52,16.55,9.8c1.86,7.28-2.52,14.69-9.8,16.55
		c-7.28,1.86-14.69-2.52-16.55-9.8C1137.15,380.47,1141.53,373.06,1148.81,371.2z"/>
	<path class="st4" d="M1110.22,361.36c7.28-1.86,14.69,2.52,16.55,9.8c1.86,7.28-2.52,14.69-9.8,16.55
		c-7.28,1.86-14.69-2.52-16.55-9.8C1098.56,370.63,1102.94,363.22,1110.22,361.36z"/>
	<g>
		<path class="st4" d="M967.79,741.57c39.51-74.39,110.21-324.88,98.94-317.59c16.41,3.87,188.18,42.61,211.36,50.01
			c3.43,1.1-161.23,204.44-181.54,271.98c-0.76,2.52-2.95,4.2-5.58,4.27c-53.25,1.44-70.64-0.23-117.6-0.61
			c-2.01-0.02-3.74-0.93-4.88-2.58C967.35,745.39,966.85,743.34,967.79,741.57z"/>
		<path class="st4" d="M967.79,741.57c7.86-14.8,16.96-36.59,26.4-61.92c24.33,21.76,60.7,39.3,114.51,38.39
			c-5.61,10.74-9.82,20.23-12.14,27.93c-0.76,2.52-2.95,4.2-5.58,4.27c-53.25,1.44-70.64-0.23-117.6-0.61
			c-2.01-0.02-3.74-0.93-4.88-2.58C967.35,745.39,966.85,743.34,967.79,741.57z"/>
		<path class="st4" d="M967.17,741.23c27.48-51.75,70.08-188.83,89.63-264.89c4.04-15.71,7.09-28.81,8.82-37.99
			c1.41-7.5,2.06-12.26,1.75-13.51l-2.41-0.57l1.39-0.9c0.32-0.21,0.64-0.29,0.94-0.26c0.25,0.03,0.46,0.17,0.63,0.41
			c3.75,0.87,12.26,2.82,23.75,5.44c52.55,12.01,167.9,38.36,186.63,44.34c0.52,0.16,0.67,0.55,0.48,1.16
			c-0.73,2.27-11.84,17.01-28.29,38.84c-47.2,62.63-138.51,183.79-153.26,232.86c-0.42,1.41-1.25,2.58-2.34,3.41
			c-1.09,0.83-2.43,1.32-3.9,1.36c-35.57,0.96-55.15,0.53-78.21,0.03c-11.46-0.25-23.78-0.52-39.41-0.64
			c-1.12-0.01-2.17-0.27-3.09-0.76c-0.92-0.49-1.73-1.2-2.37-2.13c-0.67-0.96-1.14-2.06-1.28-3.16
			C966.5,743.26,966.65,742.21,967.17,741.23L967.17,741.23z M1058.17,476.7c-19.56,76.12-62.22,213.35-89.75,265.2
			c-0.37,0.7-0.48,1.46-0.38,2.21c0.11,0.88,0.49,1.76,1.04,2.54c0.51,0.73,1.14,1.3,1.87,1.68c0.72,0.38,1.55,0.59,2.44,0.59
			c15.57,0.13,27.93,0.39,39.43,0.64c23.04,0.5,42.61,0.93,78.14-0.03c1.16-0.03,2.23-0.42,3.08-1.07c0.86-0.65,1.51-1.58,1.84-2.7
			c14.82-49.31,106.24-170.61,153.49-233.31c15.51-20.58,26.25-34.83,27.88-37.99c-20.43-6.31-133.9-32.24-185.9-44.12
			c-10.67-2.44-18.73-4.28-22.95-5.26c0.32,2.44-0.19,7.09-1.4,13.53C1065.27,447.86,1062.21,460.99,1058.17,476.7z"/>
	</g>
	<g>
		<path class="st5" d="M1089.98,557.74c3.88,9.57,58.22,20.41,69.65,21.98c13.32-26.86,18.81-42.3,35.85-69.89
			c6.79-11-75.66-37.46-76.46-37.01C1114.91,472.95,1087.21,550.9,1089.98,557.74z"/>
		<path class="st0" d="M1155.44,563.32c-1.21,11.42-22.24,2.21-29.76-1.08c-14.07-6.16-33.17-13.06-16.92-23.65
			C1133.64,522.37,1158.19,537.31,1155.44,563.32L1155.44,563.32z M1129.91,506.74c-10.31,17.55,20.06,35.72,30.64,16.07
			c6.66-12.37,0.22-21.39-7.56-24.26C1144.56,495.44,1134.28,499.3,1129.91,506.74z"/>
	</g>
	<g>
		<path class="st5" d="M1044.01,573.75c4.3-1.1,8.39,2.77,9.5,7.07c1.1,4.3-1.49,8.67-5.79,9.77c-4.3,1.1-8.4-2.77-9.5-7.07
			C1037.12,579.23,1039.71,574.85,1044.01,573.75z"/>
		<path class="st5" d="M1029.86,612.3c4.3-1.1,8.14,2.71,9.24,7.01c1.1,4.3-1.49,8.67-5.79,9.77c-4.3,1.1-8.14-2.71-9.24-7.01
			C1022.97,617.77,1025.56,613.4,1029.86,612.3z"/>
		<path class="st5" d="M1017.47,648.03c4.3-1.1,7.85,2.55,8.96,6.84c1.1,4.3-1.49,8.67-5.79,9.77c-4.3,1.1-7.85-2.55-8.95-6.84
			C1010.58,653.5,1013.17,649.13,1017.47,648.03z"/>
		<path class="st5" d="M1062.82,591.18c-2.6-1.33-3.63-4.53-2.3-7.13c1.33-2.6,4.53-3.63,7.13-2.3
			c0.14,0.07,49.89,25.72,80.96,32.44c2.86,0.62,4.67,3.44,4.06,6.29c-0.62,2.86-3.44,4.67-6.29,4.06
			C1113.9,617.53,1062.97,591.26,1062.82,591.18z"/>
		<path class="st5" d="M1057.47,602.84c-1.65-1.04-2.16-3.22-1.12-4.87c1.04-1.66,3.22-2.16,4.87-1.12
			c0.07,0.04,19.6,12.26,33.35,17.49c1.83,0.69,2.75,2.73,2.06,4.56c-0.69,1.83-2.74,2.75-4.56,2.06
			C1077.66,615.48,1057.54,602.88,1057.47,602.84z"/>
		<path class="st5" d="M1101.94,622.58c0.52-1.89,2.47-2.99,4.35-2.47c4.03,3.02,18.01,6.57,24.46,7.02
			c1.85,0.61,2.86,2.6,2.26,4.45c-0.61,1.85-2.6,2.86-4.45,2.26C1124.66,633.36,1100.11,629.22,1101.94,622.58z"/>
		<path class="st5" d="M1047.75,627.55c-2.63-1.29-3.71-4.47-2.42-7.1c1.29-2.63,4.47-3.71,7.1-2.42
			c-0.45,1.85,32.89,19.91,64.81,28.05c2.76,1,4.18,4.04,3.18,6.8c-1,2.75-4.04,4.18-6.8,3.18
			C1081.24,646.67,1047.32,628.83,1047.75,627.55z"/>
		<path class="st5" d="M1043.31,640.6c-1.75-0.87-2.46-2.99-1.59-4.74c0.87-1.75,2.99-2.46,4.74-1.59
			c0.04,0.02,14.67,7.37,27.01,13.1c1.77,0.82,2.54,2.93,1.72,4.71c-0.82,1.77-2.93,2.54-4.71,1.72
			C1058.65,648.3,1043.36,640.63,1043.31,640.6z"/>
		<path class="st5" d="M1034.81,666.1c-2.3-1.81-2.69-5.15-0.88-7.45c1.81-2.3,5.15-2.7,7.45-0.88
			c23.53,14.53,51.72,20.35,66.47,25.55c2.33,1.78,3.45,3.95,1.68,6.28c-1.78,2.33-4.7,3.25-8.11,2.17
			C1080.87,686.68,1061.69,681.43,1034.81,666.1z"/>
		<path class="st5" d="M1028.63,679.31c-1.59-1.13-1.97-3.34-0.84-4.93c1.13-1.59,3.34-1.97,4.93-0.84
			c0.06,0.04,20.74,12.12,38.14,17.02c1.88,0.53,2.98,2.48,2.45,4.36c-0.53,1.88-2.48,2.97-4.36,2.45
			C1050.35,692.13,1028.69,679.35,1028.63,679.31z"/>
	</g>
	<path class="st4" d="M1297.09,477.64c21.85,2.36,116.85,14.84,231.09,51.93c2.13,0.69,2.78,3.3,2.56,5.53
		c-0.22,2.23-1.54,4.03-3.6,4.92c-25.19,10.84-129.91,57.22-172.46,73.72c-1.38,0.53-2.73,0.56-4.13,0.08
		c-12.29-4.25-76.42-26.32-116.28-38.14c-2-0.59-3.44-2.03-4.04-4.02c-0.6-1.99-0.19-3.99,1.15-5.58
		c10.49-12.51,36.98-46.87,59.91-85.52C1292.51,478.48,1294.7,477.39,1297.09,477.64z"/>
	<path class="st0" d="M1294.88,503.24c-2.89-0.48-4.85-3.21-4.37-6.11c0.48-2.89,3.21-4.85,6.11-4.37
		c40.77,6.73,52.09,8.28,101.12,27.65c2.47,1.58,3.18,4.86,1.6,7.33c-1.58,2.47-4.87,3.18-7.33,1.6
		C1350.29,511.86,1334.1,509.71,1294.88,503.24z"/>
	<path class="st7" d="M1288.3,519.56c-2.89-0.46-4.86-3.17-4.4-6.06c1.78-11.2,59.47,6.85,65.84,8.78c2.66,1.21,3.84,4.35,2.63,7.02
		c-1.21,2.66-4.35,3.84-7.02,2.63C1316.18,521.89,1286.64,520.21,1288.3,519.56z"/>
	<path class="st0" d="M1334.33,600.1c-2.72-1.08-4.02-3.6-2.94-6.32c1.09-2.72,4.17-4.05,6.9-2.96c5.84,2.32,11.68,4.65,17.53,6.97
		c2.72,1.08,4.7,4.43,3.62,7.15c-1.08,2.72-4.85,3.21-7.57,2.13C1346.01,604.75,1340.17,602.42,1334.33,600.1z"/>
	<path class="st0" d="M1224.33,583.78c15.64,1.41,78.19,17.39,101.61,30.72c2.34,0.98,3.76,3.19,3.68,5.73
		c-0.32,9.84-124.28,37.68-157.84,132.13c-0.95,2.67-3.54,4.28-6.35,3.95l-52.85-6.15c-1.97-0.23-3.56-1.29-4.53-3.01
		c-0.97-1.73-1.06-3.63-0.24-5.44c11.13-24.43,49.97-103.16,110.61-156.75C1220.08,583.5,1222.23,583.07,1224.33,583.78z"/>
	<path class="st7" d="M1257.93,618c-1.92-0.38-3.17-2.24-2.8-4.16c0.38-1.92,2.24-3.17,4.16-2.8l0.59,0.12
		c3.47,0.68,17.05,4.6,31.29,13.4c1.66,1.03,1.84,3.56,0.81,5.22c-1.03,1.66-3.21,2.17-4.87,1.15
		c-13.14-8.12-25.43-12.21-28.58-12.82L1257.93,618z"/>
	<path class="st7" d="M1249.39,625.54c-2.27-1.81-0.39-5.6,3.35-4.8c3.05,0.73,8.73,1.83,18.83,6.56c1.59,1.14,1.95,3.35,0.81,4.94
		c-1.14,1.59-3.25,1.79-4.94,0.81C1263.8,630.94,1255.19,629.32,1249.39,625.54z"/>
	<path class="st7" d="M1211.88,642.31c-2.02-0.58-3.35-2.51-2.97-4.3c0.38-1.79,2.31-2.77,4.33-2.18l0.62,0.18
		c3.64,1.05,17.92,6.39,32.92,16.46c1.75,1.17,1.96,3.62,0.9,5.08c-1.06,1.47-3.34,1.7-5.09,0.53
		c-13.85-9.3-26.77-14.64-30.08-15.59L1211.88,642.31z"/>
	<path class="st7" d="M1187.69,645.64c-1.9-0.47-3.06-2.39-2.59-4.29c0.47-1.9,2.39-3.06,4.29-2.59l0.58,0.14
		c3.43,0.84,16.81,5.41,30.6,14.9c1.61,1.11,1.67,3.65,0.56,5.26c-1.11,1.61-3.31,2.02-4.92,0.91
		c-12.73-8.75-24.81-13.42-27.93-14.19L1187.69,645.64z"/>
	<path class="st7" d="M1205.22,667.68c-1.83-0.69-3.17-2.24-2.8-4.16c1.05-5.34,7.49-1.66,10.59-0.21c1.55,0.72,3.31,1.7,6.38,3.59
		c1.66,1.03,1.84,3.56,0.82,5.22c-1.03,1.66-3.21,2.17-4.87,1.15C1210.68,670.39,1209.5,669.3,1205.22,667.68z"/>
	<path class="st7" d="M1179.89,674.42c-1.83-0.69-3.17-2.24-2.8-4.16c1.05-5.34,7.49-1.66,10.59-0.22c1.55,0.72,3.31,1.7,6.38,3.59
		c1.66,1.03,1.84,3.56,0.82,5.22c-1.03,1.66-3.21,2.17-4.87,1.15C1185.35,677.13,1184.17,676.04,1179.89,674.42z"/>
	<path class="st7" d="M1142.24,704.82c-1.83-0.69-3.17-2.24-2.8-4.16c1.05-5.34,7.49-1.66,10.59-0.22c1.55,0.72,3.31,1.7,6.38,3.59
		c1.66,1.03,1.84,3.56,0.82,5.22c-1.03,1.66-3.21,2.17-4.87,1.15C1147.7,707.53,1146.52,706.44,1142.24,704.82z"/>
	<path class="st7" d="M1245.28,607.22c-0.08,6.23-6.16,11.46-13.57,11.67c-7.41,0.21-13.36-4.67-13.27-10.9
		c0.08-6.23,6.16-11.46,13.57-11.67C1239.42,596.11,1245.36,600.99,1245.28,607.22z"/>
	<path class="st5" d="M937.05,781.81c10.72-12.3,41.19-48.46,59.28-82.17c0,0,114.74,51.26,166.5,47.59c0,0-52.6,13.28-79.27,40.87
		L937.05,781.81z"/>
	
		<rect x="934.6" y="546.16" transform="matrix(0.0408 -0.9992 0.9992 0.0408 117.2072 1683.4233)" class="st0" width="1.58" height="469.02"/>
	<path class="st4" d="M633.32,938.14l-33.49,17.03l11.53,17.47c0,0,5.55,5.24,19.65,5.16c14.1-0.08,602.92,14.78,602.92,14.78
		s12.94,1.97,20.19-17.4L633.32,938.14z"/>
	<path class="st2" d="M676.08,792.82l-75.26,155.9c0,0-6.54,13.64,12.24,13.22c18.78-0.41,635.13,18.1,635.13,18.1
		s15.43-7.7,7.67-24.06c-7.76-16.37-62.12-144.1-62.12-144.1L676.08,792.82z"/>
	<path class="st4" d="M727.09,804.72l27.36,1.23c0.96,0.04,1.77,0.53,2.29,1.37c0.52,0.84,0.61,1.81,0.24,2.72l-3.72,9.29
		c-0.45,1.13-1.46,1.8-2.64,1.77l-35.63-1.07c-1.01-0.03-1.87-0.56-2.39-1.47c-0.52-0.91-0.54-1.95-0.07-2.87l1.71-3.36
		C716.8,807.32,721.59,804.47,727.09,804.72L727.09,804.72z M1109.96,878.46l12.51,0.3l0.05,0l51.35,1.25
		c0.98,0.02,1.82-0.43,2.36-1.26c0.54-0.83,0.64-1.82,0.26-2.76l-3.97-9.94l-0.68-1.71l-0.02-0.05l0,0l-5.12-12.81l0-0.01
		l-0.02-0.04l-0.96-2.41l-2.75-6.88c-0.44-1.11-1.42-1.81-2.56-1.84l-45.26-1.35c-0.89-0.03-1.67,0.34-2.23,1.05
		c-0.56,0.71-0.75,1.58-0.55,2.49l1.29,5.88h0l0.02,0.08l0.8,3.65c0.03,0.14,0.07,0.28,0.12,0.41l1.95,8.6l-16.95-0.15l-43.71-0.96
		c-0.84-0.02-1.56,0.31-2.12,0.95c-0.56,0.64-0.79,1.43-0.69,2.3l1.35,11.33c0.18,1.47,1.35,2.59,2.78,2.62l52.72,1.28
		L1109.96,878.46L1109.96,878.46z M865.36,879.46L865.36,879.46l19.69,0.48l0.04,0l30.21,0.73v0l42.82,1.04
		c0.79,0.02,1.47,0.33,2.01,0.94c0.55,0.6,0.81,1.32,0.78,2.15l-0.54,16.32c-0.05,1.59-1.32,2.83-2.86,2.79l-47.04-1.49l-15.14-0.48
		l-0.04,0l-0.04,0l-12.22-0.39l-0.07,0l-81.07-2.57c-0.89-0.03-1.65-0.44-2.19-1.18c-0.54-0.74-0.71-1.62-0.5-2.51l3.65-15.08
		c0.32-1.32,1.44-2.21,2.75-2.17L865.36,879.46L865.36,879.46z M767.6,806.55l42.22,1.9c0.88,0.04,1.63,0.45,2.17,1.2
		c0.53,0.74,0.7,1.61,0.49,2.5l-2.06,8.51c-0.32,1.33-1.45,2.21-2.77,2.17l-43.8-1.31c-0.96-0.03-1.79-0.51-2.32-1.36
		c-0.53-0.85-0.62-1.82-0.25-2.74l3.64-9.1C765.38,807.17,766.41,806.49,767.6,806.55L767.6,806.55z M822.38,809.01l71.37,3.21
		c0.83,0.04,1.53,0.4,2.07,1.06c0.54,0.67,0.76,1.45,0.65,2.3l-0.93,7.27c-0.19,1.48-1.39,2.54-2.83,2.5l-72.46-2.17
		c-0.89-0.03-1.65-0.44-2.2-1.18c-0.54-0.74-0.72-1.62-0.5-2.51l2.01-8.32C819.9,809.84,821.05,808.95,822.38,809.01L822.38,809.01z
		 M906.1,812.78l54.26,2.44c0.78,0.04,1.44,0.36,1.98,0.96c0.53,0.6,0.79,1.31,0.76,2.12l-0.21,6.28c-0.05,1.59-1.32,2.83-2.85,2.79
		l-54.95-1.64c-0.83-0.03-1.55-0.38-2.1-1.05c-0.55-0.67-0.77-1.46-0.66-2.32l0.91-7.08C903.42,813.79,904.65,812.72,906.1,812.78
		L906.1,812.78z M972.64,815.78l66.04,2.97c1.4,0.06,2.55,1.16,2.72,2.62l0.61,5.12c0.1,0.87-0.13,1.66-0.7,2.31
		c-0.56,0.64-1.29,0.97-2.14,0.94l-66.85-2c-0.79-0.02-1.46-0.34-2-0.94c-0.54-0.6-0.8-1.32-0.78-2.14l0.2-6.1
		C969.8,816.96,971.09,815.71,972.64,815.78L972.64,815.78z M1051.09,819.31l47.7,2.15c1.3,0.06,2.38,1,2.67,2.32l0.93,4.22
		c0.2,0.91,0.01,1.77-0.55,2.49c-0.56,0.72-1.34,1.08-2.23,1.05l-48.04-1.44c-1.42-0.04-2.59-1.15-2.76-2.62l-0.59-4.93
		c-0.11-0.88,0.14-1.68,0.71-2.32C1049.5,819.59,1050.24,819.28,1051.09,819.31L1051.09,819.31z M1111.47,822.03l35.15,1.58
		c3.88,0.17,7.33,1.86,9.83,4.66c0.79,0.89,0.99,2.11,0.53,3.2c-0.46,1.09-1.46,1.74-2.62,1.71l-42.12-1.26
		c-1.32-0.04-2.42-0.98-2.71-2.33l-0.88-4.03c-0.2-0.92,0-1.79,0.57-2.5C1109.79,822.36,1110.57,821.99,1111.47,822.03
		L1111.47,822.03z M1181.66,888.92l0.63,1.57c7.14,17.87,6.48,20.75-13.2,20.12l-39.89-1.27c-1.32-0.04-2.41-0.98-2.71-2.33
		l-3.88-17.71c-0.2-0.91-0.01-1.77,0.55-2.48c0.56-0.71,1.33-1.08,2.22-1.06l53.7,1.3C1180.23,887.1,1181.21,887.8,1181.66,888.92
		L1181.66,888.92z M1116.56,908.94l-55.83-1.77c-1.42-0.04-2.58-1.15-2.76-2.62l-2.04-17.15c-0.1-0.87,0.13-1.66,0.69-2.3
		c0.56-0.64,1.28-0.97,2.13-0.95l54.01,1.31c1.32,0.03,2.43,0.98,2.73,2.33l3.86,17.61c0.2,0.91,0.01,1.78-0.56,2.49
		C1118.22,908.6,1117.45,908.97,1116.56,908.94L1116.56,908.94z M1048.34,906.78l-78.53-2.49c-0.79-0.02-1.46-0.34-2-0.94
		c-0.54-0.6-0.8-1.32-0.78-2.14l0.54-16.41c0.05-1.59,1.31-2.82,2.84-2.79l75.96,1.84c1.42,0.04,2.6,1.15,2.78,2.62l2.03,17.06
		c0.1,0.87-0.13,1.66-0.7,2.31C1049.91,906.48,1049.18,906.8,1048.34,906.78L1048.34,906.78z M789.3,898.56l-55.58-1.76
		c-0.96-0.03-1.79-0.51-2.31-1.36c-0.53-0.85-0.62-1.82-0.25-2.74l5.81-14.52c0.45-1.12,1.45-1.8,2.62-1.77l53.4,1.3
		c0.89,0.02,1.66,0.43,2.21,1.18c0.55,0.74,0.72,1.62,0.51,2.52l-3.63,14.99C791.75,897.71,790.63,898.6,789.3,898.56L789.3,898.56z
		 M720.5,896.37l-25.29-0.8c-22.17-0.7-17.9-10.82-13.68-19c0.51-0.98,1.43-1.54,2.51-1.51l42.29,1.03c0.97,0.02,1.79,0.5,2.33,1.35
		c0.53,0.85,0.63,1.83,0.26,2.75l-5.77,14.42C722.69,895.73,721.68,896.41,720.5,896.37L720.5,896.37z M687.98,863.94l5.28-10.37
		c0.5-0.99,1.43-1.55,2.51-1.53l39.82,0.88c0.97,0.02,1.8,0.5,2.33,1.35c0.54,0.85,0.63,1.83,0.26,2.75l-4.2,10.49
		c-0.45,1.12-1.45,1.8-2.62,1.77l-40.91-0.99c-1.01-0.02-1.88-0.55-2.4-1.47C687.54,865.9,687.51,864.86,687.98,863.94
		L687.98,863.94z M699.7,840.91l6.42-12.62c0.51-0.99,1.44-1.56,2.53-1.53l36.98,1.11c0.96,0.03,1.79,0.51,2.32,1.36
		c0.53,0.85,0.62,1.82,0.25,2.74l-4.95,12.36c-0.45,1.12-1.45,1.79-2.62,1.77l-38.46-0.85c-1.01-0.02-1.88-0.55-2.4-1.46
		C699.26,842.88,699.23,841.84,699.7,840.91L699.7,840.91z M756.23,830.04l-4.9,12.26c-0.37,0.92-0.28,1.9,0.26,2.75
		c0.54,0.85,1.37,1.33,2.33,1.35l47.79,1.05c1.31,0.03,2.43-0.85,2.75-2.17l2.89-11.94c0.22-0.9,0.04-1.77-0.5-2.51
		c-0.54-0.74-1.31-1.15-2.2-1.18l-45.78-1.37C757.69,828.23,756.68,828.91,756.23,830.04L756.23,830.04z M746.25,854.98l-4.21,10.51
		c-0.37,0.92-0.28,1.9,0.26,2.75c0.53,0.85,1.36,1.33,2.33,1.35l51.41,1.25c1.32,0.03,2.43-0.85,2.75-2.17l2.58-10.66
		c0.22-0.9,0.04-1.78-0.51-2.52c-0.55-0.75-1.32-1.15-2.21-1.17l-49.78-1.1C747.69,853.19,746.69,853.86,746.25,854.98
		L746.25,854.98z M808.66,871.15l77.98,1.89c1.43,0.04,2.63-1.03,2.81-2.5l1.39-10.89c0.11-0.86-0.12-1.66-0.67-2.33
		c-0.55-0.67-1.27-1.02-2.11-1.04l-76.78-1.69c-1.31-0.03-2.43,0.85-2.75,2.17l-2.59,10.69c-0.22,0.9-0.04,1.78,0.5,2.52
		C807,870.72,807.77,871.13,808.66,871.15L808.66,871.15z M899.02,873.34l59.48,1.44c1.52,0.04,2.78-1.2,2.84-2.79l0.36-11.07
		c0.03-0.82-0.24-1.54-0.79-2.15c-0.55-0.6-1.23-0.92-2.02-0.94l-58.45-1.29c-1.43-0.03-2.62,1.03-2.81,2.5l-1.39,10.92
		c-0.11,0.86,0.12,1.66,0.67,2.32C897.46,872.97,898.18,873.32,899.02,873.34L899.02,873.34z M970.79,875.09l74.01,1.8
		c0.84,0.02,1.57-0.3,2.12-0.95c0.56-0.64,0.8-1.43,0.69-2.3l-1.34-11.3c-0.18-1.48-1.36-2.59-2.78-2.62l-72.3-1.59
		c-1.52-0.03-2.78,1.2-2.83,2.79l-0.36,11.1c-0.03,0.82,0.24,1.54,0.78,2.14C969.32,874.75,970,875.07,970.79,875.09L970.79,875.09z
		 M814.34,847.73l75.33,1.66c1.43,0.03,2.62-1.03,2.81-2.5l1.44-11.3c0.11-0.86-0.12-1.65-0.66-2.32c-0.55-0.67-1.26-1.02-2.1-1.05
		l-73.9-2.21c-1.32-0.04-2.45,0.84-2.77,2.17l-2.87,11.84c-0.22,0.9-0.04,1.78,0.51,2.52C812.68,847.3,813.45,847.71,814.34,847.73
		L814.34,847.73z M902.05,849.66l57.24,1.26c1.52,0.03,2.78-1.2,2.83-2.79l0.35-10.78c0.03-0.82-0.23-1.54-0.78-2.14
		c-0.54-0.6-1.22-0.92-2-0.94l-56.16-1.68c-1.43-0.04-2.64,1.02-2.83,2.5l-1.43,11.2c-0.11,0.86,0.12,1.66,0.67,2.33
		C900.49,849.29,901.21,849.64,902.05,849.66L902.05,849.66z M971.58,851.2l70.36,1.55c0.84,0.02,1.56-0.31,2.12-0.95
		c0.56-0.64,0.79-1.43,0.69-2.3l-1.21-10.18c-0.17-1.47-1.34-2.58-2.76-2.62l-68.8-2.06c-1.53-0.05-2.8,1.19-2.85,2.79l-0.35,10.68
		c-0.03,0.82,0.24,1.55,0.78,2.15C970.11,850.86,970.79,851.18,971.58,851.2L971.58,851.2z M1054.31,853.02
		c-1.42-0.03-2.61-1.14-2.78-2.62l-1.2-10.08c-0.1-0.87,0.13-1.66,0.7-2.31c0.56-0.64,1.29-0.97,2.14-0.94l49.33,1.48
		c1.32,0.04,2.42,0.98,2.71,2.33l2.13,9.71c0.2,0.91,0.01,1.77-0.55,2.48c-0.56,0.71-1.32,1.08-2.21,1.06L1054.31,853.02z"/>
	<path class="st4" d="M859.36,907.61l154.44,3.09c1.41,0.03,2.52,1,2.9,2.32l13.18,46.78c0.25,0.9-0.02,1.79-0.64,2.49
		c-0.62,0.71-1.47,1.03-2.43,1.01l-186.08-4.01c-1.01-0.02-1.85-0.53-2.39-1.36c-0.54-0.83-0.62-1.76-0.25-2.67l18.46-45.86
		C856.99,908.27,858.1,907.59,859.36,907.61z"/>
	<g>
		<g>
			<path class="st1" d="M1331.8,724.92l43.37,9.86c5.52,1.26,10.03,4.66,12.84,9.12c2.81,4.47,3.93,10,2.67,15.52
				c-1.26,5.52-4.66,10.03-9.12,12.84c-4.47,2.81-10,3.93-15.52,2.67l-43.37-9.86c-5.52-1.26-10.03-4.66-12.84-9.12
				c-2.81-4.47-3.93-10-2.67-15.52c1.26-5.52,4.66-10.03,9.12-12.84C1320.74,724.78,1326.28,723.67,1331.8,724.92L1331.8,724.92z
				 M1374.85,736.17l-43.37-9.86c-5.14-1.17-10.29-0.13-14.45,2.49c-4.16,2.62-7.32,6.81-8.49,11.95
				c-1.17,5.14-0.13,10.29,2.49,14.45c2.62,4.16,6.81,7.33,11.95,8.49l43.37,9.86c5.14,1.17,10.29,0.13,14.45-2.49
				c4.16-2.62,7.32-6.81,8.49-11.95c1.17-5.14,0.13-10.29-2.49-14.45C1384.19,740.5,1379.99,737.34,1374.85,736.17z"/>
			<path class="st1" d="M1330.69,730.58c7.98,1.82,12.98,9.76,11.17,17.74c-1.82,7.98-9.76,12.98-17.74,11.17
				c-7.98-1.82-12.98-9.76-11.17-17.74S1322.71,728.76,1330.69,730.58z"/>
		</g>
		<g>
			<path class="st1" d="M434.75,587.44c8.87-1.07,18.04,1.47,25.71,6.45c7.66,4.97,13.82,12.38,16.65,21.03
				c2.83,8.65,1.79,16.93-2.16,23.3c-3.96,6.37-10.84,10.85-19.71,11.91c-8.87,1.07-18.04-1.47-25.71-6.45
				c-7.66-4.97-13.82-12.38-16.65-21.03c-2.83-8.66-1.8-16.93,2.16-23.3C419,592.98,425.88,588.51,434.75,587.44L434.75,587.44z
				 M458.01,597.83c-6.45-4.19-14.18-6.33-21.64-5.43c-7.46,0.9-13.26,4.66-16.59,10.03c-3.33,5.36-4.2,12.32-1.82,19.61
				c2.38,7.29,7.56,13.52,14.01,17.7c6.45,4.19,14.18,6.33,21.64,5.43c7.46-0.9,13.26-4.67,16.59-10.03
				c3.33-5.36,4.2-12.32,1.82-19.61C469.64,608.24,464.46,602.01,458.01,597.83z"/>
			<path class="st1" d="M402.04,537.63c5.91-0.71,12.03,0.98,17.15,4.3c5.11,3.32,9.22,8.26,11.1,14.03
				c1.89,5.77,1.2,11.29-1.44,15.54c-2.64,4.25-7.23,7.23-13.14,7.95c-5.91,0.71-12.03-0.98-17.15-4.3
				c-5.11-3.32-9.22-8.26-11.1-14.03c-1.89-5.77-1.2-11.29,1.44-15.54C391.53,541.33,396.12,538.34,402.04,537.63L402.04,537.63z
				 M417.55,544.56c-4.3-2.79-9.45-4.22-14.43-3.62c-4.98,0.6-8.84,3.11-11.06,6.69c-2.22,3.58-2.8,8.22-1.21,13.08
				c1.59,4.86,5.04,9.02,9.35,11.81c4.3,2.79,9.45,4.22,14.43,3.62c4.98-0.6,8.84-3.11,11.06-6.69c2.22-3.58,2.8-8.22,1.21-13.08
				C425.31,551.51,421.85,547.35,417.55,544.56z"/>
		</g>
		<g>
			<path class="st1" d="M1322,623.44c-8.21-3.51-17.73-3.64-26.48-1.01c-8.75,2.62-16.73,8.01-21.88,15.52
				c-5.14,7.52-6.47,15.75-4.45,22.97c2.01,7.22,7.37,13.45,15.58,16.96c8.21,3.51,17.73,3.64,26.48,1.02
				c8.75-2.63,16.73-8.01,21.88-15.52c5.14-7.52,6.47-15.74,4.45-22.97C1335.56,633.17,1330.21,626.95,1322,623.44L1322,623.44z
				 M1296.76,626.89c7.37-2.21,15.38-2.1,22.29,0.85c6.91,2.95,11.42,8.19,13.11,14.27c1.69,6.08,0.58,13.01-3.75,19.34
				c-4.33,6.33-11.05,10.86-18.41,13.07c-7.37,2.21-15.38,2.1-22.29-0.85c-6.91-2.95-11.42-8.19-13.11-14.27
				c-1.69-6.08-0.58-13.01,3.75-19.34C1282.67,633.63,1289.39,629.1,1296.76,626.89z"/>
			<path class="st1" d="M1367.36,584.79c-5.48-2.34-11.83-2.43-17.67-0.68c-5.84,1.75-11.16,5.34-14.59,10.35
				c-3.43,5.01-4.31,10.5-2.97,15.32c1.34,4.82,4.91,8.97,10.39,11.31c5.48,2.34,11.83,2.43,17.67,0.68
				c5.84-1.75,11.16-5.34,14.59-10.36c3.43-5.01,4.31-10.5,2.97-15.32C1376.4,591.28,1372.83,587.13,1367.36,584.79L1367.36,584.79z
				 M1350.52,587.09c4.91-1.47,10.26-1.4,14.87,0.57c4.61,1.97,7.62,5.47,8.75,9.52c1.13,4.06,0.39,8.68-2.5,12.9
				c-2.89,4.22-7.37,7.24-12.28,8.72c-4.91,1.47-10.26,1.4-14.87-0.57c-4.61-1.97-7.62-5.46-8.75-9.52
				c-1.13-4.06-0.39-8.68,2.5-12.9C1341.12,591.59,1345.61,588.57,1350.52,587.09z"/>
		</g>
		<g>
			<g>
				<path class="st1" d="M819.55,133.11l36.89,8.99c3.06,0.74,5.32,2.86,6.28,5.86c0.95,3,0.32,6.04-1.74,8.41l-26.54,30.5
					c-2.19,2.51-5.36,3.54-8.61,2.78c-3.25-0.76-5.64-3.09-6.48-6.31L809,143.84c-0.8-3.07,0-6.1,2.23-8.36
					C813.45,133.21,816.46,132.35,819.55,133.11L819.55,133.11z M846.99,145.1l-20.26-4.94c-3.08-0.75-6.1,0.11-8.33,2.37
					c-2.22,2.26-3.03,5.29-2.23,8.36l5.68,21.68c0.84,3.22,3.23,5.55,6.48,6.31c3.24,0.76,6.42-0.26,8.61-2.78l14.57-16.75
					c2.07-2.37,2.69-5.41,1.74-8.41C852.31,147.96,850.05,145.84,846.99,145.1z"/>
				<path class="st1" d="M768.87,164.96l15.48-16.2c1.28-1.34,3.03-1.88,4.85-1.48c1.81,0.4,3.18,1.61,3.78,3.37l7.75,22.56
					c0.64,1.86,0.23,3.78-1.12,5.22c-1.35,1.43-3.24,1.97-5.14,1.45l-23.23-6.36c-1.81-0.49-3.12-1.8-3.62-3.61
					C767.12,168.11,767.57,166.31,768.87,164.96L768.87,164.96z M783.09,154.48l-8.5,8.89c-1.29,1.35-1.74,3.15-1.24,4.95
					c0.5,1.8,1.81,3.11,3.62,3.61l12.76,3.49c1.9,0.52,3.79-0.02,5.14-1.45c1.35-1.43,1.76-3.36,1.12-5.22l-4.26-12.39
					c-0.6-1.76-1.97-2.97-3.78-3.37C786.12,152.6,784.37,153.13,783.09,154.48z"/>
			</g>
			<path class="st1" d="M1491.54,357.14l6.29,21.5c0.52,1.78,0.11,3.56-1.14,4.94c-1.25,1.37-2.99,1.95-4.81,1.59l-23.41-4.57
				c-1.93-0.38-3.39-1.7-3.96-3.58c-0.57-1.88-0.09-3.79,1.31-5.17l17.12-16.94c1.33-1.32,3.12-1.8,4.93-1.33
				C1489.68,354.06,1491.01,355.35,1491.54,357.14L1491.54,357.14z M1493.5,374.7l-3.45-11.81c-0.53-1.8-1.85-3.08-3.67-3.55
				c-1.81-0.47-3.6,0.01-4.93,1.33l-9.4,9.3c-1.4,1.38-1.88,3.29-1.31,5.17c0.57,1.88,2.03,3.2,3.96,3.58l12.86,2.51
				c1.82,0.35,3.56-0.22,4.81-1.59C1493.61,378.27,1494.03,376.49,1493.5,374.7z"/>
			<path class="st1" d="M535.64,204.83l-18.34,12.86c-1.52,1.07-2.31,2.72-2.19,4.57c0.12,1.85,1.12,3.39,2.76,4.25l21.14,11.06
				c1.74,0.91,3.71,0.79,5.33-0.32c1.62-1.11,2.43-2.91,2.21-4.86l-2.79-23.92c-0.22-1.86-1.31-3.35-3.02-4.12
				C539.02,203.57,537.18,203.75,535.64,204.83L535.64,204.83z M523.14,217.31l10.07-7.06c1.53-1.08,3.38-1.25,5.08-0.49
				c1.71,0.77,2.8,2.26,3.02,4.12l1.53,13.14c0.23,1.95-0.59,3.75-2.21,4.86c-1.62,1.11-3.59,1.23-5.33,0.32l-11.61-6.07
				c-1.65-0.86-2.64-2.39-2.76-4.25C520.83,220.02,521.62,218.38,523.14,217.31z"/>
		</g>
		<path class="st1" d="M1162.41,866.54c4.35-1,8.15,1.19,9.78,4.88l109.01-38.34c-0.15-4.03,2.57-7.74,6.65-8.68
			c4.62-1.07,9.23,1.81,10.3,6.43c1.07,4.62-1.81,9.23-6.43,10.3c-0.93,0.22-1.86,0.27-2.76,0.18l-17.17,56.23
			c3.45,1.91,5.22,6.03,4.03,9.95c-1.38,4.5-6.14,7.04-10.65,5.67c-3.85-1.17-6.26-4.82-6.02-8.67l-88.11-24.22
			c-1.16,1.45-1.47,2.23-4.76,2.99c-3.28,0.76-9.23-1.81-10.3-6.43C1154.91,872.22,1158.06,867.54,1162.41,866.54L1162.41,866.54z
			 M1285.57,840.24c-1.58-0.89-2.87-2.27-3.64-4l-109.01,38.34c0.03,0.85-0.06,1.68-0.27,2.48l87.42,24.03
			c1.58-3.07,4.89-4.88,8.32-4.58L1285.57,840.24z"/>
		<g>
			<g>
				<path class="st1" d="M911.89,434.93c4.75,0,8.62-3.87,8.62-8.62c0-4.75-3.87-8.62-8.62-8.62c-4.75,0-8.62,3.87-8.62,8.62
					C903.27,431.05,907.15,434.93,911.89,434.93z"/>
				<path class="st1" d="M924.09,382.79c2.2,0,3.99-1.79,3.99-3.99c0-2.2-1.79-3.99-3.99-3.99s-3.99,1.79-3.99,3.99
					C920.09,381,921.89,382.79,924.09,382.79z"/>
				<path class="st1" d="M390.33,208.73c2.78,0,5.04-2.27,5.04-5.05c0-2.78-2.27-5.05-5.04-5.05c-2.78,0-5.05,2.27-5.05,5.05
					C385.28,206.46,387.55,208.73,390.33,208.73z"/>
				<path class="st1" d="M1131.04,290.91c3.64,0,6.61-2.97,6.61-6.61c0-3.64-2.97-6.61-6.61-6.61c-3.64,0-6.61,2.97-6.61,6.61
					C1124.43,287.94,1127.4,290.91,1131.04,290.91z"/>
				<circle class="st1" cx="1196.32" cy="668.28" r="5.47"/>
				<path class="st1" d="M674.43,840.27c4.63,0,8.4-3.77,8.4-8.4c0-4.63-3.77-8.4-8.4-8.4s-8.4,3.77-8.4,8.4
					C666.03,836.5,669.81,840.27,674.43,840.27z"/>
				<path class="st1" d="M831.72,840.4c3.69,0,6.71-3.01,6.71-6.71s-3.01-6.71-6.71-6.71c-3.69,0-6.71,3.01-6.71,6.71
					S828.02,840.4,831.72,840.4z"/>
				<path class="st1" d="M510.58,752.79c1.39,0,2.52-1.13,2.52-2.52c0-1.39-1.13-2.52-2.52-2.52s-2.52,1.13-2.52,2.52
					C508.05,751.65,509.19,752.79,510.58,752.79z"/>
			</g>
			<path class="st1" d="M686.22,204.34c4.88,0,8.83,3.95,8.83,8.83c0,4.88-3.95,8.83-8.83,8.83c-4.88,0-8.83-3.95-8.83-8.83
				C677.39,208.3,681.35,204.34,686.22,204.34L686.22,204.34z M654.48,195.93c2.21,0,4,1.79,4,4c0,2.21-1.79,4-4,4
				c-2.21,0-4-1.79-4-4C650.48,197.72,652.27,195.93,654.48,195.93z"/>
		</g>
		<g>
			<path class="st1" d="M556.36,842.02l43.82-5.27c2.3-0.28,4.51,0.41,6.21,1.75c1.7,1.33,2.89,3.31,3.17,5.62l5.27,43.82
				c0.28,2.3-0.41,4.51-1.75,6.21c-1.33,1.7-3.32,2.89-5.62,3.17l-43.82,5.27c-2.3,0.28-4.51-0.41-6.21-1.75
				c-1.7-1.33-2.89-3.31-3.17-5.62L549,851.4c-0.28-2.3,0.41-4.51,1.75-6.21C552.08,843.49,554.06,842.3,556.36,842.02
				L556.36,842.02z M600.54,839.65l-43.82,5.27c-1.5,0.18-2.79,0.96-3.67,2.07c-0.87,1.11-1.32,2.55-1.14,4.05l5.27,43.82
				c0.18,1.5,0.96,2.79,2.07,3.67c1.11,0.87,2.55,1.32,4.05,1.14l43.82-5.27c1.5-0.18,2.79-0.96,3.67-2.07
				c0.87-1.11,1.32-2.55,1.14-4.05l-5.27-43.82c-0.18-1.5-0.96-2.79-2.07-3.67C603.48,839.93,602.04,839.47,600.54,839.65z"/>
			<path class="st1" d="M548.36,775.52l43.83-5.27c2.3-0.28,4.51,0.41,6.21,1.75c1.7,1.33,2.89,3.31,3.17,5.62l5.27,43.82
				c0.28,2.3-0.41,4.51-1.75,6.21c-1.33,1.7-3.32,2.89-5.62,3.17l-43.83,5.28c-2.3,0.28-4.51-0.41-6.21-1.75
				c-1.7-1.33-2.89-3.32-3.17-5.62l-5.27-43.82c-0.28-2.3,0.41-4.51,1.75-6.21C544.07,776.99,546.05,775.8,548.36,775.52z"/>
			<path class="st1" d="M552.14,805.69c-1.76-1.38-2.07-3.93-0.69-5.7c1.38-1.76,3.93-2.07,5.7-0.69l13.13,10.31l17.96-22.88
				c1.38-1.76,3.93-2.07,5.7-0.69c1.76,1.38,2.07,3.93,0.69,5.7l-20.15,25.66c-1.56,1.98-4.45,2.33-6.43,0.77L552.14,805.69z"/>
		</g>
	</g>
	<path class="st4" d="M1161.99,129.8c0,0,212.91,62.39,214.81,72.47c1.9,10.08-59.95,140.55-79.18,140.88
		c-19.23,0.33-163.91-41.92-163.91-41.92S1149.97,121.14,1161.99,129.8z"/>
	<path class="st2" d="M1171.75,147.44c0,0,187.21,51.8,188.87,60.21c1.3,6.61-32.12,75.32-54.71,104.6
		c-3.24-10.19-9.09-27.37-12.29-29.24c-4.58-2.68-41.9,11.38-41.9,11.38s-27.4-50.43-33.24-57.58c-4.52-5.52-47.33,1.86-66.55,5.5
		C1157.13,199.04,1165.21,142.97,1171.75,147.44z"/>
	<path class="st1" d="M1286.41,207.55c11.38,0.84,20.09,10.65,19.47,21.93c-0.62,11.27-10.35,19.73-21.73,18.89
		c-11.38-0.84-20.09-10.65-19.47-21.93C1265.3,215.17,1275.03,206.71,1286.41,207.55z"/>
	<path class="st4" d="M900.98,162.81c-1.61,29.87,10.87,90.07,21.87,98.56c13.94,10.75,145.64,30.88,153.07,19.21
		c6.28-9.87,30.22-86.48,29.23-112.42c-19.2,13.7-93.85,66.45-103.36,65.72C994.92,233.34,938.26,191.1,900.98,162.81z"/>
	<path class="st6" d="M1100.47,159.55c-16.87-2.06-182.56-22.03-194.89-12.64c-1.07,0.81-1.93,2.2-2.62,4.05
		c36.21,27.67,95.45,72.38,100.62,72.78C1009.68,224.21,1083.22,171.89,1100.47,159.55z"/>
	<path class="st1" d="M1103.44,159.78l-2.72-0.4c-16.82,12.03-91,64.84-97.13,64.37c-5.31-0.41-67.63-47.55-103.48-74.97
		c-1.51,3.09-2.87,6.6-3.84,10.44c37,28.16,98.37,74.1,105.54,74.66c9.86,0.76,89.69-55.95,105.24-67.07
		C1106.43,162.86,1105.27,160.35,1103.44,159.78z"/>
	<path class="st1" d="M1110.88,148.19c-12.16-7.71-28.31-4.72-36.06,6.69c-7.75,11.41-4.17,26.91,8,34.62
		c12.16,7.71,28.31,4.72,36.06-6.69C1126.63,171.41,1123.05,155.91,1110.88,148.19z"/>
	<g>
		<path class="st1" d="M263.75,340.79c11-0.9,22.06-1.77,33.16-2.66c11.14-0.89,22.35-1.81,33.62-2.69
			c2.79-0.22,6.26,1.78,7.65,4.41c5.61,10.64,11.21,21.29,16.64,31.92c5.43,10.62,10.73,21.26,16.01,31.88
			c1.32,2.66,0.29,5.02-2.24,5.25c-9.93,0.89-19.82,1.77-29.67,2.66c-9.79,0.88-19.54,1.76-29.25,2.65
			c-2.44,0.22-5.64-1.68-7.26-4.31c-6.54-10.61-13.17-21.25-19.89-31.86c-6.73-10.62-13.68-21.26-20.57-31.89
			c-0.88-1.37-1.16-2.58-0.81-3.62C261.49,341.47,262.39,340.9,263.75,340.79L263.75,340.79z M329.08,338.52
			c-10.2,0.81-20.37,1.63-30.46,2.44c-10.07,0.81-20.13,1.62-30.11,2.43c-1.36,0.11-2.26,0.71-2.61,1.75
			c-0.35,1.04-0.09,2.25,0.78,3.6c6.25,9.68,12.5,19.36,18.59,29.03c6.09,9.67,12.12,19.37,18.05,29.04
			c1.6,2.61,4.84,4.54,7.26,4.32c8.88-0.81,17.8-1.62,26.75-2.42c9-0.81,18.07-1.62,27.13-2.44c2.52-0.23,3.53-2.59,2.2-5.23
			c-4.86-9.67-9.74-19.36-14.74-29.04c-4.99-9.67-10.06-19.36-15.21-29.06C335.3,340.29,331.84,338.3,329.08,338.52z"/>
		<path class="st1" d="M286.97,357.93c0,0,7.86-8.38,17.22-7.78c9.36,0.6,23.84,5.77,34.23,22.7
			c10.39,16.93,11.83,10.05,12.91,12.11c1.08,2.06,4.31,8.21,6.45,12.32c0,0-11.74,6.61-19.68-5.84c0,0,0.57,12.91-16.42,11.16
			c-16.98-1.75-25.92-20.25-23.31-25.25c2.61-5.01,17.57-11.91,26.04-5.85c0,0-16.9-13.63-23.79-3
			C296.1,364.99,291.55,361.45,286.97,357.93L286.97,357.93z M326.64,381.28c0,0-22.6-1.77-15.59,5.91
			c7.01,7.68,19.95,1.38,18.9-1.68C328.89,382.45,326.64,381.28,326.64,381.28z"/>
	</g>
	<g>
		<path class="st1" d="M348.55,335.78c11.38-0.89,22.81-1.77,34.29-2.65c11.52-0.88,23.15-1.72,34.76-2.62
			c2.93-0.23,6.13,1.75,7.16,4.38c4.14,10.62,8.24,21.19,12.2,31.75c3.97,10.58,7.83,21.15,11.65,31.72
			c0.95,2.64-0.41,4.97-3.04,5.19c-10.32,0.86-20.57,1.75-30.79,2.63c-10.18,0.88-20.29,1.74-30.37,2.63
			c-2.5,0.22-5.5-1.66-6.76-4.26c-5.14-10.59-10.33-21.17-15.62-31.73c-5.3-10.57-10.74-21.16-16.19-31.72
			c-0.69-1.34-0.78-2.53-0.25-3.57C346.13,336.5,347.1,335.89,348.55,335.78L348.55,335.78z M415.66,333.56
			c-10.53,0.81-21.05,1.56-31.5,2.38c-10.44,0.82-20.81,1.62-31.14,2.43c-1.44,0.11-2.42,0.72-2.95,1.75
			c-0.53,1.04-0.45,2.25,0.23,3.57c4.94,9.65,9.82,19.29,14.61,28.92c4.77,9.61,9.48,19.22,14.12,28.85
			c1.26,2.62,4.24,4.51,6.81,4.28c9.2-0.8,18.47-1.6,27.76-2.4c9.35-0.8,18.73-1.57,28.13-2.39c2.62-0.23,3.99-2.53,3.02-5.18
			c-3.53-9.63-7.09-19.28-10.75-28.91c-3.66-9.62-7.43-19.27-11.22-28.91C421.75,335.33,418.55,333.34,415.66,333.56z"/>
		<path class="st1" d="M361.44,346.21c5.11,8.88,10.21,17.73,15.14,26.58c4.93,8.84,9.8,17.7,14.6,26.57
			c5.13-0.35,10.28-0.72,15.43-1.08c-1.21-2.02-2.42-4.07-3.6-6.12c0,0,21.66,10.79,25.03-1.84c3.37-12.63-19.8-41.99-40.46-23.21
			c-3.53-8.01-7.06-16.03-10.65-24.04C376.93,343.07,364.93,344.45,361.44,346.21L361.44,346.21z M394.45,376.34
			c0,0,9.24-9.66,16.45-1.71c7.21,7.95-2.37,11.5-7.82,9.57C397.63,382.27,394.45,376.34,394.45,376.34z"/>
	</g>
	<g>
		<path class="st1" d="M373.09,433.39c0,0-29.2-13.17-36.26-3.02c-7.06,10.15-1.21,17.98,5.27,28.31
			c6.46,10.3,11.85,18.17,24.13,22.68c12.27,4.51,26.77-2.97,24.81-5c-1.96-2.02-7.86-8.08-11.85-12.13c0,0-12.77,13.68-25.03-6.86
			c-12.25-20.55,10.09-17.67,18.66-7.13C372.86,444.61,372.96,439.01,373.09,433.39z"/>
		<path class="st1" d="M312.73,419.51c9.86-0.92,19.77-1.82,29.72-2.72c10.01-0.91,20.07-1.83,30.2-2.72
			c2.5-0.22,5.61,1.74,6.88,4.41c5.07,10.62,10.14,21.24,15.03,31.83c4.88,10.57,9.68,21.18,14.4,31.77
			c1.19,2.66,0.28,5.01-1.98,5.23c-8.82,0.89-17.58,1.79-26.31,2.7c-8.68,0.9-17.33,1.8-25.91,2.7c-2.14,0.22-5.01-1.66-6.48-4.27
			c-5.98-10.6-12.06-21.2-18.22-31.78c-6.17-10.6-12.51-21.22-18.87-31.81c-0.81-1.34-1.07-2.56-0.76-3.6
			C310.74,420.22,311.49,419.63,312.73,419.51L312.73,419.51z M371.34,417.15c-9.14,0.83-18.24,1.64-27.32,2.47
			c-9.04,0.83-18.02,1.65-26.97,2.49c-1.26,0.12-2.03,0.7-2.33,1.74c-0.3,1.04-0.03,2.26,0.76,3.6
			c5.75,9.66,11.45,19.32,17.04,28.98c5.57,9.63,11.07,19.28,16.51,28.94c1.46,2.6,4.35,4.51,6.49,4.29
			c7.87-0.82,15.78-1.64,23.73-2.47c7.97-0.83,15.98-1.6,24.08-2.45c2.24-0.24,3.12-2.61,1.94-5.24
			c-4.36-9.65-8.78-19.29-13.27-28.96c-4.48-9.65-9.13-19.33-13.78-28.99C376.95,418.93,373.86,416.92,371.34,417.15z"/>
	</g>
	<path class="st6" d="M386.77,414.26c10.19-0.9,20.45-1.83,30.75-2.72c10.35-0.89,20.74-1.82,31.17-2.72
		c2.6-0.22,5.51,1.76,6.41,4.39c3.65,10.61,7.29,21.23,10.78,31.79c3.49,10.58,6.92,21.18,10.25,31.75
		c0.84,2.67-0.41,4.99-2.73,5.22c-9.14,0.91-18.27,1.8-27.3,2.7c-9.01,0.89-17.98,1.79-26.88,2.7c-2.22,0.23-4.9-1.68-6.04-4.29
		c-4.63-10.57-9.27-21.16-14.07-31.73c-4.81-10.58-9.76-21.17-14.71-31.76c-0.64-1.37-0.71-2.57-0.26-3.61
		C384.6,414.96,385.47,414.37,386.77,414.26z"/>
</g>
</svg>
