<?xml version="1.0" encoding="utf-8"?>
<!-- Generator: Adobe Illustrator 23.0.1, SVG Export Plug-In . SVG Version: 6.00 Build 0)  -->
<svg version="1.1" id="Layer_1" xmlns="http://www.w3.org/2000/svg" xmlns:xlink="http://www.w3.org/1999/xlink" x="0px" y="0px"
	 viewBox="0 0 1920 1080" style="enable-background:new 0 0 1920 1080;" xml:space="preserve">
<style type="text/css">
	.st0{fill:#393B36;}
	.st1{fill:#FFFFFF;}
	.st2{fill:#E2E3E5;}
	.st3{fill:#626360;}
	.st4{fill:#65CDF2;}
	.st5{fill:#FF6D3A;}
	.st6{fill:#F15525;}
	.st7{opacity:0.3;fill:#272825;}
	.st8{fill:#61635F;}
	.st9{opacity:0.3;fill:#FFF9F3;}
	.st10{fill:#C1C1C1;}
	.st11{fill:#CECECE;}
	.st12{fill:#388CA3;}
	.st13{fill:#F4F4F4;}
	.st14{opacity:0.2;fill:#FFF9F3;}
	.st15{opacity:0.7;fill:#FFFEFD;}
	.st16{fill:#272825;}
	.st17{fill:#D9F7FF;}
	.st18{fill:#39AAC9;}
	.st19{opacity:0.3;}
	.st20{fill:#FFF9F3;}
</style>
<g>
	<g>
		<g>
			<g>
				
					<rect x="340.87" y="513.67" transform="matrix(0.9134 -0.4071 0.4071 0.9134 -194.3809 219.6083)" class="st0" width="156.12" height="105.94"/>
				<g>
					
						<rect x="307.78" y="488.41" transform="matrix(0.838 -0.5456 0.5456 0.838 -209.641 291.3006)" class="st0" width="156.12" height="20.71"/>
					<path class="st1" d="M363.05,524.06l-8.98,5.85l3.17-22.97l8.98-5.85L363.05,524.06z M318.81,535.96l6.75,10.36l2.84-20.62
						l-8.98,5.85L318.81,535.96z M385.12,488.78l-8.98,5.85l-3.17,22.97l8.98-5.85L385.12,488.78z M347.31,513.39l-8.98,5.85
						l-3.17,22.97l8.98-5.85L347.31,513.39z M450.11,457.34l-1.52,11.02l6.1-3.97L450.11,457.34z M404.02,476.47l-8.98,5.85
						l-3.17,22.97l8.98-5.85L404.02,476.47z M441.84,451.85l-8.98,5.85l-3.17,22.97l8.98-5.85L441.84,451.85z M422.93,464.16
						l-8.98,5.85l-3.17,22.97l8.98-5.85L422.93,464.16z"/>
				</g>
				<path d="M329.16,548.78c-0.7-1.56-2.52-2.26-4.08-1.57c-1.56,0.7-2.26,2.52-1.57,4.08c0.7,1.56,2.52,2.26,4.08,1.57
					C329.15,552.17,329.85,550.34,329.16,548.78z"/>
			</g>
			
				<rect x="335.32" y="544.54" transform="matrix(0.9134 -0.4071 0.4071 0.9134 -186.5704 213.7226)" class="st1" width="147.36" height="1.59"/>
			
				<rect x="352.83" y="583.83" transform="matrix(0.9134 -0.4071 0.4071 0.9134 -201.0468 224.2525)" class="st1" width="147.36" height="1.59"/>
			
				<rect x="360.62" y="601.29" transform="matrix(0.9134 -0.4071 0.4071 0.9134 -207.4799 228.9311)" class="st1" width="147.36" height="1.59"/>
			
				<rect x="400.13" y="596.37" transform="matrix(0.9133 -0.4072 0.4072 0.9133 -212.3215 215.7974)" class="st1" width="1.44" height="20.74"/>
			
				<rect x="457.49" y="570.81" transform="matrix(0.9134 -0.4072 0.4072 0.9134 -196.9286 236.9133)" class="st1" width="1.44" height="20.74"/>
		</g>
		<rect x="361.39" y="610.09" transform="matrix(0.9134 -0.4071 0.4071 0.9134 -211.3451 231.9511)" width="156.12" height="5.15"/>
	</g>
	<path class="st2" d="M1630.39,340.28l-60.2,26.83c-0.03-0.07-0.09-0.12-0.13-0.18l55.25-35.97l-4.87-7.49l-56.43,36.74l4.2,6.45
		c-0.48,0.37-0.69,1.01-0.43,1.59c0.29,0.64,1.01,0.93,1.66,0.7l17.14,38.46l0,0l0.9,2.03l61.5-27.41L1630.39,340.28z"/>
	<g>
		<g>
			<g>
				<path class="st3" d="M540.3,506.75c-9.12-9.12-9.12-23.95,0-33.06c9.12-9.12,23.95-9.12,33.06,0c9.12,9.12,9.12,23.95,0,33.06
					C564.25,515.86,549.42,515.86,540.3,506.75z"/>
				<path class="st2" d="M570.39,503.78c7.49-7.49,7.49-19.63,0-27.12c-7.49-7.49-19.63-7.49-27.12,0c-7.49,7.49-7.49,19.63,0,27.12
					C550.76,511.27,562.9,511.27,570.39,503.78z"/>
				<g>
					<path d="M549.82,500.32l-3.91,3.91l-2.5-2.5l3.78-3.78c-2.2-2.5-3.07-5.16-3.09-7.69l3.65-0.18c0.08,2.28,0.82,4.29,2.58,6.06
						c1.81,1.81,4.01,2.27,5.67,0.61c1.43-1.43,1.35-2.79-0.49-6.26c-2.5-4.7-2.58-7.69-0.03-10.25c2.53-2.53,6.19-2.35,9.33,0.08
						l3.76-3.76l2.5,2.5l-3.76,3.76c1.51,1.97,2.12,3.96,2.17,6.21l-3.53,0.2c-0.1-2.2-0.87-3.83-2.27-5.24
						c-1.53-1.53-3.32-1.94-4.65-0.61c-1.23,1.23-1.12,2.45,0.84,6.16c2.04,3.94,2.86,7.21-0.33,10.4
						C556.98,502.52,553.35,502.77,549.82,500.32z"/>
				</g>
			</g>
			<g>
				
					<ellipse transform="matrix(0.0825 -0.9966 0.9966 0.0825 -491.3295 1115.3605)" class="st4" cx="360.08" cy="824.52" rx="31.01" ry="31.01"/>
				<circle class="st1" cx="360.08" cy="824.52" r="25.43"/>
				<g>
					<path class="st4" d="M362.97,840.57v7.34h-4.7v-7.1c-4.41-0.29-7.72-1.97-10.12-4.32l3.26-3.59c2.21,2.06,4.79,3.26,8.1,3.26
						c3.4,0,5.9-1.63,5.9-4.75c0-2.68-1.34-3.88-6.33-5.42c-6.76-2.06-9.64-4.79-9.64-9.59c0-4.75,3.59-8.01,8.82-8.68v-7.05h4.7
						v7.05c3.26,0.43,5.7,1.73,7.86,3.79l-3.12,3.5c-2.16-1.96-4.41-2.78-7.05-2.78c-2.88,0-4.94,1.29-4.94,3.79
						c0,2.3,1.25,3.36,6.57,4.99c5.61,1.77,9.44,4.07,9.44,10.07C371.74,835.92,368.58,839.56,362.97,840.57z"/>
				</g>
			</g>
			<g>
				
					<ellipse transform="matrix(0.5663 -0.8242 0.8242 0.5663 243.1485 1568.4542)" class="st5" cx="1611.92" cy="553.19" rx="31.01" ry="31.01"/>
				<path class="st2" d="M1634.98,563.93c5.93-12.73,0.42-27.86-12.31-33.79c-12.73-5.93-27.86-0.42-33.79,12.32
					c-5.93,12.73-0.42,27.86,12.32,33.79C1613.92,582.17,1629.05,576.66,1634.98,563.93z"/>
				<g>
					<path class="st5" d="M1607.77,568.96l-3.1,6.65l-4.26-1.98l3-6.43c-3.88-2.12-6.17-5.04-7.35-8.18l4.47-1.88
						c1.13,2.8,2.97,4.98,5.97,6.38c3.08,1.44,6.03,1.01,7.35-1.81c1.13-2.43,0.42-4.09-3.45-7.58c-5.26-4.72-6.71-8.41-4.69-12.76
						c2-4.3,6.64-5.74,11.66-4.14l2.98-6.39l4.26,1.98l-2.98,6.39c2.77,1.77,4.44,3.97,5.53,6.75l-4.3,1.86
						c-1.13-2.69-2.82-4.38-5.21-5.5c-2.61-1.21-5.02-0.91-6.08,1.35c-0.97,2.09-0.29,3.57,3.85,7.29
						c4.34,3.98,6.84,7.68,4.31,13.11C1617.69,568.45,1613.28,570.41,1607.77,568.96z"/>
				</g>
			</g>
		</g>
	</g>
	<path class="st6" d="M1659.23,932.98c0,2.77-2.25,5.02-5.02,5.02H323.07c-2.77,0-5.02-2.25-5.02-5.02v-20.31
		c0-2.77,2.25-5.02,5.02-5.02h1331.13c2.77,0,5.02,2.25,5.02,5.02V932.98z"/>
	<g>
		<path class="st3" d="M565.07,701.1c0,4.49-3.64,8.14-8.14,8.14l-90,0c-4.49,0-8.14-3.64-8.14-8.14V589.95
			c0-4.49,3.64-8.14,8.14-8.14l90,0c4.49,0,8.14,3.64,8.14,8.14V701.1z"/>
		<path class="st2" d="M563.72,697.58c0,4.49-3.64,8.14-8.14,8.14l-90,0c-4.49,0-8.14-3.64-8.14-8.14V586.43
			c0-4.49,3.64-8.14,8.14-8.14l90,0c4.49,0,8.14,3.64,8.14,8.14L563.72,697.58z"/>
		<path class="st1" d="M465.58,703.87c-3.46,0-6.28-2.82-6.28-6.28V586.43c0-3.46,2.82-6.28,6.28-6.28l90,0
			c3.46,0,6.28,2.82,6.28,6.28l0,111.15c0,3.46-2.82,6.28-6.28,6.28L465.58,703.87z"/>
		<path class="st4" d="M565.35,599.61v-13.17c0-5.38-4.38-9.76-9.76-9.76l-90,0c-5.38,0-9.76,4.38-9.76,9.76v13.17L565.35,599.61z"
			/>
		<g>
			<g>
				<circle class="st3" cx="466.22" cy="583.97" r="3.61"/>
				<path class="st5" d="M468.42,584.04c0,1.24-1.01,2.25-2.25,2.25l0,0c-1.24,0-2.25-1.01-2.25-2.25l0-10.22
					c0-1.24,1.01-2.25,2.25-2.25l0,0c1.24,0,2.25,1.01,2.25,2.25V584.04z"/>
			</g>
			<g>
				<circle class="st3" cx="476.07" cy="583.97" r="3.61"/>
				<path class="st5" d="M478.27,584.04c0,1.24-1.01,2.25-2.25,2.25l0,0c-1.24,0-2.25-1.01-2.25-2.25v-10.22
					c0-1.24,1.01-2.25,2.25-2.25l0,0c1.24,0,2.25,1.01,2.25,2.25V584.04z"/>
			</g>
			<g>
				<circle class="st3" cx="485.92" cy="583.97" r="3.61"/>
				<path class="st5" d="M488.13,584.04c0,1.24-1.01,2.25-2.25,2.25l0,0c-1.24,0-2.25-1.01-2.25-2.25v-10.22
					c0-1.24,1.01-2.25,2.25-2.25l0,0c1.24,0,2.25,1.01,2.25,2.25V584.04z"/>
			</g>
			<g>
				<path class="st3" d="M499.39,583.97c0,1.99-1.62,3.61-3.61,3.61s-3.61-1.62-3.61-3.61c0-1.99,1.62-3.61,3.61-3.61
					C497.77,580.36,499.39,581.98,499.39,583.97z"/>
				<path class="st5" d="M497.98,584.04c0,1.24-1.01,2.25-2.25,2.25l0,0c-1.24,0-2.25-1.01-2.25-2.25v-10.22
					c0-1.24,1.01-2.25,2.25-2.25l0,0c1.24,0,2.25,1.01,2.25,2.25V584.04z"/>
			</g>
		</g>
		<g>
			<g>
				<circle class="st3" cx="525.01" cy="583.97" r="3.61"/>
				<path class="st5" d="M527.21,584.04c0,1.24-1.01,2.25-2.25,2.25l0,0c-1.24,0-2.25-1.01-2.25-2.25v-10.22
					c0-1.24,1.01-2.25,2.25-2.25l0,0c1.24,0,2.25,1.01,2.25,2.25V584.04z"/>
			</g>
			<g>
				<circle class="st3" cx="534.86" cy="583.97" r="3.61"/>
				<path class="st5" d="M537.06,584.04c0,1.24-1.01,2.25-2.25,2.25l0,0c-1.24,0-2.25-1.01-2.25-2.25v-10.22
					c0-1.24,1.01-2.25,2.25-2.25l0,0c1.24,0,2.25,1.01,2.25,2.25V584.04z"/>
			</g>
			<g>
				<circle class="st3" cx="544.72" cy="583.97" r="3.61"/>
				<path class="st5" d="M546.92,584.04c0,1.24-1.01,2.25-2.25,2.25l0,0c-1.24,0-2.25-1.01-2.25-2.25v-10.22
					c0-1.24,1.01-2.25,2.25-2.25l0,0c1.24,0,2.25,1.01,2.25,2.25V584.04z"/>
			</g>
			<g>
				<path class="st3" d="M558.18,583.97c0,1.99-1.62,3.61-3.61,3.61c-1.99,0-3.61-1.62-3.61-3.61s1.62-3.61,3.61-3.61
					C556.56,580.36,558.18,581.98,558.18,583.97z"/>
				<path class="st5" d="M556.77,584.04c0,1.24-1.01,2.25-2.25,2.25l0,0c-1.24,0-2.25-1.01-2.25-2.25v-10.22
					c0-1.24,1.01-2.25,2.25-2.25l0,0c1.24,0,2.25,1.01,2.25,2.25V584.04z"/>
			</g>
		</g>
		<rect x="466.51" y="607.21" class="st3" width="9.19" height="2.61"/>
		<rect x="480.58" y="607.21" class="st3" width="9.19" height="2.61"/>
		<rect x="494.65" y="607.21" class="st3" width="9.19" height="2.61"/>
		<rect x="508.73" y="607.21" class="st3" width="9.19" height="2.61"/>
		<rect x="522.8" y="607.21" class="st3" width="9.19" height="2.61"/>
		<rect x="536.87" y="607.21" class="st5" width="9.19" height="2.61"/>
		<rect x="550.94" y="607.21" class="st5" width="9.19" height="2.61"/>
		<rect x="494.65" y="615.83" class="st3" width="9.19" height="11.76"/>
		<rect x="508.73" y="615.83" class="st3" width="9.19" height="11.76"/>
		<rect x="522.8" y="615.83" class="st3" width="9.19" height="11.76"/>
		<rect x="536.87" y="615.83" class="st5" width="9.19" height="11.76"/>
		<rect x="550.94" y="615.83" class="st5" width="9.19" height="11.76"/>
		<rect x="466.51" y="633.03" class="st3" width="9.19" height="11.76"/>
		<rect x="479.09" y="631.11" class="st4" width="12.18" height="15.59"/>
		<rect x="494.65" y="633.03" class="st3" width="9.19" height="11.76"/>
		<rect x="508.73" y="633.03" class="st3" width="9.19" height="11.76"/>
		<rect x="522.8" y="633.03" class="st3" width="9.19" height="11.76"/>
		<rect x="536.87" y="633.03" class="st5" width="9.19" height="11.76"/>
		<rect x="550.94" y="633.03" class="st5" width="9.19" height="11.76"/>
		<rect x="466.51" y="650.22" class="st3" width="9.19" height="11.76"/>
		<rect x="480.58" y="650.22" class="st3" width="9.19" height="11.76"/>
		<rect x="494.65" y="650.22" class="st3" width="9.19" height="11.76"/>
		<rect x="508.73" y="650.22" class="st3" width="9.19" height="11.76"/>
		<rect x="522.8" y="650.22" class="st3" width="9.19" height="11.76"/>
		<rect x="536.87" y="650.22" class="st5" width="9.19" height="11.76"/>
		<rect x="550.94" y="650.22" class="st5" width="9.19" height="11.76"/>
		<rect x="466.51" y="667.41" class="st3" width="9.19" height="11.76"/>
		<rect x="480.58" y="667.41" class="st3" width="9.19" height="11.76"/>
		<rect x="494.65" y="667.41" class="st3" width="9.19" height="11.76"/>
		<rect x="508.73" y="667.41" class="st3" width="9.19" height="11.76"/>
		<rect x="522.8" y="667.41" class="st3" width="9.19" height="11.76"/>
		<rect x="536.87" y="667.41" class="st5" width="9.19" height="11.76"/>
		<rect x="550.94" y="667.41" class="st5" width="9.19" height="11.76"/>
		<rect x="466.51" y="684.61" class="st3" width="9.19" height="11.76"/>
		<rect x="480.58" y="684.61" class="st3" width="9.19" height="11.76"/>
		<rect x="494.65" y="684.61" class="st3" width="9.19" height="11.76"/>
		<rect x="508.73" y="684.61" class="st3" width="9.19" height="11.76"/>
	</g>
	<g>
		<path class="st0" d="M1445.27,898.33l-91.21-91.21l41.25-41.25c2.04-2.04,2.04-5.35,0-7.39c-2.04-2.04-5.35-2.04-7.39,0
			l-41.25,41.25l-41.25-41.25c-2.04-2.04-5.35-2.04-7.39,0c-2.04,2.04-2.04,5.35,0,7.39l41.25,41.25l-91.21,91.21
			c-2.04,2.04-2.04,5.35,0,7.39c2.04,2.04,5.35,2.04,7.39,0l91.21-91.21l91.21,91.21c2.04,2.04,5.35,2.04,7.39,0
			C1447.31,903.68,1447.31,900.37,1445.27,898.33z"/>
		<path class="st5" d="M1451.84,644.44v-19.42c0-2.39-1.94-4.33-4.33-4.33c-2.39,0-4.33,1.94-4.33,4.33v28.07L1451.84,644.44z"/>
		<g>
			<path class="st5" d="M1458.17,652.52h21.04c2.39,0,4.33,1.94,4.33,4.33c0,2.39-1.94,4.33-4.33,4.33h-28.65
				c-0.32,0-0.63-0.04-0.93-0.11L1458.17,652.52z"/>
		</g>
		<path class="st5" d="M1466.72,629.57v-19.42c0-2.39-1.94-4.33-4.32-4.33c-2.39,0-4.33,1.94-4.33,4.33v28.07L1466.72,629.57z"/>
		<g>
			<path class="st5" d="M1473.04,637.64h21.04c2.39,0,4.33,1.94,4.33,4.33c0,2.39-1.94,4.33-4.33,4.33h-28.66
				c-0.32,0-0.63-0.04-0.93-0.11L1473.04,637.64z"/>
		</g>
		<path class="st5" d="M1481.6,614.69v-19.42c0-2.39-1.94-4.33-4.33-4.33c-2.39,0-4.33,1.94-4.33,4.33v28.07L1481.6,614.69z"/>
		<g>
			<path class="st5" d="M1487.92,622.77h21.04c2.39,0,4.33,1.94,4.33,4.33c0,2.39-1.94,4.33-4.33,4.33h-28.66
				c-0.32,0-0.63-0.04-0.93-0.11L1487.92,622.77z"/>
		</g>
		<g>
			
				<ellipse transform="matrix(0.7071 -0.7071 0.7071 0.7071 -143.2247 1174.6722)" class="st0" cx="1346.34" cy="760.22" rx="135.38" ry="135.38"/>
			
				<ellipse transform="matrix(0.7071 -0.7071 0.7071 0.7071 -143.2247 1174.6722)" class="st6" cx="1346.34" cy="760.22" rx="128.55" ry="128.55"/>
			
				<ellipse transform="matrix(0.226 -0.9741 0.9741 0.226 301.543 1899.9482)" class="st2" cx="1346.34" cy="760.22" rx="105.8" ry="105.8"/>
			
				<ellipse transform="matrix(0.2268 -0.9739 0.9739 0.2268 300.6041 1899.0868)" class="st6" cx="1346.34" cy="760.22" rx="83.05" ry="83.05"/>
			
				<ellipse transform="matrix(0.2276 -0.9738 0.9738 0.2276 299.6594 1898.2186)" class="st2" cx="1346.34" cy="760.22" rx="60.29" ry="60.29"/>
			
				<ellipse transform="matrix(0.2284 -0.9736 0.9736 0.2284 298.7089 1897.3438)" class="st6" cx="1346.34" cy="760.22" rx="37.54" ry="37.54"/>
			<path class="st0" d="M1346.34,775.01c-8.15,0-14.79-6.63-14.79-14.79c0-8.15,6.63-14.79,14.79-14.79
				c8.15,0,14.79,6.63,14.79,14.79C1361.13,768.38,1354.5,775.01,1346.34,775.01z"/>
		</g>
		<path class="st7" d="M1347.39,760.22h134.33c0-37.97-15.63-72.28-40.81-96.86C1441.7,664.15,1347.39,760.22,1347.39,760.22z"/>
		<path class="st0" d="M1491.43,612.16c2.04,2.04,2.04,5.35,0,7.39L1351.59,759.4c-2.04,2.04-5.35,2.04-7.39,0l0,0
			c-2.04-2.04-2.04-5.35,0-7.39l139.85-139.85C1486.08,610.12,1489.39,610.12,1491.43,612.16L1491.43,612.16z"/>
	</g>
	<g>
		<g>
			<g>
				<g>
					<path class="st0" d="M997.9,811.58v-29.72H821.36v29.72c0,34.08-16.3,64.27-41.45,83.47h259.3
						C1014.11,875.84,997.9,845.63,997.9,811.58z"/>
					<path class="st8" d="M1016.72,871.48H802.47c-6.27,8.97-13.87,16.94-22.56,23.58h259.3
						C1030.54,888.42,1022.97,880.45,1016.72,871.48z"/>
					<path class="st0" d="M1046.62,900.73c0,4.51-3.66,8.17-8.17,8.17H780.19c-4.51,0-8.17-3.66-8.17-8.17l0,0
						c0-4.51,3.66-8.17,8.17-8.17h258.26C1042.96,892.56,1046.62,896.22,1046.62,900.73L1046.62,900.73z"/>
				</g>
				<g>
					<path class="st0" d="M1204.98,811.33c0,5.42-4.39,9.81-9.81,9.81H623.45c-5.42,0-9.81-4.39-9.81-9.81V444.21
						c0-5.42,4.39-9.81,9.81-9.81h571.72c5.42,0,9.81,4.39,9.81,9.81V811.33z"/>
					<rect x="628.53" y="448.72" class="st5" width="563.53" height="313.43"/>
					<polygon class="st6" points="636.76,459.7 1192.06,459.7 1192.06,448.72 628.53,448.72 628.53,762.15 636.76,762.15 					"/>
					<path class="st2" d="M613.65,776.52v34.81c0,5.42,4.39,9.81,9.81,9.81h571.72c5.42,0,9.81-4.39,9.81-9.81v-34.81H613.65z"/>
				</g>
			</g>
			<path class="st9" d="M826.14,434.41H623.46c-5.42,0-9.81,4.39-9.81,9.81V646.9L826.14,434.41z"/>
		</g>
		
			<ellipse transform="matrix(0.7071 -0.7071 0.7071 0.7071 -164.5188 821.4481)" class="st1" cx="909.32" cy="609.32" rx="127.08" ry="127.08"/>
		<polygon class="st0" points="863.36,532.3 1001.04,611.79 863.36,691.27 		"/>
	</g>
	<g>
		<g>
			<g>
				<g>
					<path class="st10" d="M1130.76,907.41c-3.16,0-5.73-2.57-5.73-5.73V747.09c0-3.16,2.57-5.73,5.73-5.73h79.12
						c3.16,0,5.73,2.57,5.73,5.73v154.59c0,3.16-2.57,5.73-5.73,5.73H1130.76z"/>
					<path class="st2" d="M1214.46,901.68c0,2.53-2.05,4.58-4.58,4.58h-79.12c-2.53,0-4.58-2.05-4.58-4.58V747.09
						c0-2.53,2.05-4.58,4.58-4.58h79.12c2.53,0,4.58,2.05,4.58,4.58V901.68z"/>
					<rect x="1128.52" y="758.67" class="st4" width="83.61" height="131.43"/>
					<path class="st11" d="M1183.85,748.79c0,0.21-0.17,0.38-0.38,0.38h-25.76c-0.21,0-0.38-0.17-0.38-0.38l0,0
						c0-0.21,0.17-0.38,0.38-0.38h25.76C1183.68,748.41,1183.85,748.58,1183.85,748.79L1183.85,748.79z M1183.85,750.03
						c0-0.21-0.17-0.38-0.38-0.38h-25.76c-0.21,0-0.38,0.17-0.38,0.38l0,0c0,0.21,0.17,0.38,0.38,0.38h25.76
						C1183.68,750.41,1183.85,750.24,1183.85,750.03L1183.85,750.03z M1183.85,751.28c0-0.21-0.17-0.38-0.38-0.38h-25.76
						c-0.21,0-0.38,0.17-0.38,0.38l0,0c0,0.21,0.17,0.38,0.38,0.38h25.76C1183.68,751.66,1183.85,751.49,1183.85,751.28
						L1183.85,751.28z"/>
					<polygon class="st12" points="1129.95,760.68 1212.12,760.68 1212.12,758.67 1128.52,758.67 1128.52,890.1 1129.95,890.1 					
						"/>
					<path class="st13" d="M1128.82,901.69V750.28c0-2.43,2.03-4.41,4.53-4.41h78.95c0.55,0,1.07,0.11,1.56,0.28
						c-0.59-1.78-2.25-3.08-4.22-3.08h-77.86c-2.47,0-4.47,2-4.47,4.47v153.37c0,2.07,1.42,3.8,3.34,4.3
						C1129.55,904.41,1128.82,903.14,1128.82,901.69z"/>
				</g>
				<path class="st14" d="M1185.43,742.51h-54.67c-2.53,0-4.58,2.05-4.58,4.58v54.67L1185.43,742.51z"/>
			</g>
		</g>
		<rect x="1134.85" y="833.25" class="st0" width="10.01" height="50.43"/>
		<rect x="1150.86" y="829.42" class="st5" width="10.01" height="54.25"/>
		<rect x="1166.87" y="818.63" class="st1" width="10.01" height="65.05"/>
		<rect x="1182.88" y="807.24" class="st6" width="10.01" height="76.44"/>
		<rect x="1198.89" y="789.05" class="st0" width="10.01" height="94.63"/>
		<path class="st1" d="M1206.86,777.77c0-1.58-1.28-2.86-2.86-2.86s-2.86,1.28-2.86,2.86s1.28,2.86,2.86,2.86
			S1206.86,779.35,1206.86,777.77z"/>
		<path class="st1" d="M1190.75,796.4c0-1.58-1.28-2.86-2.86-2.86s-2.86,1.28-2.86,2.86c0,1.58,1.28,2.86,2.86,2.86
			S1190.75,797.98,1190.75,796.4z"/>
		<path class="st1" d="M1175.01,809.67c0-1.58-1.28-2.86-2.86-2.86s-2.86,1.28-2.86,2.86s1.28,2.86,2.86,2.86
			S1175.01,811.25,1175.01,809.67z"/>
		<path class="st1" d="M1142.79,825.95c0-1.58-1.28-2.86-2.86-2.86s-2.86,1.28-2.86,2.86c0,1.58,1.28,2.86,2.86,2.86
			S1142.79,827.53,1142.79,825.95z"/>
		<path class="st1" d="M1158.72,821.83c0-1.58-1.28-2.86-2.86-2.86s-2.86,1.28-2.86,2.86s1.28,2.86,2.86,2.86
			S1158.72,823.42,1158.72,821.83z"/>
		<g>
			<polygon class="st1" points="1140.2,827.42 1139.66,825.55 1155.42,820.95 1171.56,808.89 1187.26,795.66 1203.26,777.13 
				1204.73,778.41 1188.63,797.04 1172.77,810.41 1156.13,822.77 			"/>
		</g>
	</g>
	<g>
		<rect x="1147.2" y="381.65" class="st2" width="6.56" height="33.04"/>
		<rect x="1157.69" y="379.15" class="st2" width="6.56" height="35.55"/>
		<rect x="1168.18" y="372.07" class="st2" width="6.56" height="42.62"/>
		<rect x="1178.67" y="364.61" class="st2" width="6.56" height="50.08"/>
		<rect x="1189.16" y="352.69" class="st2" width="6.56" height="62"/>
		<path class="st2" d="M1150.53,378.75c0.86,0,1.55-0.59,1.78-1.38l7.18-2.1c0.34,0.46,0.86,0.78,1.48,0.78
			c1.04,0,1.88-0.84,1.88-1.88c0-0.2-0.06-0.38-0.11-0.56l7.9-5.87c0.3,0.19,0.63,0.33,1.01,0.33c1.04,0,1.88-0.84,1.88-1.88
			c0-0.23-0.06-0.44-0.13-0.64l7.65-6.45c0.28,0.16,0.58,0.28,0.92,0.28c1.04,0,1.88-0.84,1.88-1.88c0-0.33-0.11-0.63-0.26-0.9
			l8.27-9.57c0.21,0.08,0.43,0.13,0.66,0.13c1.04,0,1.88-0.84,1.88-1.88c0-1.04-0.84-1.88-1.88-1.88c-1.04,0-1.88,0.84-1.88,1.88
			c0,0.33,0.11,0.63,0.26,0.9l-8.27,9.57c-0.21-0.08-0.43-0.14-0.67-0.14c-1.04,0-1.88,0.84-1.88,1.88c0,0.23,0.06,0.44,0.13,0.64
			l-7.66,6.45c-0.27-0.16-0.58-0.27-0.92-0.27c-1.04,0-1.88,0.84-1.88,1.88c0,0.19,0.06,0.36,0.11,0.53l-7.9,5.9
			c-0.29-0.19-0.63-0.33-1-0.33c-0.99,0-1.78,0.78-1.85,1.75l-6.91,2.02c-0.3-0.63-0.93-1.07-1.68-1.07c-1.04,0-1.88,0.84-1.88,1.88
			C1148.65,377.91,1149.49,378.75,1150.53,378.75z"/>
	</g>
	<g>
		<path class="st1" d="M1601.34,858.72l-16.71-1.51l1.54,11.12l18.38,13.92l1.61-17.76
			C1606.41,861.56,1604.26,858.98,1601.34,858.72z"/>
		<path class="st0" d="M1603.79,800.42l22.02-32.24c8.83-12.92,5.51-30.55-7.42-39.38s-30.55-5.51-39.38,7.42l-22.02,32.24
			L1603.79,800.42z"/>
		<path class="st2" d="M1618.1,868.86c-7.5,2.05-16.4,2.6-32.95-10.08l-25.57,22.91c19.64,15.16,65.11,41.31,76.73,13.03
			C1648.39,865.3,1626.07,866.69,1618.1,868.86z"/>
		<path class="st10" d="M1626.63,885.64c-0.79,1.73-1.68,3.33-2.66,4.76c0,0,0,0,0,0c-3.34,4.89-7.7,7.99-13.32,9.46
			c-5.13,1.35-10.84,1.2-16.72,0.07c9.48,4,19.05,6.43,26.81,5.2c5.17-0.82,9.01-3.16,11.74-7.16c0,0,0,0,0,0
			c0.8-1.17,1.5-2.5,2.1-3.95c4.06-9.9,4.45-17.12,1.12-20.89c-1.1-1.24-2.56-2.06-4.18-2.6
			C1630.97,874.62,1629.34,879.69,1626.63,885.64z"/>
		<path class="st6" d="M1583.15,849.73c4.69,2.7,6.3,8.7,3.6,13.39l-14.69,25.51c-2.7,4.69-8.7,6.3-13.39,3.6l-9.8-5.64
			c-4.69-2.7-6.3-8.7-3.6-13.39l14.69-25.51c2.7-4.69,8.7-6.3,13.39-3.6L1583.15,849.73z"/>
		<g>
			<path class="st2" d="M1523.54,711.83c17.62,52.14,6.77,87.33,2.35,98.71l55.86,38.15c9.19-8.52,38.9-32.64,80.59-42.06
				L1523.54,711.83z"/>
			<path class="st15" d="M1534.31,719.19c16.58,42.35,1.67,83.91-3.16,94.94l14.91,10.18c0,0,23.59-54.94-11.22-104.76
				L1534.31,719.19z"/>
			<path class="st10" d="M1566.18,838.05l10.17,6.95c8.51-8.57,35.21-32.74,76.51-44.84
				C1652.86,800.16,1617.74,798.09,1566.18,838.05z"/>
			<g>
				<path class="st4" d="M1524.16,808.45l-28.36,41.51c-11.37,16.64-7.09,39.34,9.55,50.71c16.64,11.37,39.34,7.09,50.71-9.55
					l28.36-41.51L1524.16,808.45z"/>
				<g>
					<path class="st0" d="M1491.03,881.11l8.41-12.31c0.9-1.32,0.56-3.11-0.76-4.01c-1.32-0.9-3.11-0.56-4.01,0.76l-5.11,7.48
						C1489.75,875.77,1490.23,878.48,1491.03,881.11z"/>
					<path class="st0" d="M1529.57,885.89c-1.32-0.9-3.11-0.56-4.01,0.76l-12.34,18.06c1.92,0.72,3.88,1.29,5.85,1.66l11.25-16.47
						C1531.22,888.59,1530.89,886.79,1529.57,885.89z"/>
					<path class="st0" d="M1515.26,879.61l-12.85,18.82c0.93,0.79,1.92,1.53,2.95,2.24c0.58,0.4,1.18,0.73,1.78,1.09l12.9-18.89
						c0.9-1.32,0.56-3.11-0.76-4.01C1517.95,877.96,1516.16,878.3,1515.26,879.61z"/>
					<path class="st0" d="M1539.87,892.92c-1.32-0.9-3.11-0.56-4.01,0.76l-9.09,13.31c2.59-0.06,5.16-0.4,7.68-1.01l6.18-9.04
						C1541.52,895.62,1541.18,893.82,1539.87,892.92z"/>
					<path class="st0" d="M1504.96,872.58l-10.81,15.82c1.01,1.8,2.15,3.52,3.48,5.15l12.1-17.72c0.9-1.32,0.56-3.11-0.76-4.01
						C1507.66,870.93,1505.86,871.26,1504.96,872.58z"/>
				</g>
				<path class="st14" d="M1530.36,865.69c-8.77,12.85-22.58,18.74-30.79,13.14c-8.2-5.6-7.74-20.61,1.04-33.46l22.6-33.09
					l29.75,20.32L1530.36,865.69z"/>
			</g>
		</g>
		<path class="st4" d="M1671.17,793.01c4,2.73,5.03,8.19,2.3,12.2l0,0c-2.73,4-8.19,5.03-12.2,2.3l-138.44-94.56
			c-4-2.73-5.03-8.19-2.3-12.2l0,0c2.73-4,8.19-5.03,12.2-2.3L1671.17,793.01z"/>
		<path class="st14" d="M1569.43,727.43c2.74,1.87,3.44,5.61,1.57,8.34l0,0c-1.87,2.74-5.61,3.44-8.34,1.57l-40.43-27.61
			c-2.74-1.87-3.44-5.61-1.57-8.34l0,0c1.87-2.74,5.61-3.44,8.34-1.57L1569.43,727.43z"/>
	</g>
	<path class="st2" d="M409.33,243l-6.53-18.49c4.4-2.52,6.52-7.89,4.77-12.84c-1.75-4.95-6.77-7.8-11.78-6.99l-7.55-21.36
		c-0.61-1.73-2.5-2.63-4.23-2.02c-1.73,0.61-2.63,2.5-2.02,4.23l0.21,0.59c-6.18,18.87-16.77,27.04-20.8,29.67l-0.31-0.87
		l-17.9,6.32c-5.1,1.8-8.47,6.31-9.08,11.34l0,0v0c-0.05,0.38-0.08,0.76-0.09,1.15c0,0.03,0,0.06,0,0.09
		c-0.05,1.65,0.19,3.34,0.77,5c0.51,1.45,1.26,2.76,2.16,3.91c0.02,0.03,0.05,0.06,0.07,0.09c0.83,1.05,1.81,1.95,2.89,2.7l0,0l0,0
		c0.4,0.28,0.81,0.53,1.23,0.76c0.01,0,0.02,0.01,0.03,0.01c0.42,0.23,0.86,0.44,1.3,0.63l0,0l0,0c3.04,1.27,6.54,1.48,9.9,0.29
		l0.12-0.04l0.43,0.96c0.75,1.7,2.61,2.53,4.35,2.06c3.59,9.27,10.53,21.04,18.74,16.01c10.24-6.27,3.14-10.82,0.22-11.94
		c-1.31-0.5-2.64-1.19-3.91-2.58l1.25-1.42c0.73-0.83,0.65-2.1-0.18-2.83l-3.79-3.33c0.57-0.91,0.71-2.04,0.36-3.11l0.3-0.11
		l-0.32-0.9c4.89-0.53,18.71-1.09,33.03,4.94l0.1,0.28c0.61,1.73,2.5,2.63,4.23,2.02C409.03,246.62,409.94,244.72,409.33,243z"/>
	<g>
		<g>
			<g>
				<path class="st0" d="M581.68,833.33c0,6.24-5.06,11.29-11.29,11.29h-97.5c-6.24,0-11.29-5.06-11.29-11.29v-64.58
					c0-6.24,5.06-11.29,11.29-11.29h97.5c6.24,0,11.29,5.06,11.29,11.29V833.33z"/>
			</g>
			<path class="st0" d="M673.33,895.76c0,7.73-6.26,13.99-13.99,13.99h-59.96c-7.73,0-13.99-6.26-13.99-13.99v-132.8
				c0-7.73,6.26-13.99,13.99-13.99h59.96c7.73,0,13.99,6.26,13.99,13.99V895.76z"/>
			<path class="st8" d="M659.34,752.96h-59.96c-5.51,0-9.99,4.48-9.99,9.99v18.66c0-5.51,4.48-9.99,9.99-9.99h59.96
				c5.51,0,9.99,4.48,9.99,9.99v-18.66C669.33,757.44,664.85,752.96,659.34,752.96z"/>
			<circle class="st0" cx="583.44" cy="800.98" r="8.86"/>
			<g>
				<circle class="st16" cx="628.87" cy="796.21" r="48.72"/>
				
					<ellipse transform="matrix(0.2218 -0.9751 0.9751 0.2218 -286.9875 1232.8235)" class="st2" cx="628.87" cy="796.21" rx="43.66" ry="43.66"/>
				<circle class="st0" cx="628.87" cy="796.21" r="31.95"/>
				
					<ellipse transform="matrix(0.2222 -0.975 0.975 0.2222 -287.1899 1232.3987)" class="st4" cx="628.87" cy="796.21" rx="26.89" ry="26.89"/>
				<path class="st17" d="M614.99,813.54c0,1.53,0.16,3.03,0.42,4.49c3.87,2.33,8.38,3.69,13.22,3.69
					c14.21,0,25.76-11.56,25.76-25.76c0-1.53-0.16-3.03-0.42-4.49c-3.87-2.33-8.38-3.69-13.22-3.69
					C626.54,787.78,614.99,799.33,614.99,813.54z"/>
			</g>
			<circle class="st6" cx="660.85" cy="843.18" r="4.02"/>
			<g>
				<path class="st16" d="M657.35,866.67c0,0.97-0.78,1.75-1.75,1.75h-50.97c-0.97,0-1.75-0.78-1.75-1.75l0,0
					c0-0.97,0.78-1.75,1.75-1.75h50.97C656.57,864.92,657.35,865.7,657.35,866.67L657.35,866.67z"/>
				<path class="st16" d="M657.35,874.16c0,0.97-0.78,1.75-1.75,1.75h-50.97c-0.97,0-1.75-0.78-1.75-1.75l0,0
					c0-0.97,0.78-1.75,1.75-1.75h50.97C656.57,872.41,657.35,873.2,657.35,874.16L657.35,874.16z"/>
				<path class="st16" d="M657.35,881.66c0,0.97-0.78,1.75-1.75,1.75h-50.97c-0.97,0-1.75-0.78-1.75-1.75l0,0
					c0-0.97,0.78-1.75,1.75-1.75h50.97C656.57,879.91,657.35,880.69,657.35,881.66L657.35,881.66z"/>
				<path class="st16" d="M657.35,889.16c0,0.97-0.78,1.75-1.75,1.75h-50.97c-0.97,0-1.75-0.78-1.75-1.75l0,0
					c0-0.97,0.78-1.75,1.75-1.75h50.97C656.57,887.41,657.35,888.19,657.35,889.16L657.35,889.16z"/>
			</g>
			<path class="st16" d="M657.4,896.64h-56.07c-7.23,0-13.08-5.86-13.08-13.08v9.81c0,7.23,5.86,13.08,13.08,13.08h56.07
				c7.23,0,13.08-5.86,13.08-13.08v-9.81C670.48,890.78,664.62,896.64,657.4,896.64z"/>
		</g>
		<rect x="468.88" y="764.63" class="st4" width="104.92" height="72.38"/>
		<circle class="st1" cx="522.32" cy="801.02" r="24.76"/>
		<polygon class="st6" points="511.94,786.02 538.76,801.51 511.94,816.99 		"/>
		<polygon class="st18" points="471.29,768.25 573.8,768.25 573.8,764.63 468.88,764.63 468.88,837.01 471.29,837.01 		"/>
		<g class="st19">
			<path class="st20" d="M523.83,757.46h-50.94c-6.24,0-11.29,5.06-11.29,11.29v50.94L523.83,757.46z"/>
		</g>
	</g>
	<g>
		<path class="st4" d="M1329.72,360.47c-0.2,0-0.39,0.01-0.59,0.01v55.8l-43.67,35.48c10.34,13.08,26.33,21.5,44.26,21.5
			c31.1,0,56.4-25.3,56.4-56.4C1386.12,385.78,1360.82,360.47,1329.72,360.47z"/>
		<g>
			<path class="st0" d="M1328.81,346.67c-38.77,0-70.2,31.43-70.2,70.2s31.43,70.2,70.2,70.2s70.2-31.43,70.2-70.2
				S1367.58,346.67,1328.81,346.67z M1328.81,477.77c-33.58,0-60.9-27.32-60.9-60.9c0-33.58,27.32-60.9,60.9-60.9
				s60.9,27.32,60.9,60.9C1389.71,450.45,1362.39,477.77,1328.81,477.77z"/>
			<path class="st0" d="M1332.86,337.22c0-2.24-1.81-4.05-4.05-4.05l0,0c-2.24,0-4.05,1.81-4.05,4.05v27c0,2.24,1.81,4.05,4.05,4.05
				l0,0c2.24,0,4.05-1.81,4.05-4.05V337.22z"/>
			<path class="st0" d="M1332.86,468.85c0-2.24-1.81-4.05-4.05-4.05l0,0c-2.24,0-4.05,1.81-4.05,4.05v27c0,2.24,1.81,4.05,4.05,4.05
				l0,0c2.24,0,4.05-1.81,4.05-4.05V468.85z"/>
			<path class="st0" d="M1408.13,420.59c2.24,0,4.05-1.81,4.05-4.05l0,0c0-2.24-1.81-4.05-4.05-4.05h-27
				c-2.24,0-4.05,1.81-4.05,4.05l0,0c0,2.24,1.81,4.05,4.05,4.05H1408.13z"/>
			<path class="st0" d="M1276.5,420.59c2.24,0,4.05-1.81,4.05-4.05l0,0c0-2.24-1.81-4.05-4.05-4.05h-27c-2.24,0-4.05,1.81-4.05,4.05
				l0,0c0,2.24,1.81,4.05,4.05,4.05H1276.5z"/>
		</g>
		<g>
			<path class="st6" d="M1326.49,450.33v-53.89l-14.86,9.01l-5.55-8.52l21.69-13.27h11.19v66.67H1326.49z"/>
		</g>
	</g>
	<g>
		<path class="st2" d="M1594.77,641.56h-4.05c-0.95-15.47-13.36-27.84-28.85-28.72v-4.19c0-0.98-0.79-1.77-1.77-1.77
			c-0.98,0-1.77,0.79-1.77,1.77v4.19c-15.49,0.88-27.9,13.25-28.85,28.72h-4.05c-0.98,0-1.77,0.79-1.77,1.77
			c0,0.98,0.79,1.77,1.77,1.77h4.03c0.81,15.61,13.29,28.13,28.88,29.01v3.89c0,0.98,0.79,1.77,1.77,1.77
			c0.98,0,1.77-0.79,1.77-1.77v-3.89c15.59-0.89,28.06-13.41,28.88-29.01h4.03c0.98,0,1.77-0.79,1.77-1.77
			C1596.54,642.35,1595.75,641.56,1594.77,641.56z M1561.87,670.04v-3.83c0-0.98-0.79-1.77-1.77-1.77c-0.98,0-1.77,0.79-1.77,1.77
			v3.83c-13.32-0.88-23.99-11.6-24.8-24.94h3.7c0.98,0,1.77-0.79,1.77-1.77c0-0.98-0.79-1.77-1.77-1.77h-3.68
			c0.95-13.2,11.55-23.77,24.78-24.64v3.54c0,0.98,0.79,1.77,1.77,1.77c0.98,0,1.77-0.79,1.77-1.77v-3.54
			c13.22,0.87,23.83,11.44,24.78,24.64h-3.68c-0.98,0-1.77,0.79-1.77,1.77c0,0.98,0.79,1.77,1.77,1.77h3.7
			C1585.86,658.44,1575.19,669.16,1561.87,670.04z"/>
		<polygon class="st2" points="1550.16,634.76 1552.59,638.49 1559.08,634.54 1559.08,658.1 1564.54,658.1 1564.54,628.96 
			1559.64,628.96 		"/>
	</g>
	<g>
		<g>
			<polygon class="st3" points="1420.62,606.68 1359.02,568.14 1419.74,529.46 1423.83,535.89 1373.3,568.08 1424.66,600.22 			"/>
		</g>
		<path class="st5" d="M1437.02,532.68c0,8.42-6.82,15.24-15.24,15.24c-8.42,0-15.24-6.82-15.24-15.24
			c0-8.42,6.82-15.24,15.24-15.24C1430.2,517.44,1437.02,524.26,1437.02,532.68z"/>
		<path class="st5" d="M1437.02,602.01c0,8.42-6.82,15.24-15.24,15.24c-8.42,0-15.24-6.82-15.24-15.24
			c0-8.42,6.82-15.24,15.24-15.24C1430.2,586.77,1437.02,593.59,1437.02,602.01z"/>
		<path class="st5" d="M1366.55,582.58c-8.42,0-15.24-6.82-15.24-15.24c0-8.42,6.82-15.24,15.24-15.24
			c8.42,0,15.24,6.82,15.24,15.24C1381.79,575.76,1374.97,582.58,1366.55,582.58z"/>
	</g>
	<path class="st2" d="M1466.71,327.13c-2.74,0-5.2,1.15-6.95,2.99l-18.88-11.81c0.41-1.06,0.64-2.21,0.64-3.42
		c0-0.94-0.14-1.84-0.39-2.69l19.04-12.13c1.71,1.6,4.01,2.59,6.54,2.59c5.3,0,9.6-4.3,9.6-9.6s-4.3-9.6-9.6-9.6
		c-5.3,0-9.6,4.3-9.6,9.6c0,1.04,0.17,2.03,0.47,2.97l-18.91,12.05c-1.73-1.72-4.12-2.78-6.75-2.78c-5.3,0-9.6,4.3-9.6,9.6
		c0,5.3,4.3,9.6,9.6,9.6c2.36,0,4.51-0.85,6.18-2.26l19.33,12.09c-0.2,0.77-0.32,1.57-0.32,2.4c0,5.3,4.3,9.6,9.6,9.6
		c5.3,0,9.6-4.3,9.6-9.6C1476.31,331.43,1472.01,327.13,1466.71,327.13z"/>
	<g>
		<path class="st3" d="M596.55,342.31c-29.88,0-54.1,24.22-54.1,54.1c0,29.88,24.22,54.1,54.1,54.1c29.88,0,54.1-24.22,54.1-54.1
			C650.65,366.53,626.43,342.31,596.55,342.31z M596.55,447.8c-28.34,0-51.39-23.05-51.39-51.39c0-28.34,23.06-51.39,51.39-51.39
			s51.39,23.05,51.39,51.39C647.94,424.75,624.89,447.8,596.55,447.8z"/>
		<g>
			<g>
				<path class="st5" d="M630.09,385.45c0-2.62-1.69-4.94-6.29-4.94l-22.57,0c0,0,4.37-7.79,4.37-17.85
					c0-10.21-9.36-12.31-11.64-3.44c-1.4,5.43-3.07,11.49-8.47,17.13c-4.77,4.99-10.38,7.93-10.38,15.17v22.37
					c0,7.24,5.87,13.12,13.12,13.12l35.25,0.01c4.26,0,6.61-1.56,6.61-4.67v-0.82c0-3.28-2.65-4.53-4.37-4.95
					c1.72-0.42,4.37-1.45,4.37-4.4v-1.64c0-2.95-2.65-4.2-4.37-4.62c1.72-0.42,4.37-1.94,4.37-4.56v-3.11c0-2.79-2.65-4.39-4.37-4.8
					c1.72-0.42,4.37-1.92,4.37-4.87V385.45z"/>
				<path class="st6" d="M599.83,413.31c-7.65-4.65-14.28-11.15-19.53-18.37c-1.48-2.04-2.88-4.17-4.15-6.38
					c-0.24,0.91-0.38,1.88-0.38,2.97v22.37c0,6.87,5.59,12.46,12.46,12.46l35.25,0.01c3.95,0,5.96-1.35,5.96-4.02v-0.82
					c0-0.28-0.03-0.54-0.07-0.79C619.12,421.11,608.88,418.81,599.83,413.31z"/>
				<rect x="565.99" y="386.93" class="st2" width="9.84" height="33.01"/>
				<rect x="565.99" y="412.6" class="st10" width="9.84" height="6.55"/>
				<rect x="565.99" y="387.54" class="st15" width="9.84" height="6.55"/>
				<rect x="554.41" y="385.62" class="st0" width="13.88" height="35.63"/>
			</g>
			<rect x="554.41" y="410.77" width="13.88" height="9.45"/>
			<rect x="554.41" y="386.53" class="st3" width="13.88" height="9.45"/>
		</g>
	</g>
	<g>
		<rect x="716.6" y="830.14" width="35.34" height="7.65"/>
		<rect x="711.6" y="839.82" class="st3" width="40.35" height="60.27"/>
		<rect x="716.6" y="901.55" width="35.34" height="7.65"/>
		<rect x="708.95" y="837.79" class="st3" width="50.64" height="3.64"/>
		<rect x="708.95" y="897.9" class="st3" width="50.64" height="3.64"/>
		<path d="M711.19,841.43v56.47h76.82v-56.47H711.19z M714.34,894.91c0,0.95-0.3,1.71-0.68,1.71h-0.99c-0.37,0-0.68-0.77-0.68-1.71
			v-0.78c0-0.95,0.3-1.71,0.68-1.71h0.99c0.37,0,0.68,0.77,0.68,1.71V894.91z M714.34,845.15c0,0.95-0.3,1.71-0.68,1.71h-0.99
			c-0.37,0-0.68-0.77-0.68-1.71v-0.78c0-0.95,0.3-1.71,0.68-1.71h0.99c0.37,0,0.68,0.77,0.68,1.71V845.15z M720.6,894.91
			c0,0.95-0.63,1.71-1.41,1.71h-2.07c-0.78,0-1.41-0.77-1.41-1.71v-0.78c0-0.95,0.63-1.71,1.41-1.71h2.07
			c0.78,0,1.41,0.77,1.41,1.71V894.91z M720.6,845.15c0,0.95-0.63,1.71-1.41,1.71h-2.07c-0.78,0-1.41-0.77-1.41-1.71v-0.78
			c0-0.95,0.63-1.71,1.41-1.71h2.07c0.78,0,1.41,0.77,1.41,1.71V845.15z M728.85,894.91c0,0.95-0.77,1.71-1.71,1.71h-2.52
			c-0.95,0-1.71-0.77-1.71-1.71v-0.78c0-0.95,0.77-1.71,1.71-1.71h2.52c0.95,0,1.71,0.77,1.71,1.71V894.91z M728.85,845.15
			c0,0.95-0.77,1.71-1.71,1.71h-2.52c-0.95,0-1.71-0.77-1.71-1.71v-0.78c0-0.95,0.77-1.71,1.71-1.71h2.52
			c0.95,0,1.71,0.77,1.71,1.71V845.15z M737.1,894.91c0,0.95-0.77,1.71-1.71,1.71h-2.52c-0.95,0-1.71-0.77-1.71-1.71v-0.78
			c0-0.95,0.77-1.71,1.71-1.71h2.52c0.95,0,1.71,0.77,1.71,1.71V894.91z M737.1,845.15c0,0.95-0.77,1.71-1.71,1.71h-2.52
			c-0.95,0-1.71-0.77-1.71-1.71v-0.78c0-0.95,0.77-1.71,1.71-1.71h2.52c0.95,0,1.71,0.77,1.71,1.71V845.15z M745.35,894.91
			c0,0.95-0.77,1.71-1.71,1.71h-2.52c-0.95,0-1.71-0.77-1.71-1.71v-0.78c0-0.95,0.77-1.71,1.71-1.71h2.52
			c0.95,0,1.71,0.77,1.71,1.71V894.91z M745.35,845.15c0,0.95-0.77,1.71-1.71,1.71h-2.52c-0.95,0-1.71-0.77-1.71-1.71v-0.78
			c0-0.95,0.77-1.71,1.71-1.71h2.52c0.95,0,1.71,0.77,1.71,1.71V845.15z M753.59,894.91c0,0.95-0.77,1.71-1.71,1.71h-2.52
			c-0.95,0-1.71-0.77-1.71-1.71v-0.78c0-0.95,0.77-1.71,1.71-1.71h2.52c0.95,0,1.71,0.77,1.71,1.71V894.91z M753.59,845.15
			c0,0.95-0.77,1.71-1.71,1.71h-2.52c-0.95,0-1.71-0.77-1.71-1.71v-0.78c0-0.95,0.77-1.71,1.71-1.71h2.52
			c0.95,0,1.71,0.77,1.71,1.71V845.15z M761.84,894.91c0,0.95-0.77,1.71-1.71,1.71h-2.52c-0.95,0-1.71-0.77-1.71-1.71v-0.78
			c0-0.95,0.77-1.71,1.71-1.71h2.52c0.95,0,1.71,0.77,1.71,1.71V894.91z M761.84,845.15c0,0.95-0.77,1.71-1.71,1.71h-2.52
			c-0.95,0-1.71-0.77-1.71-1.71v-0.78c0-0.95,0.77-1.71,1.71-1.71h2.52c0.95,0,1.71,0.77,1.71,1.71V845.15z M770.09,894.91
			c0,0.95-0.77,1.71-1.71,1.71h-2.52c-0.95,0-1.71-0.77-1.71-1.71v-0.78c0-0.95,0.77-1.71,1.71-1.71h2.52
			c0.95,0,1.71,0.77,1.71,1.71V894.91z M770.09,845.15c0,0.95-0.77,1.71-1.71,1.71h-2.52c-0.95,0-1.71-0.77-1.71-1.71v-0.78
			c0-0.95,0.77-1.71,1.71-1.71h2.52c0.95,0,1.71,0.77,1.71,1.71V845.15z M778.34,894.91c0,0.95-0.77,1.71-1.71,1.71h-2.52
			c-0.95,0-1.71-0.77-1.71-1.71v-0.78c0-0.95,0.77-1.71,1.71-1.71h2.52c0.95,0,1.71,0.77,1.71,1.71V894.91z M778.34,845.15
			c0,0.95-0.77,1.71-1.71,1.71h-2.52c-0.95,0-1.71-0.77-1.71-1.71v-0.78c0-0.95,0.77-1.71,1.71-1.71h2.52
			c0.95,0,1.71,0.77,1.71,1.71V845.15z M786.59,894.91c0,0.95-0.77,1.71-1.71,1.71h-2.52c-0.95,0-1.71-0.77-1.71-1.71v-0.78
			c0-0.95,0.77-1.71,1.71-1.71h2.52c0.95,0,1.71,0.77,1.71,1.71V894.91z M786.59,845.15c0,0.95-0.77,1.71-1.71,1.71h-2.52
			c-0.95,0-1.71-0.77-1.71-1.71v-0.78c0-0.95,0.77-1.71,1.71-1.71h2.52c0.95,0,1.71,0.77,1.71,1.71V845.15z"/>
		<rect x="713.29" y="848.45" class="st4" width="30.29" height="42.44"/>
		<rect x="749.16" y="848.45" class="st5" width="35.94" height="42.44"/>
	</g>
	<g>
		<path class="st0" d="M1226.47,635.83c-35.39,0-65.22-33.57-77.95-59.39l-0.67-1.37l0.67-1.37c12.74-25.83,42.56-59.39,77.95-59.39
			c35.39,0,65.22,33.57,77.95,59.39l0.67,1.37l-0.67,1.37C1291.69,602.26,1261.86,635.83,1226.47,635.83z"/>
		<ellipse class="st1" cx="1226.47" cy="575.07" rx="75.18" ry="51.9"/>
		
			<ellipse transform="matrix(0.7071 -0.7071 0.7071 0.7071 -47.0007 1035.3986)" class="st4" cx="1226.34" cy="574.43" rx="42.72" ry="42.72"/>
		
			<ellipse transform="matrix(0.7071 -0.7071 0.7071 0.7071 -47.0007 1035.3986)" class="st0" cx="1226.34" cy="574.43" rx="24.05" ry="24.05"/>
		<polygon class="st5" points="1219.37,560.85 1243.43,574.75 1219.37,588.64 		"/>
		<g>
			<path class="st0" d="M1191.6,528.64c0.9-0.5,1.82-0.98,2.76-1.43l-6.6-16.93c-0.31-0.79-1.21-1.19-2-0.88
				c-0.79,0.31-1.19,1.21-0.88,2L1191.6,528.64z"/>
			<path class="st0" d="M1177.66,538.78c0.78-0.7,1.56-1.39,2.36-2.06l-7.17-11.6c-0.45-0.73-1.4-0.95-2.13-0.5
				c-0.73,0.45-0.95,1.4-0.5,2.13L1177.66,538.78z"/>
			<path class="st0" d="M1208.35,522.11c1-0.27,1.99-0.52,3-0.75l-4.61-20.45c-0.19-0.83-1.01-1.36-1.85-1.17s-1.36,1.01-1.17,1.85
				L1208.35,522.11z"/>
			<path class="st0" d="M1227.69,521.89v-23.65c0-0.85-0.69-1.55-1.55-1.55c-0.85,0-1.55,0.69-1.55,1.55v23.77
				C1225.63,521.95,1226.66,521.91,1227.69,521.89z"/>
			<path class="st0" d="M1166.43,550.2l-5.55-6.31c-0.56-0.64-1.54-0.7-2.18-0.14c-0.64,0.56-0.7,1.54-0.14,2.18l5.8,6.59
				C1165.04,551.75,1165.73,550.98,1166.43,550.2z"/>
		</g>
		<g>
			<path class="st0" d="M1260.7,528.64c-0.9-0.5-1.82-0.98-2.76-1.43l6.6-16.93c0.31-0.79,1.21-1.19,2-0.88
				c0.79,0.31,1.19,1.21,0.88,2L1260.7,528.64z"/>
			<path class="st0" d="M1274.64,538.78c-0.78-0.7-1.56-1.39-2.36-2.06l7.17-11.6c0.45-0.73,1.4-0.95,2.13-0.5
				c0.73,0.45,0.95,1.4,0.5,2.13L1274.64,538.78z"/>
			<path class="st0" d="M1243.96,522.11c-1-0.27-1.99-0.52-3-0.75l4.61-20.45c0.19-0.83,1.01-1.36,1.85-1.17s1.36,1.01,1.17,1.85
				L1243.96,522.11z"/>
			<path class="st0" d="M1285.88,550.2l5.55-6.31c0.56-0.64,1.54-0.7,2.18-0.14c0.64,0.56,0.7,1.54,0.14,2.18l-5.8,6.59
				C1287.26,551.75,1286.57,550.98,1285.88,550.2z"/>
		</g>
	</g>
	<g>
		<g>
			<path class="st5" d="M1568.98,503.48c-0.55,2.24-2.81,3.61-5.05,3.06l-95.76-23.45c-2.24-0.55-3.61-2.81-3.06-5.05l10.77-43.97
				c0.55-2.24,2.81-3.61,5.05-3.06l95.76,23.45c2.24,0.55,3.61,2.81,3.06,5.05L1568.98,503.48z"/>
			<path class="st2" d="M1567.51,455.66c0,0,0-0.01,0-0.01l-78.42-19.2c0,0,0,0.01,0,0.01c-1.32,5.39-6.76,8.69-12.16,7.37
				c0,0-0.01,0-0.01,0l-6.45,26.34c0,0,0.01,0,0.01,0c5.3,1.3,8.57,6.57,7.43,11.87l78.45,19.21c1.39-5.03,6.39-8.14,11.48-7.21
				l6.46-26.4C1569.26,466.09,1566.24,460.86,1567.51,455.66z"/>
			<path class="st5" d="M1528.8,444.21c-13.5-3.31-27.13,4.96-30.44,18.46c-3.31,13.5,4.96,27.13,18.46,30.44
				s27.13-4.96,30.44-18.46C1550.57,461.15,1542.31,447.52,1528.8,444.21z M1517.63,489.87c-11.69-2.86-18.88-14.71-16.01-26.4
				c2.86-11.69,14.71-18.88,26.4-16.01c11.69,2.86,18.88,14.71,16.01,26.4C1541.16,485.55,1529.32,492.73,1517.63,489.87z"/>
		</g>
		<g>
			<path class="st6" d="M1521.47,482.76l-1.49,6.09l-3.9-0.95l1.44-5.89c-3.6-1.14-6.01-3.2-7.52-5.64l3.44-2.32
				c1.41,2.16,3.32,3.68,6.06,4.35c2.82,0.69,5.22-0.15,5.86-2.74c0.55-2.23-0.33-3.5-4.15-5.78c-5.19-3.09-7.02-5.94-6.05-9.92
				c0.96-3.94,4.61-5.92,9.09-5.41l1.43-5.85l3.9,0.95l-1.43,5.85c2.62,1.02,4.38,2.59,5.76,4.74l-3.3,2.27
				c-1.39-2.07-3.1-3.2-5.28-3.74c-2.39-0.58-4.36,0.07-4.87,2.14c-0.47,1.91,0.35,3.04,4.44,5.47c4.3,2.61,7.01,5.3,5.79,10.28
				C1529.7,480.69,1526.33,483.07,1521.47,482.76z"/>
		</g>
		<path class="st5" d="M1557.46,484.89c-4.03-0.99-6.5-5.07-5.52-9.09c0.99-4.03,5.07-6.5,9.09-5.52c4.03,0.99,6.5,5.07,5.52,9.09
			C1565.57,483.4,1561.49,485.88,1557.46,484.89z"/>
		<path class="st5" d="M1484.38,466.99c-4.03-0.99-6.5-5.07-5.52-9.09c0.99-4.03,5.07-6.5,9.09-5.52c4.03,0.99,6.5,5.07,5.52,9.09
			C1492.49,465.51,1488.41,467.98,1484.38,466.99z"/>
	</g>
	<path class="st2" d="M514.67,313.95h-8.32l1.29-1.29c0.82-0.82,0.82-2.15,0-2.96c-0.82-0.82-2.15-0.82-2.96,0l-0.98,0.98v-7.76
		c0-0.96-0.78-1.73-1.73-1.73c-0.96,0-1.73,0.78-1.73,1.73v11.23l-2.5,2.5v-7.76c0-0.96-0.78-1.73-1.73-1.73
		c-0.96,0-1.73,0.78-1.73,1.73v11.23l-2.5,2.5v-7.76c0-0.96-0.78-1.73-1.73-1.73c-0.96,0-1.73,0.78-1.73,1.73v11.23l-4.55,4.55
		c-9.12-8.14-21.14-13.1-34.3-13.1c-28.43,0-51.56,23.13-51.56,51.56c0,18.3,9.59,34.39,24,43.54l-11.85,11.85
		c-0.82,0.82-0.82,2.15,0,2.96c0.82,0.82,2.15,0.82,2.96,0l12.64-12.64c7.13,3.73,15.22,5.85,23.8,5.85
		c8.65,0,16.81-2.15,23.98-5.94l12.73,12.73c0.82,0.82,2.15,0.82,2.96,0s0.82-2.15,0-2.96l-11.95-11.95
		c14.32-9.17,23.84-25.21,23.84-43.44c0-13.76-5.43-26.28-14.25-35.53l4.23-4.23c0.09,0.01,0.17,0.03,0.27,0.03h11.49
		c0.96,0,1.73-0.78,1.73-1.73c0-0.96-0.78-1.73-1.73-1.73h-8.32l2.53-2.53c0.09,0.01,0.17,0.03,0.27,0.03h11.49
		c0.96,0,1.73-0.78,1.73-1.73c0-0.96-0.78-1.73-1.73-1.73h-8.32l2.53-2.53c0.09,0.01,0.17,0.03,0.27,0.03h11.49
		c0.96,0,1.73-0.78,1.73-1.73C516.41,314.72,515.63,313.95,514.67,313.95z M491.88,369.07c0,23.4-19.03,42.43-42.43,42.43
		c-23.4,0-42.43-19.03-42.43-42.43c0-23.4,19.03-42.43,42.43-42.43c10.64,0,20.38,3.95,27.83,10.44l-6.46,6.46
		c-5.79-4.85-13.24-7.78-21.37-7.78c-18.36,0-33.31,14.94-33.31,33.31c0,18.36,14.94,33.31,33.31,33.31s33.31-14.94,33.31-33.31
		c0-8.73-3.38-16.69-8.9-22.63l6.45-6.45C487.48,347.59,491.88,357.83,491.88,369.07z M473.64,369.07
		c0,13.33-10.85,24.18-24.18,24.18c-13.33,0-24.18-10.85-24.18-24.18c0-13.33,10.85-24.18,24.18-24.18c5.61,0,10.78,1.93,14.88,5.14
		l-6.52,6.52c-2.39-1.6-5.27-2.54-8.36-2.54c-8.3,0-15.06,6.75-15.06,15.06c0,8.3,6.75,15.06,15.06,15.06
		c8.3,0,15.06-6.75,15.06-15.06c0-3.7-1.35-7.09-3.57-9.71l6.47-6.47C471.28,357.18,473.64,362.86,473.64,369.07z M455.39,369.07
		c0,3.27-2.66,5.93-5.93,5.93s-5.93-2.66-5.93-5.93c0-3.27,2.66-5.93,5.93-5.93c0.54,0,1.06,0.08,1.56,0.22l-2.42,2.42
		c-0.82,0.82-0.82,2.15,0,2.96c0.82,0.82,2.15,0.82,2.96,0l2.88-2.88C455.03,366.79,455.39,367.89,455.39,369.07z"/>
	<path class="st2" d="M391.8,675.08c-18.93,0-34.27,15.34-34.27,34.27c0,18.93,15.34,34.27,34.27,34.27
		c18.93,0,34.27-15.34,34.27-34.27C426.07,690.42,410.73,675.08,391.8,675.08z M379.41,731.45v-42.87l37.13,21.43L379.41,731.45z"/>
	<path class="st2" d="M697.1,337.74c-16.41,4.79-25.88,22.03-21.09,38.45c4.79,16.42,22.03,25.88,38.45,21.09
		c16.41-4.79,25.88-22.03,21.09-38.45C730.77,342.42,713.52,332.96,697.1,337.74z M730.2,360.39c3.93,13.49-3.81,27.6-17.3,31.53
		c-13.49,3.93-27.6-3.81-31.53-17.3c-3.93-13.49,3.81-27.6,17.3-31.53C712.15,339.16,726.27,346.91,730.2,360.39z M713.05,382.11
		l2.05,7.04l-4.51,1.31l-1.99-6.81c-4.31,0.96-7.96,0.27-10.92-1.31l2.12-4.36c2.69,1.36,5.51,1.79,8.69,0.86
		c3.27-0.95,5.2-3.21,4.33-6.21c-0.75-2.58-2.38-3.35-7.59-3.43c-7.07-0.09-10.59-1.91-11.93-6.51c-1.33-4.56,1.21-8.69,6.04-10.8
		l-1.97-6.77l4.51-1.31l1.97,6.77c3.25-0.5,5.96,0.06,8.61,1.44l-2.01,4.23c-2.62-1.28-5.01-1.43-7.54-0.7
		c-2.76,0.81-4.38,2.62-3.68,5.02c0.64,2.21,2.14,2.87,7.7,2.95c5.88,0.13,10.21,1.27,11.88,7.02
		C720.17,375.19,718.16,379.57,713.05,382.11z"/>
</g>
</svg>
