<?xml version="1.0" encoding="utf-8"?>
<!-- Generator: Adobe Illustrator 23.0.1, SVG Export Plug-In . SVG Version: 6.00 Build 0)  -->
<svg version="1.1" id="Layer_1" xmlns="http://www.w3.org/2000/svg" xmlns:xlink="http://www.w3.org/1999/xlink" x="0px" y="0px"
	 viewBox="0 0 1920 1080" style="enable-background:new 0 0 1920 1080;" xml:space="preserve">
<style type="text/css">
	.st0{fill:#002E3D;}
	.st1{fill:url(#SVGID_1_);}
	.st2{fill:#05324A;}
	.st3{fill:#101429;}
	.st4{fill:url(#SVGID_2_);}
	.st5{fill:#9ED9F8;}
	.st6{opacity:0.44;fill:url(#SVGID_3_);}
	.st7{fill:url(#SVGID_4_);}
	.st8{fill:url(#SVGID_5_);}
	.st9{fill:none;stroke:#FFFFFF;stroke-width:0.3193;stroke-miterlimit:10;}
	.st10{fill:#FFFFFF;}
	.st11{fill:url(#SVGID_6_);}
	.st12{fill:url(#SVGID_7_);}
	.st13{fill:url(#SVGID_8_);}
	.st14{fill:url(#SVGID_9_);}
	.st15{fill:none;stroke:#FFFFFF;stroke-width:0.2757;stroke-miterlimit:10;}
	.st16{fill-rule:evenodd;clip-rule:evenodd;fill:#FFFFFF;}
	.st17{fill:url(#SVGID_10_);}
	.st18{fill:url(#SVGID_11_);}
	.st19{fill:none;stroke:#FFFFFF;stroke-width:0.4103;stroke-miterlimit:10;}
	.st20{fill:url(#SVGID_12_);}
	.st21{fill:url(#SVGID_13_);}
	.st22{fill:#E50054;}
</style>
<g>
	<path class="st0" d="M1346.53,993.57c0,8.52-171.98,15.43-384.12,15.43s-384.12-6.91-384.12-15.43
		c0-8.52,171.98-15.43,384.12-15.43S1346.53,985.05,1346.53,993.57z"/>
	<g>
		<g>
			<g>
				<linearGradient id="SVGID_1_" gradientUnits="userSpaceOnUse" x1="719.5287" y1="533.723" x2="1198.9874" y2="533.723">
					<stop  offset="0" style="stop-color:#005573"/>
					<stop  offset="0.2358" style="stop-color:#005877"/>
					<stop  offset="0.4836" style="stop-color:#006184"/>
					<stop  offset="0.737" style="stop-color:#007099"/>
					<stop  offset="0.9926" style="stop-color:#0084B6"/>
					<stop  offset="1" style="stop-color:#0085B7"/>
				</linearGradient>
				<path class="st1" d="M798.16,75.65h322.2c43.43,0,78.63,35.21,78.63,78.63v758.89c0,43.43-35.2,78.63-78.63,78.63H778.5
					c-43.43,0-58.97-35.2-58.97-78.63V666.89V340.16V154.28C719.53,110.85,754.73,75.65,798.16,75.65z"/>
				<path class="st2" d="M778.5,983.39c-41.79,0-50.56-38.19-50.56-70.22V154.28c0-38.72,31.5-70.22,70.22-70.22h322.2
					c38.72,0,70.22,31.5,70.22,70.22v758.89c0,38.72-31.5,70.22-70.22,70.22H778.5z"/>
				<path class="st3" d="M909.79,121.61h90.65c1.87,0,3.39,2.2,3.39,4.91c0,2.71-1.52,4.91-3.39,4.91h-90.65
					c-1.87,0-3.39-2.2-3.39-4.91C906.4,123.81,907.92,121.61,909.79,121.61z"/>
			</g>
			<linearGradient id="SVGID_2_" gradientUnits="userSpaceOnUse" x1="1156.0057" y1="113.9818" x2="718.0506" y2="1050.5707">
				<stop  offset="0" style="stop-color:#D2ECFC"/>
				<stop  offset="0.1552" style="stop-color:#CEEAFA"/>
				<stop  offset="0.3183" style="stop-color:#C1E3F6"/>
				<stop  offset="0.4851" style="stop-color:#ACD7EF"/>
				<stop  offset="0.6545" style="stop-color:#8FC7E4"/>
				<stop  offset="0.8259" style="stop-color:#69B2D7"/>
				<stop  offset="0.9966" style="stop-color:#3B99C6"/>
				<stop  offset="1" style="stop-color:#3A98C6"/>
			</linearGradient>
			<path class="st4" d="M1114.57,94.76h-31.02l-30.22,37.04c-7.38,9.05-18.35,14.29-29.92,14.29H896.06
				c-11.57,0-22.54-5.24-29.92-14.29l-30.22-37.04h-31.02c-37.21,0-67.49,30.75-67.49,68.55v740.83c0,31.27,8.43,68.55,48.6,68.55
				h328.57c37.21,0,67.49-30.75,67.49-68.55V163.31C1182.06,125.51,1151.79,94.76,1114.57,94.76z"/>
			<path class="st5" d="M1195.7,423.42c0,134.19-0.39,242.97-0.87,242.97c-0.48,0-0.87-108.78-0.87-242.97s0.39-242.97,0.87-242.97
				C1195.31,180.45,1195.7,289.23,1195.7,423.42z"/>
			<path class="st5" d="M724.3,423.42c0,134.19-0.39,242.97-0.87,242.97s-0.87-108.78-0.87-242.97s0.39-242.97,0.87-242.97
				S724.3,289.23,724.3,423.42z"/>
			<path class="st5" d="M961.62,79.87c-75.91,0-137.44-0.39-137.44-0.87c0-0.48,61.53-0.87,137.44-0.87
				c75.91,0,137.44,0.39,137.44,0.87C1099.06,79.48,1037.52,79.87,961.62,79.87z"/>
			<circle class="st3" cx="1015.66" cy="126.14" r="5.5"/>
			<linearGradient id="SVGID_3_" gradientUnits="userSpaceOnUse" x1="780.0082" y1="588.9349" x2="1339.0012" y2="436.4824">
				<stop  offset="0" style="stop-color:#FFFFFF"/>
				<stop  offset="1" style="stop-color:#FFFFFF;stop-opacity:0"/>
			</linearGradient>
			<path class="st6" d="M1120.36,75.65H845.68l315.27,904.77c22.77-13.77,38.04-38.7,38.04-67.25V154.28
				C1198.99,110.85,1163.79,75.65,1120.36,75.65z"/>
			<path class="st5" d="M955.27,988.23c-75.91,0-137.44-0.39-137.44-0.87c0-0.48,61.53-0.87,137.44-0.87
				c75.91,0,137.44,0.39,137.44,0.87C1092.71,987.84,1031.17,988.23,955.27,988.23z"/>
		</g>
	</g>
	<g>
		
			<linearGradient id="SVGID_4_" gradientUnits="userSpaceOnUse" x1="-153.3301" y1="55.4272" x2="-24.28" y2="-118.9524" gradientTransform="matrix(0.9619 0.2734 -0.2734 0.9619 839.1606 416.5174)">
			<stop  offset="0" style="stop-color:#07101E"/>
			<stop  offset="0.4753" style="stop-color:#052D4B"/>
			<stop  offset="1" style="stop-color:#021B30"/>
		</linearGradient>
		<circle class="st7" cx="762.42" cy="361.69" r="108.46"/>
		
			<linearGradient id="SVGID_5_" gradientUnits="userSpaceOnUse" x1="-162.2278" y1="47.0634" x2="-33.1775" y2="-127.3163" gradientTransform="matrix(0.9619 0.2734 -0.2734 0.9619 839.1606 416.5174)">
			<stop  offset="0" style="stop-color:#083E64"/>
			<stop  offset="0.4908" style="stop-color:#083E64"/>
			<stop  offset="1" style="stop-color:#085E9C"/>
		</linearGradient>
		<circle class="st8" cx="756.15" cy="351.21" r="108.46"/>
		
			<ellipse transform="matrix(0.7071 -0.7071 0.7071 0.7071 -26.8698 637.5458)" class="st9" cx="756.15" cy="351.21" rx="98.96" ry="98.96"/>
		<path id="XMLID_1283_" class="st10" d="M733.75,390.08l17.31,4.92l12.32-43.35l12.08,3.43l5.41-14.15l-13.37-3.8
			c0,0,1.54-5.42,2.35-8.27c0.97-3.42,2.04-4.58,5.35-3.64c2.66,0.76,9.37,2.66,9.37,2.66l4.28-15.06c0,0-9.88-2.81-11.99-3.41
			c-12.88-3.66-20.3,0.36-23.39,11.22c-2.69,9.46-3.29,11.57-3.29,11.57l-9.01-2.56l-4.18,14.7l9.01,2.56L733.75,390.08z"/>
	</g>
	<g>
		<linearGradient id="SVGID_6_" gradientUnits="userSpaceOnUse" x1="1080.1039" y1="838.2841" x2="1157.3546" y2="694.6884">
			<stop  offset="0" style="stop-color:#420E06"/>
			<stop  offset="0.4962" style="stop-color:#5A0A00"/>
			<stop  offset="1" style="stop-color:#5A0A00"/>
		</linearGradient>
		<circle class="st11" cx="1116.49" cy="770.64" r="108.46"/>
		
			<linearGradient id="SVGID_7_" gradientUnits="userSpaceOnUse" x1="2043.8256" y1="2198.1863" x2="2172.8767" y2="2023.8053" gradientTransform="matrix(0.8678 -0.4969 0.4969 0.8678 -1773.9637 -16.4801)">
			<stop  offset="0" style="stop-color:#5A0A00"/>
			<stop  offset="1" style="stop-color:#E30613"/>
		</linearGradient>
		<circle class="st12" cx="1104.62" cy="767.8" r="108.46"/>
		
			<ellipse transform="matrix(0.332 -0.9433 0.9433 0.332 13.6147 1554.8304)" class="st9" cx="1104.62" cy="767.8" rx="98.96" ry="98.96"/>
		<path id="XMLID_1282_" class="st10" d="M1095.57,791.78c1.42-0.68,1.88-2.03,0.97-3.43c-0.63-0.97-2.25-3.38-2.91-4.41
			c-0.9-1.4-1.42-1.65-3.24-1.71c-3.97-0.14-7.97-1.57-12.08-5.3c-11.92-10.84-14.48-29.46-1.47-43.77
			c11.52-12.67,25.59-12.59,35.93-3.19c13.6,12.37,19.61,28.82,11.48,37.76c-4.49,4.94-11.93,4.92-15.86-0.81
			c-4.68-6.86-8.64-15.46-12.95-19.39c-3.86-3.51-8.97-4.37-12.87-0.08c-4.59,5.05-3.05,13.84,3.94,20.2
			c4.45,4.05,8.84,5.28,8.84,5.28s17.18,25.05,20.19,29.44c5.99,8.74,16.73,15.71,17.8,16.44c0.63,0.43,1.42-0.17,1.29-0.87
			c-0.18-1.02-2.14-13.77-7.7-22.55c-1.57-2.49-9.94-15.11-9.94-15.11c4.62,1.21,11.72-1.08,16.35-6.18
			c13.79-15.17,9.32-38.02-9.18-54.85c-13.99-12.72-37.8-12.72-54.18,5.29c-20.38,22.41-14.59,48.32-1.19,60.51
			C1076.88,792.44,1086.89,795.93,1095.57,791.78z"/>
	</g>
	<g>
		
			<linearGradient id="SVGID_8_" gradientUnits="userSpaceOnUse" x1="2068.7197" y1="2024.7914" x2="2180.1709" y2="1874.1925" gradientTransform="matrix(0.8495 -0.5276 0.5276 0.8495 -1865.9053 -22.7997)">
			<stop  offset="0" style="stop-color:#032F13"/>
			<stop  offset="0.5192" style="stop-color:#024E21"/>
			<stop  offset="1" style="stop-color:#032D12"/>
		</linearGradient>
		<circle class="st13" cx="967.36" cy="512.44" r="93.67"/>
		<linearGradient id="SVGID_9_" gradientUnits="userSpaceOnUse" x1="930.5467" y1="520.4634" x2="1055.3215" y2="472.8221">
			<stop  offset="0" style="stop-color:#00A048"/>
			<stop  offset="1" style="stop-color:#154925"/>
		</linearGradient>
		<circle class="st14" cx="957.02" cy="510.35" r="93.67"/>
		<path class="st15" d="M1029.63,465.27c24.9,40.1,12.58,92.79-27.51,117.69c-40.1,24.9-92.79,12.58-117.69-27.51
			c-24.9-40.1-12.58-92.79,27.51-117.69C952.03,412.85,1004.73,425.17,1029.63,465.27z"/>
		<g id="XMLID_1277_">
			<path id="XMLID_1279_" class="st16" d="M1003.18,487.53c-9.87-23.52-36.87-34.96-60.96-25.56c-23.8,9.28-35.93,35.48-27.85,59.27
				c0.23,0.65,0.46,1.3,0.71,1.94c3.24,8.31,8.59,15.16,15.19,20.22l1.21,26.68l21.48-17.36c7.7,1.01,15.77,0.15,23.53-2.87
				c24.46-9.54,36.6-36.94,27.14-61.21C1003.49,488.27,1003.34,487.89,1003.18,487.53z M973.76,542.85
				c-7.57,2.95-15.47,3.45-22.86,1.87l-12.52,10.14l-0.71-15.53c-6.83-4.36-12.38-10.81-15.54-18.9c-0.47-1.2-0.88-2.43-1.21-3.66
				c-5.47-19.41,4.73-40.27,24.03-47.8c19.55-7.62,41.47,1.14,50.39,19.58c0.46,0.92,0.87,1.86,1.25,2.83
				C1004.53,511.76,994.29,534.84,973.76,542.85z"/>
			<path id="XMLID_1278_" class="st16" d="M983.11,506.87c-1.31-0.11-7.66-0.64-8.79-0.61c-1.14,0.02-1.93,0.13-2.24,1.49
				c-0.3,1.36-1.45,4.6-1.8,5.55c-0.36,0.98-0.95,1.3-2.26,1.19c-1.29-0.12-5.23,0.13-10.81-1.94c-4.32-1.59-7.89-4.25-8.93-5.09
				c-1.04-0.84-0.71-1.63-0.38-2.38c0.3-0.69,0.58-1.68,0.9-2.52c0.07-0.24,0.13-0.46,0.19-0.67c0.1-0.49,0.14-0.94,0.18-1.55
				c0.09-0.87-0.34-1.42-0.82-1.85c-0.48-0.43-4.73-4.89-6.48-6.69c-1.73-1.81-2.5-1.08-3.14-0.83c-0.62,0.24-1.39,0.42-2.11,0.71
				c-0.73,0.28-1.8,1.01-2.38,2.48c-0.57,1.47-2.35,5.17-0.28,10.48c0.48,1.24,1.2,2.4,1.99,3.45c2.58,3.36,6.16,5.57,6.79,5.95
				c0.81,0.5,12.16,9.01,24.88,9.04c12.72-0.02,12.16-1.45,14.08-2.41c1.92-0.94,5.42-5.1,5.32-7.97c-0.06-2.86-0.91-5.02-1.35-5.37
				C985.23,506.97,984.4,506.98,983.11,506.87z"/>
		</g>
	</g>
	<g>
		
			<linearGradient id="SVGID_10_" gradientUnits="userSpaceOnUse" x1="-4117.6938" y1="1594.8669" x2="-3951.8701" y2="1370.7966" gradientTransform="matrix(-0.9149 0.4038 0.4038 0.9149 -3149.0129 693.9886)">
			<stop  offset="0" style="stop-color:#250520"/>
			<stop  offset="0.4842" style="stop-color:#541239"/>
			<stop  offset="1" style="stop-color:#3E153B"/>
		</linearGradient>
		<circle class="st17" cx="1141.18" cy="421.39" r="139.38"/>
		<linearGradient id="SVGID_11_" gradientUnits="userSpaceOnUse" x1="1239.4634" y1="479.9637" x2="1032.7045" y2="316.142">
			<stop  offset="0" style="stop-color:#FDC100"/>
			<stop  offset="0.5012" style="stop-color:#BB1832"/>
			<stop  offset="1" style="stop-color:#8C2A86"/>
		</linearGradient>
		<circle class="st18" cx="1147.3" cy="406.94" r="139.38"/>
		
			<ellipse transform="matrix(0.7071 -0.7071 0.7071 0.7071 48.2876 930.4502)" class="st19" cx="1147.3" cy="406.94" rx="127.16" ry="127.16"/>
		<g id="XMLID_1269_">
			<path id="XMLID_1274_" class="st10" d="M1124.48,354.8c15.29-8.19,17.14-9.1,23.32-12.06c5.72-2.74,9.25-3.43,11.69-3.72
				c3.23-0.39,5.8-0.17,8.88,0.76c3.08,0.93,5.34,2.17,7.81,4.29c1.87,1.6,4.42,4.13,7.67,9.58c3.51,5.89,4.54,7.67,12.73,22.97
				c8.19,15.29,9.1,17.14,12.06,23.32c2.73,5.72,3.43,9.25,3.72,11.69c0.39,3.23,0.17,5.8-0.76,8.88c-0.93,3.08-2.18,5.34-4.29,7.81
				c-1.6,1.87-4.13,4.42-9.58,7.67c-5.89,3.51-7.67,4.54-22.97,12.72c-15.3,8.19-17.14,9.1-23.32,12.06
				c-5.72,2.73-9.25,3.43-11.69,3.72c-3.23,0.39-5.8,0.17-8.88-0.76c-3.08-0.93-5.34-2.17-7.81-4.29c-1.86-1.6-4.42-4.13-7.67-9.58
				c-3.51-5.89-4.54-7.67-12.72-22.97c-8.19-15.29-9.1-17.14-12.06-23.32c-2.73-5.72-3.42-9.25-3.72-11.69
				c-0.39-3.23-0.17-5.8,0.76-8.88c0.93-3.08,2.18-5.34,4.29-7.81c1.6-1.87,4.13-4.42,9.58-7.67
				C1107.41,364.01,1109.19,362.98,1124.48,354.8 M1118.96,344.47c-15.56,8.33-17.47,9.44-23.43,12.99
				c-5.95,3.54-9.59,6.74-12.48,10.11c-2.98,3.48-5.13,7.15-6.61,12.04c-1.48,4.89-1.73,9.13-1.17,13.68
				c0.53,4.4,1.79,9.08,4.78,15.33c2.99,6.26,3.97,8.24,12.3,23.8c8.33,15.56,9.44,17.47,12.99,23.43
				c3.54,5.95,6.74,9.59,10.11,12.48c3.48,2.98,7.15,5.13,12.04,6.61c4.89,1.48,9.13,1.73,13.68,1.18c4.4-0.54,9.08-1.8,15.33-4.78
				c6.26-2.99,8.24-3.97,23.8-12.3c15.56-8.33,17.47-9.44,23.43-12.99c5.95-3.54,9.59-6.74,12.48-10.11
				c2.98-3.48,5.13-7.15,6.61-12.04c1.48-4.89,1.73-9.13,1.18-13.68c-0.54-4.4-1.8-9.08-4.78-15.33c-2.99-6.26-3.97-8.24-12.3-23.8
				c-8.33-15.56-9.44-17.47-12.99-23.43c-3.54-5.95-6.74-9.59-10.11-12.48c-3.48-2.98-7.15-5.13-12.04-6.61
				c-4.89-1.48-9.13-1.73-13.68-1.18c-4.4,0.54-9.08,1.8-15.33,4.78C1136.5,335.17,1134.51,336.15,1118.96,344.47"/>
			<path id="XMLID_1271_" class="st10" d="M1133.87,372.34c-16.24,8.7-22.36,28.92-13.67,45.16c8.7,16.24,28.92,22.36,45.16,13.67
				c16.24-8.7,22.36-28.92,13.67-45.16C1170.34,369.76,1150.12,363.64,1133.87,372.34 M1159.84,420.85
				c-10.55,5.65-23.67,1.67-29.31-8.87c-5.65-10.55-1.67-23.67,8.87-29.31c10.54-5.65,23.67-1.67,29.31,8.87
				C1174.36,402.08,1170.39,415.2,1159.84,420.85"/>
			<path id="XMLID_1270_" class="st10" d="M1170.7,351.13c2.03,3.8,0.6,8.52-3.19,10.55c-3.8,2.03-8.52,0.6-10.55-3.19
				c-2.03-3.8-0.6-8.52,3.19-10.55C1163.94,345.9,1168.67,347.33,1170.7,351.13"/>
		</g>
	</g>
	<g>
		<linearGradient id="SVGID_12_" gradientUnits="userSpaceOnUse" x1="683.4624" y1="619.5354" x2="861.2533" y2="821.7845">
			<stop  offset="0" style="stop-color:#00487E"/>
			<stop  offset="0.5473" style="stop-color:#217FB3"/>
			<stop  offset="1" style="stop-color:#00487E"/>
		</linearGradient>
		<path class="st20" d="M898.88,669.08c-25.26-72.71-104.68-111.18-177.39-85.92c-72.71,25.26-111.18,104.68-85.92,177.39
			c25.26,72.71,104.68,111.18,177.39,85.92C885.67,821.21,924.14,741.79,898.88,669.08z"/>
		
			<linearGradient id="SVGID_13_" gradientUnits="userSpaceOnUse" x1="-2601.302" y1="6075.0161" x2="-2808.0605" y2="5911.1948" gradientTransform="matrix(-0.9967 -0.0812 0.0812 -0.9967 -2411.9973 6492.1909)">
			<stop  offset="0" style="stop-color:#47C1F1"/>
			<stop  offset="1" style="stop-color:#007AB9"/>
		</linearGradient>
		<circle class="st21" cx="759.94" cy="728.72" r="139.38"/>
		
			<ellipse transform="matrix(0.9924 -0.1234 0.1234 0.9924 -84.1111 99.3408)" class="st19" cx="759.94" cy="728.72" rx="127.16" ry="127.16"/>
		<path id="XMLID_3_" class="st10" d="M710.74,798.55c14.96,3.89,31.17,3.73,46.95-1.43c51.9-16.94,66.92-70.35,52.32-109.09
			c4.17-5.72,7.31-12.19,9.23-19.02c-4.29,3.86-9.19,7.12-14.62,9.64c4.64-5.34,7.29-12.26,7.24-19.48
			c-4.36,4.97-9.58,9.25-15.53,12.58c-6.88-3.77-15.25-4.79-23.29-2.16c-18.04,5.89-25.81,27.05-16.03,43.21
			c-23.61,6.42-47.85,2.01-67.15-10.41c-3.22,14.96,5.67,30.25,20.83,34.5c-4.63,1.35-9.36,1.5-13.81,0.64
			c3.93,13.05,17.16,22.13,31.49,20.45c-3.59,2.36-7.82,4-12.46,4.59c7.18,9.95,20.14,14.66,32.45,10.89
			C739.61,786.51,726.14,795.46,710.74,798.55z"/>
	</g>
	<g>
		<path class="st22" d="M1364.61,180.45l-25.6-51.1c-3.24-6.48-11.12-9.09-17.6-5.85l-51.1,25.61c-6.47,3.24-9.09,11.12-5.85,17.6
			l8.1,16.17l-16.31,18.73c-0.77,0.88-0.07,2.25,1.1,2.15l24.58-2.19l8.13,16.23c3.24,6.48,11.12,9.09,17.6,5.85l51.1-25.6
			C1365.23,194.8,1367.85,186.92,1364.61,180.45z"/>
		<path class="st10" d="M1318.13,151.45c-4.91,2.33-7.53,7.46-6.98,12.57c-3.62-3.65-9.25-4.85-14.16-2.52
			c-6.21,2.95-8.85,10.38-5.9,16.59c7.49,15.75,32.71,12.55,32.71,12.55s17.45-19.54,10.91-33.3
			C1331.76,151.14,1324.34,148.5,1318.13,151.45z"/>
	</g>
	<g>
		<path class="st22" d="M539.07,522.35l12.96-55.67c1.64-7.05,8.69-11.44,15.75-9.8l55.67,12.96c7.05,1.64,11.44,8.69,9.8,15.75
			l-4.1,17.61l20.24,14.41c0.95,0.68,0.6,2.18-0.56,2.35l-24.41,3.61l-4.12,17.69c-1.64,7.05-8.69,11.44-15.74,9.8l-55.67-12.96
			C541.81,536.46,537.43,529.41,539.07,522.35z"/>
		<path class="st10" d="M577.49,483.3c5.32,1.12,9.06,5.49,9.73,10.59c2.67-4.4,7.86-6.88,13.18-5.75
			c6.73,1.42,11.03,8.03,9.61,14.75c-3.6,17.06-28.88,19.85-28.88,19.85s-21.53-14.92-18.39-29.83
			C564.16,486.18,570.76,481.88,577.49,483.3z"/>
	</g>
</g>
</svg>
