<svg xmlns="http://www.w3.org/2000/svg" xmlns:xlink="http://www.w3.org/1999/xlink" viewBox="0 0 505.56 101"><defs><style>.cls-1,.cls-2,.cls-3{fill:#ff6229;}.cls-2{clip-path:url(#clip-path);}.cls-3{clip-path:url(#clip-path-2);}.cls-4{fill:#fff;}.cls-5{clip-path:url(#clip-path-3);}.cls-6{clip-path:url(#clip-path-4);}</style><clipPath id="clip-path"><ellipse class="cls-1" cx="496.33" cy="49.79" rx="9.24" ry="9.27"/></clipPath><clipPath id="clip-path-2"><path class="cls-1" d="M498.79,55,496,50.93h-1.77v4.12h-1.68V44.2h5a3.15,3.15,0,0,1,1.3.27,3.55,3.55,0,0,1,1.06.72,3.43,3.43,0,0,1,.71,1.08,3.31,3.31,0,0,1,.26,1.32,3.35,3.35,0,0,1-.21,1.19,3.4,3.4,0,0,1-.61,1,3.22,3.22,0,0,1-.91.73,3.1,3.1,0,0,1-1.12.38L500.82,55Z"/></clipPath><clipPath id="clip-path-3"><path class="cls-2" d="M496.33,41.92a7.87,7.87,0,0,0,0,15.74h0a7.87,7.87,0,0,0,0-15.74Z"/></clipPath><clipPath id="clip-path-4"><path class="cls-3" d="M497.51,49.26a1.53,1.53,0,0,0,.64-.13,1.4,1.4,0,0,0,.51-.36,1.77,1.77,0,0,0,.36-.53,1.66,1.66,0,0,0,.13-.64,1.85,1.85,0,0,0-.13-.66,1.7,1.7,0,0,0-.36-.54,1.75,1.75,0,0,0-.53-.37,1.5,1.5,0,0,0-.64-.14h-3.28v3.36Z"/></clipPath></defs><title>Asset 1</title><g id="Layer_2" data-name="Layer 2"><g id="_1stpage_background" data-name="1stpage background"><path class="cls-4" d="M161.61,51.52V90.8h-6.13V63.25L141,77.66l-14.4-14.41V90.8h-6.13V51.52h3.09L141,69l17.5-17.46Z"/><path class="cls-4" d="M172.62,90.91h-6.71l16.92-39.28h3.36l16.92,39.28H196.4l-3.66-8.47H176.28Zm11.89-27.66-5.61,13h11.22Z"/><path class="cls-4" d="M229.43,90.8,219.23,76H212.8V91h-6.13V51.52l18.08.06a11.48,11.48,0,0,1,4.71,1,12.42,12.42,0,0,1,3.85,2.63,12,12,0,0,1,2.6,3.92,12.24,12.24,0,0,1,.94,4.78,11.93,11.93,0,0,1-3,8,12.31,12.31,0,0,1-3.3,2.65,11.79,11.79,0,0,1-4.08,1.37L236.8,90.8Zm-4.67-20.87a5.62,5.62,0,0,0,2.33-.48A5.85,5.85,0,0,0,229,68.14a6.39,6.39,0,0,0,1.28-1.92,5.86,5.86,0,0,0,.47-2.34,6.21,6.21,0,0,0-.47-2.39,5.91,5.91,0,0,0-1.31-2,6.71,6.71,0,0,0-1.9-1.35,5.5,5.5,0,0,0-2.33-.49H212.8V69.87Z"/><path class="cls-4" d="M256.44,69.19l16.25,21.66H265L252.2,73.77l-3.82,4.1v13h-6.13V51.79h6.13V68.88l.1-.11v0l.21-.16,15.87-17H273Z"/><path class="cls-1" d="M290.81,51.52a18.92,18.92,0,0,1,7.6,1.55,20,20,0,0,1,10.45,10.49,19.65,19.65,0,0,1,0,15.3,19.54,19.54,0,0,1-4.22,6.24,20.12,20.12,0,0,1-6.23,4.2,19.53,19.53,0,0,1-15.25,0,19.72,19.72,0,0,1-10.4-10.44,19.77,19.77,0,0,1,0-15.3,20.21,20.21,0,0,1,4.2-6.25,19.7,19.7,0,0,1,6.2-4.24A19.06,19.06,0,0,1,290.81,51.52Zm0,33.55A13.43,13.43,0,0,0,296.16,84a14,14,0,0,0,4.4-3,13.81,13.81,0,0,0,4-9.83,13.64,13.64,0,0,0-1.07-5.36,13.84,13.84,0,0,0-3-4.42,14,14,0,0,0-4.4-3,13.89,13.89,0,0,0-10.74,0,13.82,13.82,0,0,0-7.36,7.39,14,14,0,0,0,0,10.77A13.82,13.82,0,0,0,285.42,84,13.48,13.48,0,0,0,290.81,85.07Z"/><path class="cls-1" d="M338.66,90.8,328.47,76H322V91h-6.13V51.52l18.07.06a11.53,11.53,0,0,1,4.72,1,12.42,12.42,0,0,1,3.85,2.63,12,12,0,0,1,2.59,3.92,12.25,12.25,0,0,1,.95,4.78,11.93,11.93,0,0,1-3,8,12.31,12.31,0,0,1-3.3,2.65,11.77,11.77,0,0,1-4.09,1.37L346,90.8ZM334,69.93a5.65,5.65,0,0,0,2.33-.48,5.85,5.85,0,0,0,1.88-1.31,6.58,6.58,0,0,0,1.28-1.92,5.86,5.86,0,0,0,.47-2.34,6.21,6.21,0,0,0-.47-2.39,6.06,6.06,0,0,0-1.31-2,6.76,6.76,0,0,0-1.91-1.35,5.45,5.45,0,0,0-2.32-.49H322V69.87Z"/><path class="cls-1" d="M373.61,90.8,363.41,76H357V91h-6.13V51.52l18.08.06a11.44,11.44,0,0,1,4.71,1,12.42,12.42,0,0,1,3.85,2.63,12,12,0,0,1,2.6,3.92,12.24,12.24,0,0,1,.94,4.78,12,12,0,0,1-.78,4.34,12.21,12.21,0,0,1-2.2,3.63,12.51,12.51,0,0,1-3.31,2.65,11.72,11.72,0,0,1-4.08,1.37L381,90.8ZM369,69.93a5.6,5.6,0,0,0,2.32-.48,5.85,5.85,0,0,0,1.88-1.31,6.39,6.39,0,0,0,1.28-1.92,5.86,5.86,0,0,0,.47-2.34,6.21,6.21,0,0,0-.47-2.39,5.91,5.91,0,0,0-1.31-2,6.71,6.71,0,0,0-1.9-1.35,5.5,5.5,0,0,0-2.33-.49H357V69.87Z"/><path class="cls-1" d="M411.79,90.85H386.43V51.68h25.36v6H392.45v8.83h16.82v6H392.45v12.2h19.34Z"/><path class="cls-1" d="M435.68,90.91a18.89,18.89,0,0,1-7.6-1.55,20.37,20.37,0,0,1-6.24-4.21,19.75,19.75,0,0,1-4.21-6.23,19.2,19.2,0,0,1-1.55-7.68,19,19,0,0,1,1.55-7.62,19.81,19.81,0,0,1,10.45-10.49,18.72,18.72,0,0,1,7.6-1.55,18.93,18.93,0,0,1,10.84,3.34l-3.3,5a13.47,13.47,0,0,0-12.84-1.24A13.86,13.86,0,0,0,423.13,66a13,13,0,0,0-1.08,5.29,13.21,13.21,0,0,0,1.08,5.32,13.37,13.37,0,0,0,2.93,4.32,14.29,14.29,0,0,0,4.32,2.91,13.24,13.24,0,0,0,5.3,1.07,13.47,13.47,0,0,0,7.54-2.26l3.3,5a18.54,18.54,0,0,1-5.16,2.46A19.66,19.66,0,0,1,435.68,90.91Z"/><path class="cls-1" d="M451.08,51.52h30.44v6.16H469.36V90.85h-6.13V57.68H451.08Z"/><ellipse class="cls-1" cx="496.33" cy="49.79" rx="9.24" ry="9.27"/><path class="cls-1" d="M496.33,41.92a7.87,7.87,0,0,0,0,15.74h0a7.87,7.87,0,0,0,0-15.74Z"/><g class="cls-5"><rect class="cls-1" x="488.49" y="41.92" width="15.68" height="15.73"/><ellipse class="cls-1" cx="496.33" cy="49.79" rx="9.24" ry="9.27"/><ellipse class="cls-1" cx="496.33" cy="49.79" rx="8.93" ry="8.96"/><ellipse class="cls-1" cx="496.33" cy="49.79" rx="8.62" ry="8.65"/><ellipse class="cls-1" cx="496.33" cy="49.79" rx="8.31" ry="8.34"/><ellipse class="cls-1" cx="496.33" cy="49.79" rx="8.01" ry="8.03"/><ellipse class="cls-1" cx="496.33" cy="49.79" rx="7.7" ry="7.73"/><ellipse class="cls-1" cx="496.33" cy="49.79" rx="7.39" ry="7.42"/><ellipse class="cls-1" cx="496.33" cy="49.79" rx="7.08" ry="7.11"/><ellipse class="cls-1" cx="496.33" cy="49.79" rx="6.77" ry="6.8"/><ellipse class="cls-1" cx="496.33" cy="49.79" rx="6.47" ry="6.49"/><ellipse class="cls-1" cx="496.33" cy="49.79" rx="6.16" ry="6.18"/><ellipse class="cls-1" cx="496.33" cy="49.79" rx="5.85" ry="5.87"/><ellipse class="cls-1" cx="496.33" cy="49.79" rx="5.54" ry="5.56"/><ellipse class="cls-1" cx="496.33" cy="49.79" rx="5.23" ry="5.25"/><ellipse class="cls-1" cx="496.33" cy="49.79" rx="4.93" ry="4.94"/><ellipse class="cls-1" cx="496.33" cy="49.79" rx="4.62" ry="4.64"/><ellipse class="cls-1" cx="496.33" cy="49.79" rx="4.31" ry="4.33"/><ellipse class="cls-1" cx="496.33" cy="49.79" rx="4" ry="4.02"/><ellipse class="cls-1" cx="496.33" cy="49.79" rx="3.69" ry="3.71"/><ellipse class="cls-1" cx="496.33" cy="49.79" rx="3.39" ry="3.4"/><ellipse class="cls-1" cx="496.33" cy="49.79" rx="3.08" ry="3.09"/><ellipse class="cls-1" cx="496.33" cy="49.79" rx="2.77" ry="2.78"/><ellipse class="cls-1" cx="496.33" cy="49.79" rx="2.46" ry="2.47"/><ellipse class="cls-1" cx="496.33" cy="49.79" rx="2.16" ry="2.16"/><ellipse class="cls-1" cx="496.33" cy="49.79" rx="1.85" ry="1.85"/><ellipse class="cls-1" cx="496.33" cy="49.79" rx="1.54" ry="1.55"/><ellipse class="cls-1" cx="496.33" cy="49.79" rx="1.23" ry="1.24"/><circle class="cls-1" cx="496.33" cy="49.79" r="0.92"/><circle class="cls-1" cx="496.33" cy="49.79" r="0.62"/><circle class="cls-1" cx="496.33" cy="49.79" r="0.31"/><rect class="cls-1" x="487.09" y="40.52" width="18.47" height="18.54"/><ellipse class="cls-1" cx="496.33" cy="49.79" rx="9.24" ry="9.27"/><ellipse class="cls-1" cx="496.33" cy="49.79" rx="8.93" ry="8.96"/><ellipse class="cls-1" cx="496.33" cy="49.79" rx="8.62" ry="8.65"/><ellipse class="cls-1" cx="496.33" cy="49.79" rx="8.31" ry="8.34"/><ellipse class="cls-1" cx="496.33" cy="49.79" rx="8.01" ry="8.03"/><ellipse class="cls-1" cx="496.33" cy="49.79" rx="7.7" ry="7.73"/><ellipse class="cls-1" cx="496.33" cy="49.79" rx="7.39" ry="7.42"/><ellipse class="cls-1" cx="496.33" cy="49.79" rx="7.08" ry="7.11"/><ellipse class="cls-1" cx="496.33" cy="49.79" rx="6.77" ry="6.8"/><ellipse class="cls-1" cx="496.33" cy="49.79" rx="6.47" ry="6.49"/><ellipse class="cls-1" cx="496.33" cy="49.79" rx="6.16" ry="6.18"/><ellipse class="cls-1" cx="496.33" cy="49.79" rx="5.85" ry="5.87"/><ellipse class="cls-1" cx="496.33" cy="49.79" rx="5.54" ry="5.56"/><ellipse class="cls-1" cx="496.33" cy="49.79" rx="5.23" ry="5.25"/><ellipse class="cls-1" cx="496.33" cy="49.79" rx="4.93" ry="4.94"/><ellipse class="cls-1" cx="496.33" cy="49.79" rx="4.62" ry="4.64"/><ellipse class="cls-1" cx="496.33" cy="49.79" rx="4.31" ry="4.33"/><ellipse class="cls-1" cx="496.33" cy="49.79" rx="4" ry="4.02"/><ellipse class="cls-1" cx="496.33" cy="49.79" rx="3.69" ry="3.71"/><ellipse class="cls-1" cx="496.33" cy="49.79" rx="3.39" ry="3.4"/><ellipse class="cls-1" cx="496.33" cy="49.79" rx="3.08" ry="3.09"/><ellipse class="cls-1" cx="496.33" cy="49.79" rx="2.77" ry="2.78"/><ellipse class="cls-1" cx="496.33" cy="49.79" rx="2.46" ry="2.47"/><ellipse class="cls-1" cx="496.33" cy="49.79" rx="2.16" ry="2.16"/><ellipse class="cls-1" cx="496.33" cy="49.79" rx="1.85" ry="1.85"/><ellipse class="cls-1" cx="496.33" cy="49.79" rx="1.54" ry="1.55"/><ellipse class="cls-1" cx="496.33" cy="49.79" rx="1.23" ry="1.24"/><circle class="cls-1" cx="496.33" cy="49.79" r="0.92"/><circle class="cls-1" cx="496.33" cy="49.79" r="0.62"/><circle class="cls-1" cx="496.33" cy="49.79" r="0.31"/></g><path class="cls-1" d="M498.79,55,496,50.93h-1.77v4.12h-1.68V44.2h5a3.15,3.15,0,0,1,1.3.27,3.55,3.55,0,0,1,1.06.72,3.43,3.43,0,0,1,.71,1.08,3.31,3.31,0,0,1,.26,1.32,3.35,3.35,0,0,1-.21,1.19,3.4,3.4,0,0,1-.61,1,3.22,3.22,0,0,1-.91.73,3.1,3.1,0,0,1-1.12.38L500.82,55Z"/><path class="cls-1" d="M497.51,49.26a1.53,1.53,0,0,0,.64-.13,1.4,1.4,0,0,0,.51-.36,1.77,1.77,0,0,0,.36-.53,1.66,1.66,0,0,0,.13-.64,1.85,1.85,0,0,0-.13-.66,1.7,1.7,0,0,0-.36-.54,1.75,1.75,0,0,0-.53-.37,1.5,1.5,0,0,0-.64-.14h-3.28v3.36Z"/><g class="cls-6"><rect class="cls-1" x="494.21" y="45.89" width="4.93" height="3.37"/><ellipse class="cls-1" cx="496.68" cy="49.63" rx="4.82" ry="4.84"/><ellipse class="cls-1" cx="496.68" cy="49.63" rx="4.66" ry="4.68"/><ellipse class="cls-1" cx="496.68" cy="49.63" rx="4.5" ry="4.52"/><ellipse class="cls-1" cx="496.68" cy="49.63" rx="4.34" ry="4.35"/><ellipse class="cls-1" cx="496.68" cy="49.63" rx="4.18" ry="4.19"/><ellipse class="cls-1" cx="496.68" cy="49.63" rx="4.02" ry="4.03"/><ellipse class="cls-1" cx="496.68" cy="49.63" rx="3.86" ry="3.87"/><ellipse class="cls-1" cx="496.68" cy="49.63" rx="3.7" ry="3.71"/><ellipse class="cls-1" cx="496.68" cy="49.63" rx="3.54" ry="3.55"/><ellipse class="cls-1" cx="496.68" cy="49.63" rx="3.38" ry="3.39"/><ellipse class="cls-1" cx="496.68" cy="49.63" rx="3.21" ry="3.23"/><ellipse class="cls-1" cx="496.68" cy="49.63" rx="3.05" ry="3.06"/><ellipse class="cls-1" cx="496.68" cy="49.63" rx="2.89" ry="2.9"/><ellipse class="cls-1" cx="496.68" cy="49.63" rx="2.73" ry="2.74"/><ellipse class="cls-1" cx="496.68" cy="49.63" rx="2.57" ry="2.58"/><ellipse class="cls-1" cx="496.68" cy="49.63" rx="2.41" ry="2.42"/><ellipse class="cls-1" cx="496.68" cy="49.63" rx="2.25" ry="2.26"/><ellipse class="cls-1" cx="496.68" cy="49.63" rx="2.09" ry="2.1"/><ellipse class="cls-1" cx="496.68" cy="49.63" rx="1.93" ry="1.94"/><ellipse class="cls-1" cx="496.68" cy="49.63" rx="1.77" ry="1.77"/><ellipse class="cls-1" cx="496.68" cy="49.63" rx="1.61" ry="1.61"/><ellipse class="cls-1" cx="496.68" cy="49.63" rx="1.45" ry="1.45"/><ellipse class="cls-1" cx="496.68" cy="49.63" rx="1.29" ry="1.29"/><ellipse class="cls-1" cx="496.68" cy="49.63" rx="1.13" ry="1.13"/><circle class="cls-1" cx="496.68" cy="49.63" r="0.96"/><circle class="cls-1" cx="496.68" cy="49.63" r="0.8"/><circle class="cls-1" cx="496.68" cy="49.63" r="0.64"/><circle class="cls-1" cx="496.68" cy="49.63" r="0.48"/><circle class="cls-1" cx="496.68" cy="49.63" r="0.32"/><circle class="cls-1" cx="496.68" cy="49.63" r="0.16"/><rect class="cls-1" x="492.53" y="44.2" width="8.31" height="10.85"/><ellipse class="cls-1" cx="496.68" cy="49.63" rx="4.82" ry="4.84"/><ellipse class="cls-1" cx="496.68" cy="49.63" rx="4.66" ry="4.68"/><ellipse class="cls-1" cx="496.68" cy="49.63" rx="4.5" ry="4.52"/><ellipse class="cls-1" cx="496.68" cy="49.63" rx="4.34" ry="4.35"/><ellipse class="cls-1" cx="496.68" cy="49.63" rx="4.18" ry="4.19"/><ellipse class="cls-1" cx="496.68" cy="49.63" rx="4.02" ry="4.03"/><ellipse class="cls-1" cx="496.68" cy="49.63" rx="3.86" ry="3.87"/><ellipse class="cls-1" cx="496.68" cy="49.63" rx="3.7" ry="3.71"/><ellipse class="cls-1" cx="496.68" cy="49.63" rx="3.54" ry="3.55"/><ellipse class="cls-1" cx="496.68" cy="49.63" rx="3.38" ry="3.39"/><ellipse class="cls-1" cx="496.68" cy="49.63" rx="3.21" ry="3.23"/><ellipse class="cls-1" cx="496.68" cy="49.63" rx="3.05" ry="3.06"/><ellipse class="cls-1" cx="496.68" cy="49.63" rx="2.89" ry="2.9"/><ellipse class="cls-1" cx="496.68" cy="49.63" rx="2.73" ry="2.74"/><ellipse class="cls-1" cx="496.68" cy="49.63" rx="2.57" ry="2.58"/><ellipse class="cls-1" cx="496.68" cy="49.63" rx="2.41" ry="2.42"/><ellipse class="cls-1" cx="496.68" cy="49.63" rx="2.25" ry="2.26"/><ellipse class="cls-1" cx="496.68" cy="49.63" rx="2.09" ry="2.1"/><ellipse class="cls-1" cx="496.68" cy="49.63" rx="1.93" ry="1.94"/><ellipse class="cls-1" cx="496.68" cy="49.63" rx="1.77" ry="1.77"/><ellipse class="cls-1" cx="496.68" cy="49.63" rx="1.61" ry="1.61"/><ellipse class="cls-1" cx="496.68" cy="49.63" rx="1.45" ry="1.45"/><ellipse class="cls-1" cx="496.68" cy="49.63" rx="1.29" ry="1.29"/><ellipse class="cls-1" cx="496.68" cy="49.63" rx="1.13" ry="1.13"/><circle class="cls-1" cx="496.68" cy="49.63" r="0.96"/><circle class="cls-1" cx="496.68" cy="49.63" r="0.8"/><circle class="cls-1" cx="496.68" cy="49.63" r="0.64"/><circle class="cls-1" cx="496.68" cy="49.63" r="0.48"/><circle class="cls-1" cx="496.68" cy="49.63" r="0.32"/><circle class="cls-1" cx="496.68" cy="49.63" r="0.16"/></g><path class="cls-1" d="M24.92,88.82,2.35,94.15a1.91,1.91,0,0,1-2.27-2.4l8.2-27.28A1.91,1.91,0,0,1,11.7,64l14.37,22A1.9,1.9,0,0,1,24.92,88.82Z"/><path class="cls-1" d="M57.28,89.57,80,94.23a1.9,1.9,0,0,0,2.19-2.46l-9-27a1.9,1.9,0,0,0-3.43-.4L56,86.71A1.9,1.9,0,0,0,57.28,89.57Z"/><path class="cls-1" d="M100.2,3.49,42.9,99.88a2.3,2.3,0,0,1-4,0l-27.66-47h0l4.54-17.37a2.29,2.29,0,0,1,3.84-1L39.51,54.28a2.3,2.3,0,0,0,3.25,0L96.6.69A2.3,2.3,0,0,1,100.2,3.49Z"/><path class="cls-1" d="M86.48,95.87A2.89,2.89,0,1,1,89.37,93,2.89,2.89,0,0,1,86.48,95.87Zm0-5.33a2.45,2.45,0,0,0,0,4.89h0a2.45,2.45,0,1,0,0-4.89Z"/><path class="cls-1" d="M87.25,94.61l-.87-1.27h-.55v1.28H85.3V91.25h1.55a1.11,1.11,0,0,1,.41.08,1.23,1.23,0,0,1,.33.23,1.06,1.06,0,0,1,.22.33,1.15,1.15,0,0,1,.08.41,1,1,0,0,1-.07.38.93.93,0,0,1-.19.31,1,1,0,0,1-.28.22,1,1,0,0,1-.35.12l.89,1.28Zm-.4-1.79a.45.45,0,0,0,.2,0,.46.46,0,0,0,.16-.11.39.39,0,0,0,.11-.17.42.42,0,0,0,0-.2.45.45,0,0,0,0-.2.39.39,0,0,0-.11-.17.42.42,0,0,0-.16-.11.46.46,0,0,0-.2,0h-1v1Z"/></g></g></svg>