<?xml version="1.0" encoding="utf-8"?>
<!-- Generator: Adobe Illustrator 23.0.1, SVG Export Plug-In . SVG Version: 6.00 Build 0)  -->
<svg version="1.1" id="Layer_1" xmlns="http://www.w3.org/2000/svg" xmlns:xlink="http://www.w3.org/1999/xlink" x="0px" y="0px"
	 viewBox="0 0 1000 200" style="enable-background:new 0 0 1000 200;" xml:space="preserve">
<style type="text/css">
	.st0{fill:#FF6229;}
	.st1{fill:#FFFFFF;}
	.st2{clip-path:url(#SVGID_3_);}
	.st3{clip-path:url(#SVGID_4_);}
	.st4{clip-path:url(#SVGID_7_);}
	.st5{clip-path:url(#SVGID_8_);}
</style>
<g>
	<g>
		<g>
			<g>
				<path class="st0" d="M72.07,171.65l-42.64,10.1c-2.7,0.64-5.07-1.89-4.27-4.55l15.48-51.67c0.88-2.94,4.78-3.5,6.46-0.94
					l27.15,41.57C75.62,168.26,74.5,171.08,72.07,171.65z"/>
			</g>
			<g>
				<path class="st0" d="M133.2,173.08l42.92,8.83c2.71,0.56,5.01-2.04,4.14-4.67l-17.01-51.19c-0.97-2.91-4.88-3.36-6.48-0.75
					l-25.91,42.36C129.55,169.79,130.76,172.58,133.2,173.08z"/>
			</g>
			<g>
				<path class="st0" d="M214.27,10.07L106.04,192.59c-1.69,2.84-5.8,2.83-7.47-0.02l-52.26-89.03v-0.01l8.57-32.9
					c0.85-3.25,4.9-4.35,7.27-1.98l37.5,37.59c1.69,1.7,4.43,1.7,6.13,0.01L207.48,4.76C211.1,1.15,216.88,5.67,214.27,10.07z"/>
			</g>
		</g>
		<g>
			<g>
				<g>
					<path class="st0" d="M188.37,185c-3,0-5.44-2.45-5.44-5.46c0-3.01,2.44-5.46,5.44-5.46c3,0,5.44,2.45,5.44,5.46
						C193.81,182.55,191.37,185,188.37,185z M188.37,174.91c-2.55,0-4.62,2.08-4.62,4.63s2.07,4.63,4.62,4.63h0
						c2.55,0,4.62-2.08,4.62-4.63S190.91,174.91,188.37,174.91z"/>
				</g>
			</g>
			<g>
				<g>
					<path class="st0" d="M189.82,182.61l-1.65-2.4h-1.04v2.43h-0.99v-6.39l2.93,0.01c0.27,0,0.53,0.05,0.76,0.16
						c0.24,0.11,0.45,0.25,0.62,0.43c0.18,0.18,0.32,0.39,0.42,0.63c0.1,0.24,0.15,0.5,0.15,0.78c0,0.25-0.04,0.48-0.13,0.7
						c-0.08,0.22-0.2,0.41-0.36,0.59c-0.15,0.17-0.33,0.32-0.54,0.43c-0.2,0.11-0.42,0.19-0.66,0.22l1.67,2.42H189.82z
						 M189.06,179.23c0.14,0,0.26-0.03,0.38-0.08c0.12-0.05,0.22-0.12,0.31-0.21c0.09-0.09,0.16-0.19,0.21-0.31
						c0.05-0.12,0.08-0.24,0.08-0.38s-0.03-0.27-0.08-0.39c-0.05-0.12-0.12-0.23-0.21-0.32c-0.09-0.09-0.19-0.16-0.31-0.22
						c-0.12-0.05-0.24-0.08-0.38-0.08h-1.93v1.98L189.06,179.23z"/>
				</g>
			</g>
		</g>
	</g>
	<g>
		<g>
			<path class="st1" d="M330.29,101.02v74.38h-11.58v-52.18l-27.31,27.28l-27.22-27.28v52.18H252.6v-74.38h5.84l32.96,33.06
				l33.06-33.06H330.29z"/>
			<path class="st1" d="M351.07,175.61H338.4l31.97-74.38h6.33l31.97,74.38H396l-6.93-16.03H358L351.07,175.61z M373.54,123.23
				l-10.59,24.7h21.18L373.54,123.23z"/>
			<path class="st1" d="M458.38,175.41l-19.26-28.08h-12.15v28.38H415.4v-74.68l34.14,0.1c3.17,0,6.14,0.61,8.91,1.84
				c2.77,1.23,5.2,2.89,7.27,4.98c2.08,2.09,3.71,4.56,4.9,7.42c1.19,2.85,1.78,5.87,1.78,9.06c0,2.92-0.49,5.66-1.48,8.22
				c-0.99,2.56-2.38,4.85-4.16,6.87c-1.78,2.03-3.86,3.7-6.23,5.03c-2.38,1.33-4.95,2.19-7.72,2.59l19.5,28.28H458.38z
				 M449.57,135.87c1.58,0,3.04-0.3,4.39-0.9c1.35-0.6,2.53-1.43,3.55-2.49c1.02-1.06,1.82-2.27,2.42-3.63
				c0.59-1.36,0.89-2.84,0.89-4.43c0-1.59-0.3-3.1-0.89-4.53c-0.59-1.43-1.41-2.67-2.47-3.73c-1.05-1.06-2.25-1.91-3.6-2.54
				s-2.81-0.95-4.39-0.95h-22.5v23.1L449.57,135.87z"/>
			<path class="st1" d="M509.42,134.48l30.68,41.03h-14.45l-24.25-32.36l-7.22,7.77v24.7H482.6v-74.09h11.58v32.36l0.2-0.2v-0.1
				l0.4-0.3l29.99-32.26h15.84L509.42,134.48z"/>
			<g>
				<path class="st0" d="M574.34,101.02c5.08,0,9.86,0.98,14.35,2.94c4.49,1.96,8.41,4.63,11.78,8.02s6.02,7.34,7.97,11.85
					c1.95,4.52,2.92,9.33,2.92,14.44c0,5.18-0.97,10.02-2.92,14.54c-1.95,4.52-4.6,8.45-7.97,11.8c-3.37,3.35-7.29,6.01-11.78,7.97
					c-4.49,1.96-9.27,2.94-14.35,2.94c-5.15,0-9.96-0.98-14.45-2.94c-4.49-1.96-8.4-4.61-11.73-7.97c-3.33-3.35-5.97-7.28-7.92-11.8
					c-1.95-4.51-2.92-9.36-2.92-14.54c0-5.11,0.97-9.92,2.92-14.44c1.95-4.51,4.59-8.46,7.92-11.85c3.33-3.39,7.24-6.06,11.73-8.02
					C564.38,102,569.19,101.02,574.34,101.02z M574.34,164.55c3.56,0,6.93-0.68,10.09-2.04c3.17-1.36,5.94-3.24,8.31-5.63
					c2.38-2.39,4.24-5.18,5.59-8.36c1.35-3.19,2.03-6.61,2.03-10.26c0-3.58-0.68-6.97-2.03-10.16c-1.35-3.19-3.22-5.98-5.59-8.37
					c-2.38-2.39-5.15-4.26-8.31-5.63c-3.17-1.36-6.53-2.04-10.09-2.04c-3.63,0-7.03,0.68-10.19,2.04c-3.17,1.36-5.94,3.24-8.31,5.63
					c-2.38,2.39-4.24,5.18-5.59,8.37c-1.35,3.19-2.03,6.57-2.03,10.16c0,3.65,0.68,7.07,2.03,10.26c1.35,3.19,3.22,5.97,5.59,8.36
					c2.38,2.39,5.15,4.27,8.31,5.63C567.31,163.87,570.71,164.55,574.34,164.55z"/>
			</g>
			<g>
				<path class="st0" d="M664.73,175.41l-19.26-28.08h-12.15v28.38h-11.58v-74.68l34.14,0.1c3.17,0,6.14,0.61,8.91,1.84
					c2.77,1.23,5.2,2.89,7.27,4.98c2.08,2.09,3.71,4.56,4.9,7.42c1.19,2.85,1.78,5.87,1.78,9.06c0,2.92-0.49,5.66-1.48,8.22
					c-0.99,2.56-2.38,4.85-4.16,6.87c-1.78,2.03-3.86,3.7-6.24,5.03c-2.38,1.33-4.95,2.19-7.72,2.59l19.5,28.28H664.73z
					 M655.92,135.87c1.58,0,3.04-0.3,4.39-0.9c1.35-0.6,2.53-1.43,3.55-2.49c1.02-1.06,1.82-2.27,2.42-3.63
					c0.59-1.36,0.89-2.84,0.89-4.43c0-1.59-0.3-3.1-0.89-4.53c-0.59-1.43-1.41-2.67-2.47-3.73c-1.05-1.06-2.25-1.91-3.6-2.54
					c-1.35-0.63-2.81-0.95-4.39-0.95h-22.5v23.1L655.92,135.87z"/>
			</g>
			<g>
				<path class="st0" d="M730.74,175.41l-19.26-28.08h-12.15v28.38h-11.58v-74.68l34.14,0.1c3.17,0,6.14,0.61,8.91,1.84
					c2.77,1.23,5.2,2.89,7.27,4.98c2.08,2.09,3.71,4.56,4.9,7.42c1.19,2.85,1.78,5.87,1.78,9.06c0,2.92-0.49,5.66-1.48,8.22
					c-0.99,2.56-2.38,4.85-4.16,6.87c-1.78,2.03-3.86,3.7-6.24,5.03c-2.38,1.33-4.95,2.19-7.72,2.59l19.5,28.28H730.74z
					 M721.93,135.87c1.58,0,3.04-0.3,4.39-0.9c1.35-0.6,2.53-1.43,3.55-2.49c1.02-1.06,1.82-2.27,2.42-3.63
					c0.59-1.36,0.89-2.84,0.89-4.43c0-1.59-0.3-3.1-0.89-4.53c-0.59-1.43-1.41-2.67-2.47-3.73c-1.05-1.06-2.25-1.91-3.6-2.54
					c-1.35-0.63-2.81-0.95-4.39-0.95h-22.5v23.1L721.93,135.87z"/>
			</g>
			<g>
				<path class="st0" d="M802.85,175.51h-47.9v-74.19h47.9v11.45h-36.52v16.73h31.77v11.45h-31.77v23.1h36.52V175.51z"/>
			</g>
			<g>
				<path class="st0" d="M847.98,175.61c-5.08,0-9.86-0.98-14.35-2.94c-4.49-1.96-8.41-4.61-11.78-7.97
					c-3.37-3.35-6.02-7.28-7.97-11.8c-1.95-4.51-2.92-9.36-2.92-14.54c0-5.11,0.97-9.92,2.92-14.44c1.95-4.51,4.6-8.46,7.97-11.85
					c3.37-3.39,7.29-6.06,11.78-8.02c4.49-1.96,9.27-2.94,14.35-2.94c3.69,0,7.27,0.54,10.74,1.61c3.46,1.07,6.71,2.65,9.75,4.72
					l-6.24,9.5c-4.29-2.92-9.04-4.38-14.25-4.38c-3.56,0-6.9,0.68-10,2.03c-3.1,1.36-5.82,3.21-8.16,5.55
					c-2.34,2.35-4.19,5.07-5.54,8.18c-1.35,3.11-2.03,6.45-2.03,10.02c0,3.57,0.68,6.93,2.03,10.07c1.35,3.14,3.2,5.87,5.54,8.18
					c2.34,2.32,5.06,4.15,8.16,5.5c3.1,1.36,6.43,2.03,10,2.03c5.15,0,9.9-1.43,14.25-4.28l6.24,9.5c-3.04,2.08-6.28,3.64-9.75,4.67
					C855.26,175.09,851.68,175.61,847.98,175.61z"/>
			</g>
			<g>
				<path class="st0" d="M877.08,101.02h57.5v11.65h-22.96v62.83h-11.58v-62.83h-22.96V101.02z"/>
			</g>
		</g>
		<g>
			<g>
				<g>
					<g>
						<defs>
							<ellipse id="SVGID_1_" cx="962.55" cy="97.74" rx="17.45" ry="17.56"/>
						</defs>
						<defs>
							<path id="SVGID_2_" d="M962.55,82.84c-8.16,0-14.81,6.68-14.81,14.9s6.64,14.9,14.81,14.9h0c8.16,0,14.81-6.68,14.81-14.9
								S970.72,82.84,962.55,82.84z"/>
						</defs>
						<use xlink:href="#SVGID_1_"  style="overflow:visible;fill:#FF6229;"/>
						<use xlink:href="#SVGID_2_"  style="overflow:visible;fill:#FF6229;"/>
						<clipPath id="SVGID_3_">
							<use xlink:href="#SVGID_1_"  style="overflow:visible;"/>
						</clipPath>
						<clipPath id="SVGID_4_" class="st2">
							<use xlink:href="#SVGID_2_"  style="overflow:visible;"/>
						</clipPath>
						<g class="st3">
							<rect x="947.74" y="82.84" class="st0" width="29.61" height="29.8"/>
						</g>
						<g class="st3">
							<ellipse class="st0" cx="962.55" cy="97.74" rx="17.45" ry="17.56"/>
						</g>
						<g class="st3">
							<ellipse class="st0" cx="962.55" cy="97.74" rx="16.87" ry="16.97"/>
						</g>
						<g class="st3">
							<ellipse class="st0" cx="962.55" cy="97.74" rx="16.29" ry="16.39"/>
						</g>
						<g class="st3">
							<ellipse class="st0" cx="962.55" cy="97.74" rx="15.7" ry="15.8"/>
						</g>
						<g class="st3">
							<ellipse class="st0" cx="962.55" cy="97.74" rx="15.12" ry="15.22"/>
						</g>
						<g class="st3">
							<ellipse class="st0" cx="962.55" cy="97.74" rx="14.54" ry="14.63"/>
						</g>
						<g class="st3">
							<ellipse class="st0" cx="962.55" cy="97.74" rx="13.96" ry="14.04"/>
						</g>
						<g class="st3">
							<ellipse class="st0" cx="962.55" cy="97.74" rx="13.38" ry="13.46"/>
						</g>
						<g class="st3">
							<ellipse class="st0" cx="962.55" cy="97.74" rx="12.8" ry="12.87"/>
						</g>
						<g class="st3">
							<ellipse class="st0" cx="962.55" cy="97.74" rx="12.21" ry="12.29"/>
						</g>
						<g class="st3">
							<ellipse class="st0" cx="962.55" cy="97.74" rx="11.63" ry="11.7"/>
						</g>
						<g class="st3">
							<ellipse class="st0" cx="962.55" cy="97.74" rx="11.05" ry="11.12"/>
						</g>
						<g class="st3">
							<ellipse class="st0" cx="962.55" cy="97.74" rx="10.47" ry="10.53"/>
						</g>
						<g class="st3">
							<ellipse class="st0" cx="962.55" cy="97.74" rx="9.89" ry="9.95"/>
						</g>
						<g class="st3">
							<ellipse class="st0" cx="962.55" cy="97.74" rx="9.31" ry="9.36"/>
						</g>
						<g class="st3">
							<ellipse class="st0" cx="962.55" cy="97.74" rx="8.72" ry="8.78"/>
						</g>
						<g class="st3">
							<ellipse class="st0" cx="962.55" cy="97.74" rx="8.14" ry="8.19"/>
						</g>
						<g class="st3">
							<ellipse class="st0" cx="962.55" cy="97.74" rx="7.56" ry="7.61"/>
						</g>
						<g class="st3">
							<ellipse class="st0" cx="962.55" cy="97.74" rx="6.98" ry="7.02"/>
						</g>
						<g class="st3">
							<ellipse class="st0" cx="962.55" cy="97.74" rx="6.4" ry="6.44"/>
						</g>
						<g class="st3">
							<ellipse class="st0" cx="962.55" cy="97.74" rx="5.82" ry="5.85"/>
						</g>
						<g class="st3">
							<ellipse class="st0" cx="962.55" cy="97.74" rx="5.23" ry="5.27"/>
						</g>
						<g class="st3">
							<ellipse class="st0" cx="962.55" cy="97.74" rx="4.65" ry="4.68"/>
						</g>
						<g class="st3">
							<ellipse class="st0" cx="962.55" cy="97.74" rx="4.07" ry="4.1"/>
						</g>
						<g class="st3">
							<ellipse class="st0" cx="962.55" cy="97.74" rx="3.49" ry="3.51"/>
						</g>
						<g class="st3">
							<ellipse class="st0" cx="962.55" cy="97.74" rx="2.91" ry="2.93"/>
						</g>
						<g class="st3">
							<ellipse class="st0" cx="962.55" cy="97.74" rx="2.33" ry="2.34"/>
						</g>
						<g class="st3">
							<ellipse class="st0" cx="962.55" cy="97.74" rx="1.74" ry="1.76"/>
						</g>
						<g class="st3">
							<ellipse class="st0" cx="962.55" cy="97.74" rx="1.16" ry="1.17"/>
						</g>
						<g class="st3">
							<ellipse class="st0" cx="962.55" cy="97.74" rx="0.58" ry="0.59"/>
						</g>
						<g class="st3">
							<rect x="945.1" y="80.19" class="st0" width="34.9" height="35.11"/>
						</g>
						<g class="st3">
							<ellipse class="st0" cx="962.55" cy="97.74" rx="17.45" ry="17.56"/>
						</g>
						<g class="st3">
							<ellipse class="st0" cx="962.55" cy="97.74" rx="16.87" ry="16.97"/>
						</g>
						<g class="st3">
							<ellipse class="st0" cx="962.55" cy="97.74" rx="16.29" ry="16.39"/>
						</g>
						<g class="st3">
							<ellipse class="st0" cx="962.55" cy="97.74" rx="15.7" ry="15.8"/>
						</g>
						<g class="st3">
							<ellipse class="st0" cx="962.55" cy="97.74" rx="15.12" ry="15.22"/>
						</g>
						<g class="st3">
							<ellipse class="st0" cx="962.55" cy="97.74" rx="14.54" ry="14.63"/>
						</g>
						<g class="st3">
							<ellipse class="st0" cx="962.55" cy="97.74" rx="13.96" ry="14.04"/>
						</g>
						<g class="st3">
							<ellipse class="st0" cx="962.55" cy="97.74" rx="13.38" ry="13.46"/>
						</g>
						<g class="st3">
							<ellipse class="st0" cx="962.55" cy="97.74" rx="12.8" ry="12.87"/>
						</g>
						<g class="st3">
							<ellipse class="st0" cx="962.55" cy="97.74" rx="12.21" ry="12.29"/>
						</g>
						<g class="st3">
							<ellipse class="st0" cx="962.55" cy="97.74" rx="11.63" ry="11.7"/>
						</g>
						<g class="st3">
							<ellipse class="st0" cx="962.55" cy="97.74" rx="11.05" ry="11.12"/>
						</g>
						<g class="st3">
							<ellipse class="st0" cx="962.55" cy="97.74" rx="10.47" ry="10.53"/>
						</g>
						<g class="st3">
							<ellipse class="st0" cx="962.55" cy="97.74" rx="9.89" ry="9.95"/>
						</g>
						<g class="st3">
							<ellipse class="st0" cx="962.55" cy="97.74" rx="9.31" ry="9.36"/>
						</g>
						<g class="st3">
							<ellipse class="st0" cx="962.55" cy="97.74" rx="8.72" ry="8.78"/>
						</g>
						<g class="st3">
							<ellipse class="st0" cx="962.55" cy="97.74" rx="8.14" ry="8.19"/>
						</g>
						<g class="st3">
							<ellipse class="st0" cx="962.55" cy="97.74" rx="7.56" ry="7.61"/>
						</g>
						<g class="st3">
							<ellipse class="st0" cx="962.55" cy="97.74" rx="6.98" ry="7.02"/>
						</g>
						<g class="st3">
							<ellipse class="st0" cx="962.55" cy="97.74" rx="6.4" ry="6.44"/>
						</g>
						<g class="st3">
							<ellipse class="st0" cx="962.55" cy="97.74" rx="5.82" ry="5.85"/>
						</g>
						<g class="st3">
							<ellipse class="st0" cx="962.55" cy="97.74" rx="5.23" ry="5.27"/>
						</g>
						<g class="st3">
							<ellipse class="st0" cx="962.55" cy="97.74" rx="4.65" ry="4.68"/>
						</g>
						<g class="st3">
							<ellipse class="st0" cx="962.55" cy="97.74" rx="4.07" ry="4.1"/>
						</g>
						<g class="st3">
							<ellipse class="st0" cx="962.55" cy="97.74" rx="3.49" ry="3.51"/>
						</g>
						<g class="st3">
							<ellipse class="st0" cx="962.55" cy="97.74" rx="2.91" ry="2.93"/>
						</g>
						<g class="st3">
							<ellipse class="st0" cx="962.55" cy="97.74" rx="2.33" ry="2.34"/>
						</g>
						<g class="st3">
							<ellipse class="st0" cx="962.55" cy="97.74" rx="1.74" ry="1.76"/>
						</g>
						<g class="st3">
							<ellipse class="st0" cx="962.55" cy="97.74" rx="1.16" ry="1.17"/>
						</g>
						<g class="st3">
							<ellipse class="st0" cx="962.55" cy="97.74" rx="0.58" ry="0.59"/>
						</g>
					</g>
				</g>
			</g>
			<g>
				<g>
					<g>
						<defs>
							<path id="SVGID_5_" d="M967.2,107.62l-5.3-7.73h-3.34v7.81h-3.19V87.15l9.4,0.03c0.87,0,1.69,0.17,2.45,0.51
								c0.76,0.34,1.43,0.79,2,1.37c0.57,0.58,1.02,1.26,1.35,2.04c0.33,0.79,0.49,1.62,0.49,2.49c0,0.8-0.14,1.56-0.41,2.26
								c-0.27,0.7-0.65,1.33-1.14,1.89c-0.49,0.56-1.06,1.02-1.72,1.38c-0.65,0.37-1.36,0.6-2.12,0.71l5.37,7.78H967.2z"/>
						</defs>
						<defs>
							<path id="SVGID_6_" d="M964.78,96.74c0.43,0,0.84-0.08,1.21-0.25c0.37-0.16,0.7-0.39,0.98-0.69c0.28-0.29,0.5-0.63,0.67-1
								c0.16-0.37,0.24-0.78,0.24-1.22s-0.08-0.85-0.24-1.25c-0.16-0.39-0.39-0.74-0.68-1.03c-0.29-0.29-0.62-0.53-0.99-0.7
								c-0.37-0.17-0.77-0.26-1.21-0.26h-6.19v6.36L964.78,96.74z"/>
						</defs>
						<use xlink:href="#SVGID_5_"  style="overflow:visible;fill:#FF6229;"/>
						<use xlink:href="#SVGID_6_"  style="overflow:visible;fill:#FF6229;"/>
						<clipPath id="SVGID_7_">
							<use xlink:href="#SVGID_5_"  style="overflow:visible;"/>
						</clipPath>
						<clipPath id="SVGID_8_" class="st4">
							<use xlink:href="#SVGID_6_"  style="overflow:visible;"/>
						</clipPath>
						<g class="st5">
							<rect x="958.56" y="90.36" class="st0" width="9.32" height="6.39"/>
						</g>
						<g class="st5">
							<ellipse class="st0" cx="963.22" cy="97.43" rx="9.11" ry="9.16"/>
						</g>
						<g class="st5">
							<ellipse class="st0" cx="963.22" cy="97.43" rx="8.8" ry="8.86"/>
						</g>
						<g class="st5">
							<ellipse class="st0" cx="963.22" cy="97.43" rx="8.5" ry="8.55"/>
						</g>
						<g class="st5">
							<ellipse class="st0" cx="963.22" cy="97.43" rx="8.2" ry="8.25"/>
						</g>
						<g class="st5">
							<ellipse class="st0" cx="963.22" cy="97.43" rx="7.89" ry="7.94"/>
						</g>
						<g class="st5">
							<ellipse class="st0" cx="963.22" cy="97.43" rx="7.59" ry="7.64"/>
						</g>
						<g class="st5">
							<ellipse class="st0" cx="963.22" cy="97.43" rx="7.29" ry="7.33"/>
						</g>
						<g class="st5">
							<ellipse class="st0" cx="963.22" cy="97.43" rx="6.98" ry="7.03"/>
						</g>
						<g class="st5">
							<ellipse class="st0" cx="963.22" cy="97.43" rx="6.68" ry="6.72"/>
						</g>
						<g class="st5">
							<ellipse class="st0" cx="963.22" cy="97.43" rx="6.38" ry="6.41"/>
						</g>
						<g class="st5">
							<ellipse class="st0" cx="963.22" cy="97.43" rx="6.07" ry="6.11"/>
						</g>
						<g class="st5">
							<ellipse class="st0" cx="963.22" cy="97.43" rx="5.77" ry="5.8"/>
						</g>
						<g class="st5">
							<ellipse class="st0" cx="963.22" cy="97.43" rx="5.46" ry="5.5"/>
						</g>
						<g class="st5">
							<ellipse class="st0" cx="963.22" cy="97.43" rx="5.16" ry="5.19"/>
						</g>
						<g class="st5">
							<ellipse class="st0" cx="963.22" cy="97.43" rx="4.86" ry="4.89"/>
						</g>
						<g class="st5">
							<ellipse class="st0" cx="963.22" cy="97.43" rx="4.55" ry="4.58"/>
						</g>
						<g class="st5">
							<ellipse class="st0" cx="963.22" cy="97.43" rx="4.25" ry="4.28"/>
						</g>
						<g class="st5">
							<ellipse class="st0" cx="963.22" cy="97.43" rx="3.95" ry="3.97"/>
						</g>
						<g class="st5">
							<ellipse class="st0" cx="963.22" cy="97.43" rx="3.64" ry="3.67"/>
						</g>
						<g class="st5">
							<ellipse class="st0" cx="963.22" cy="97.43" rx="3.34" ry="3.36"/>
						</g>
						<g class="st5">
							<ellipse class="st0" cx="963.22" cy="97.43" rx="3.04" ry="3.05"/>
						</g>
						<g class="st5">
							<ellipse class="st0" cx="963.22" cy="97.43" rx="2.73" ry="2.75"/>
						</g>
						<g class="st5">
							<ellipse class="st0" cx="963.22" cy="97.43" rx="2.43" ry="2.44"/>
						</g>
						<g class="st5">
							<ellipse class="st0" cx="963.22" cy="97.43" rx="2.13" ry="2.14"/>
						</g>
						<g class="st5">
							<ellipse class="st0" cx="963.22" cy="97.43" rx="1.82" ry="1.83"/>
						</g>
						<g class="st5">
							<ellipse class="st0" cx="963.22" cy="97.43" rx="1.52" ry="1.53"/>
						</g>
						<g class="st5">
							<ellipse class="st0" cx="963.22" cy="97.43" rx="1.21" ry="1.22"/>
						</g>
						<g class="st5">
							<ellipse class="st0" cx="963.22" cy="97.43" rx="0.91" ry="0.92"/>
						</g>
						<g class="st5">
							<ellipse class="st0" cx="963.22" cy="97.43" rx="0.61" ry="0.61"/>
						</g>
						<g class="st5">
							<circle class="st0" cx="963.22" cy="97.43" r="0.3"/>
						</g>
						<g class="st5">
							<rect x="955.37" y="87.15" class="st0" width="15.69" height="20.56"/>
						</g>
						<g class="st5">
							<ellipse class="st0" cx="963.22" cy="97.43" rx="9.11" ry="9.16"/>
						</g>
						<g class="st5">
							<ellipse class="st0" cx="963.22" cy="97.43" rx="8.8" ry="8.86"/>
						</g>
						<g class="st5">
							<ellipse class="st0" cx="963.22" cy="97.43" rx="8.5" ry="8.55"/>
						</g>
						<g class="st5">
							<ellipse class="st0" cx="963.22" cy="97.43" rx="8.2" ry="8.25"/>
						</g>
						<g class="st5">
							<ellipse class="st0" cx="963.22" cy="97.43" rx="7.89" ry="7.94"/>
						</g>
						<g class="st5">
							<ellipse class="st0" cx="963.22" cy="97.43" rx="7.59" ry="7.64"/>
						</g>
						<g class="st5">
							<ellipse class="st0" cx="963.22" cy="97.43" rx="7.29" ry="7.33"/>
						</g>
						<g class="st5">
							<ellipse class="st0" cx="963.22" cy="97.43" rx="6.98" ry="7.03"/>
						</g>
						<g class="st5">
							<ellipse class="st0" cx="963.22" cy="97.43" rx="6.68" ry="6.72"/>
						</g>
						<g class="st5">
							<ellipse class="st0" cx="963.22" cy="97.43" rx="6.38" ry="6.41"/>
						</g>
						<g class="st5">
							<ellipse class="st0" cx="963.22" cy="97.43" rx="6.07" ry="6.11"/>
						</g>
						<g class="st5">
							<ellipse class="st0" cx="963.22" cy="97.43" rx="5.77" ry="5.8"/>
						</g>
						<g class="st5">
							<ellipse class="st0" cx="963.22" cy="97.43" rx="5.46" ry="5.5"/>
						</g>
						<g class="st5">
							<ellipse class="st0" cx="963.22" cy="97.43" rx="5.16" ry="5.19"/>
						</g>
						<g class="st5">
							<ellipse class="st0" cx="963.22" cy="97.43" rx="4.86" ry="4.89"/>
						</g>
						<g class="st5">
							<ellipse class="st0" cx="963.22" cy="97.43" rx="4.55" ry="4.58"/>
						</g>
						<g class="st5">
							<ellipse class="st0" cx="963.22" cy="97.43" rx="4.25" ry="4.28"/>
						</g>
						<g class="st5">
							<ellipse class="st0" cx="963.22" cy="97.43" rx="3.95" ry="3.97"/>
						</g>
						<g class="st5">
							<ellipse class="st0" cx="963.22" cy="97.43" rx="3.64" ry="3.67"/>
						</g>
						<g class="st5">
							<ellipse class="st0" cx="963.22" cy="97.43" rx="3.34" ry="3.36"/>
						</g>
						<g class="st5">
							<ellipse class="st0" cx="963.22" cy="97.43" rx="3.04" ry="3.05"/>
						</g>
						<g class="st5">
							<ellipse class="st0" cx="963.22" cy="97.43" rx="2.73" ry="2.75"/>
						</g>
						<g class="st5">
							<ellipse class="st0" cx="963.22" cy="97.43" rx="2.43" ry="2.44"/>
						</g>
						<g class="st5">
							<ellipse class="st0" cx="963.22" cy="97.43" rx="2.13" ry="2.14"/>
						</g>
						<g class="st5">
							<ellipse class="st0" cx="963.22" cy="97.43" rx="1.82" ry="1.83"/>
						</g>
						<g class="st5">
							<ellipse class="st0" cx="963.22" cy="97.43" rx="1.52" ry="1.53"/>
						</g>
						<g class="st5">
							<ellipse class="st0" cx="963.22" cy="97.43" rx="1.21" ry="1.22"/>
						</g>
						<g class="st5">
							<ellipse class="st0" cx="963.22" cy="97.43" rx="0.91" ry="0.92"/>
						</g>
						<g class="st5">
							<ellipse class="st0" cx="963.22" cy="97.43" rx="0.61" ry="0.61"/>
						</g>
						<g class="st5">
							<circle class="st0" cx="963.22" cy="97.43" r="0.3"/>
						</g>
					</g>
				</g>
			</g>
		</g>
	</g>
</g>
</svg>
